<mxfile host="app.diagrams.net" modified="2024-05-11T09:16:39.898Z" agent="Mozilla/5.0 (Windows NT 10.0; Win64; x64) AppleWebKit/537.36 (KHTML, like Gecko) Chrome/124.0.0.0 Safari/537.36" etag="rQeVOixhC1rwSl-n4-r6" version="24.4.0" type="device">
  <diagram name="Sayfa -1" id="f9GuuPiOTZdbrCttsbCd">
    <mxGraphModel dx="12990" dy="2797" grid="1" gridSize="10" guides="1" tooltips="1" connect="1" arrows="1" fold="1" page="1" pageScale="1" pageWidth="7500" pageHeight="2500" math="0" shadow="0">
      <root>
        <mxCell id="0" />
        <mxCell id="1" parent="0" />
        <mxCell id="raTxTzk0vgehEr7z1tvl-5" value="" style="ellipse;html=1;shape=startState;fillColor=#000000;strokeColor=#ff0000;" parent="1" vertex="1">
          <mxGeometry x="-3144" y="210" width="30" height="30" as="geometry" />
        </mxCell>
        <mxCell id="raTxTzk0vgehEr7z1tvl-6" value="" style="edgeStyle=orthogonalEdgeStyle;html=1;verticalAlign=bottom;endArrow=open;endSize=8;strokeColor=#ff0000;rounded=0;entryX=0.5;entryY=0;entryDx=0;entryDy=0;" parent="1" source="raTxTzk0vgehEr7z1tvl-5" target="raTxTzk0vgehEr7z1tvl-13" edge="1">
          <mxGeometry relative="1" as="geometry">
            <mxPoint x="-3129" y="325" as="targetPoint" />
            <Array as="points" />
          </mxGeometry>
        </mxCell>
        <mxCell id="raTxTzk0vgehEr7z1tvl-13" value="Giriş Ekran" style="html=1;align=center;verticalAlign=top;rounded=1;absoluteArcSize=1;arcSize=10;dashed=0;whiteSpace=wrap;" parent="1" vertex="1">
          <mxGeometry x="-3199" y="275" width="140" height="50" as="geometry" />
        </mxCell>
        <mxCell id="YpNgMTdwTrCu8pLs_j0M-42" value="" style="edgeStyle=orthogonalEdgeStyle;rounded=0;orthogonalLoop=1;jettySize=auto;html=1;" parent="1" source="raTxTzk0vgehEr7z1tvl-15" target="YpNgMTdwTrCu8pLs_j0M-41" edge="1">
          <mxGeometry relative="1" as="geometry">
            <Array as="points">
              <mxPoint x="-4520" y="615" />
              <mxPoint x="-5690" y="615" />
            </Array>
          </mxGeometry>
        </mxCell>
        <mxCell id="YpNgMTdwTrCu8pLs_j0M-44" value="" style="edgeStyle=orthogonalEdgeStyle;rounded=0;orthogonalLoop=1;jettySize=auto;html=1;" parent="1" source="raTxTzk0vgehEr7z1tvl-15" target="YpNgMTdwTrCu8pLs_j0M-43" edge="1">
          <mxGeometry relative="1" as="geometry">
            <Array as="points">
              <mxPoint x="-4520" y="615" />
              <mxPoint x="-6600" y="615" />
            </Array>
          </mxGeometry>
        </mxCell>
        <mxCell id="xUi7JRu2v_sGwWPzo44r-137" style="edgeStyle=orthogonalEdgeStyle;rounded=0;orthogonalLoop=1;jettySize=auto;html=1;entryX=0.5;entryY=0;entryDx=0;entryDy=0;" parent="1" source="raTxTzk0vgehEr7z1tvl-15" target="YpNgMTdwTrCu8pLs_j0M-30" edge="1">
          <mxGeometry relative="1" as="geometry">
            <mxPoint x="-4520.000000000001" y="615" as="targetPoint" />
            <Array as="points">
              <mxPoint x="-4520" y="615" />
              <mxPoint x="-4655" y="615" />
            </Array>
          </mxGeometry>
        </mxCell>
        <mxCell id="xUi7JRu2v_sGwWPzo44r-140" style="edgeStyle=orthogonalEdgeStyle;rounded=0;orthogonalLoop=1;jettySize=auto;html=1;" parent="1" source="raTxTzk0vgehEr7z1tvl-15" target="YpNgMTdwTrCu8pLs_j0M-36" edge="1">
          <mxGeometry relative="1" as="geometry">
            <Array as="points">
              <mxPoint x="-4520" y="615" />
              <mxPoint x="-3760" y="615" />
            </Array>
          </mxGeometry>
        </mxCell>
        <mxCell id="xUi7JRu2v_sGwWPzo44r-142" style="edgeStyle=orthogonalEdgeStyle;rounded=0;orthogonalLoop=1;jettySize=auto;html=1;" parent="1" source="raTxTzk0vgehEr7z1tvl-15" target="YpNgMTdwTrCu8pLs_j0M-38" edge="1">
          <mxGeometry relative="1" as="geometry">
            <Array as="points">
              <mxPoint x="-4520" y="615" />
              <mxPoint x="-3120" y="615" />
            </Array>
          </mxGeometry>
        </mxCell>
        <mxCell id="xUi7JRu2v_sGwWPzo44r-143" style="edgeStyle=orthogonalEdgeStyle;rounded=0;orthogonalLoop=1;jettySize=auto;html=1;" parent="1" edge="1">
          <mxGeometry relative="1" as="geometry">
            <Array as="points">
              <mxPoint x="-4520" y="615" />
              <mxPoint x="-2040" y="615" />
            </Array>
            <mxPoint x="-4520" y="585" as="sourcePoint" />
            <mxPoint x="-2040" y="705" as="targetPoint" />
          </mxGeometry>
        </mxCell>
        <mxCell id="raTxTzk0vgehEr7z1tvl-15" value="Öğrenci Ekranı" style="whiteSpace=wrap;html=1;verticalAlign=top;rounded=1;arcSize=10;dashed=0;" parent="1" vertex="1">
          <mxGeometry x="-4580" y="545" width="120" height="40" as="geometry" />
        </mxCell>
        <mxCell id="7eG7Swem1IyPdvQVmkEB-24" style="edgeStyle=orthogonalEdgeStyle;rounded=0;orthogonalLoop=1;jettySize=auto;html=1;" parent="1" source="YpNgMTdwTrCu8pLs_j0M-6" target="7eG7Swem1IyPdvQVmkEB-15" edge="1">
          <mxGeometry relative="1" as="geometry">
            <Array as="points">
              <mxPoint x="-190" y="760" />
              <mxPoint x="600" y="760" />
            </Array>
          </mxGeometry>
        </mxCell>
        <mxCell id="7eG7Swem1IyPdvQVmkEB-27" style="edgeStyle=orthogonalEdgeStyle;rounded=0;orthogonalLoop=1;jettySize=auto;html=1;" parent="1" source="YpNgMTdwTrCu8pLs_j0M-6" target="7eG7Swem1IyPdvQVmkEB-25" edge="1">
          <mxGeometry relative="1" as="geometry">
            <Array as="points">
              <mxPoint x="-190" y="760" />
              <mxPoint x="-580" y="760" />
            </Array>
          </mxGeometry>
        </mxCell>
        <mxCell id="7eG7Swem1IyPdvQVmkEB-59" style="edgeStyle=orthogonalEdgeStyle;rounded=0;orthogonalLoop=1;jettySize=auto;html=1;" parent="1" source="YpNgMTdwTrCu8pLs_j0M-6" target="7eG7Swem1IyPdvQVmkEB-14" edge="1">
          <mxGeometry relative="1" as="geometry">
            <Array as="points">
              <mxPoint x="-190" y="760" />
              <mxPoint x="110" y="760" />
            </Array>
          </mxGeometry>
        </mxCell>
        <mxCell id="j1WZlLF4a-4qiutJMyGu-2" style="edgeStyle=orthogonalEdgeStyle;rounded=0;orthogonalLoop=1;jettySize=auto;html=1;entryX=0.5;entryY=0;entryDx=0;entryDy=0;" parent="1" source="YpNgMTdwTrCu8pLs_j0M-6" target="j1WZlLF4a-4qiutJMyGu-1" edge="1">
          <mxGeometry relative="1" as="geometry">
            <Array as="points">
              <mxPoint x="-190" y="760" />
              <mxPoint x="-1080" y="760" />
            </Array>
          </mxGeometry>
        </mxCell>
        <mxCell id="YpNgMTdwTrCu8pLs_j0M-6" value="Öğretim Elemanı Ana Ekranı" style="html=1;align=center;verticalAlign=top;rounded=1;absoluteArcSize=1;arcSize=10;dashed=0;whiteSpace=wrap;" parent="1" vertex="1">
          <mxGeometry x="-260" y="645" width="140" height="40" as="geometry" />
        </mxCell>
        <mxCell id="xUi7JRu2v_sGwWPzo44r-163" style="edgeStyle=orthogonalEdgeStyle;rounded=0;orthogonalLoop=1;jettySize=auto;html=1;" parent="1" source="YpNgMTdwTrCu8pLs_j0M-8" edge="1">
          <mxGeometry relative="1" as="geometry">
            <mxPoint x="-5080" y="1105" as="targetPoint" />
            <Array as="points">
              <mxPoint x="-5080" y="1263" />
            </Array>
          </mxGeometry>
        </mxCell>
        <mxCell id="YpNgMTdwTrCu8pLs_j0M-8" value="Öğrenci Belgesi Görüntüle" style="html=1;align=center;verticalAlign=top;rounded=1;absoluteArcSize=1;arcSize=10;dashed=0;whiteSpace=wrap;fillColor=#f8cecc;strokeColor=#b85450;" parent="1" vertex="1">
          <mxGeometry x="-4924.99" y="1243" width="140" height="40" as="geometry" />
        </mxCell>
        <mxCell id="YpNgMTdwTrCu8pLs_j0M-9" value="Action1&lt;br&gt;(Operation1)" style="html=1;align=center;verticalAlign=top;rounded=1;absoluteArcSize=1;arcSize=10;dashed=0;whiteSpace=wrap;" parent="1" vertex="1">
          <mxGeometry x="-4420" y="235" width="140" height="40" as="geometry" />
        </mxCell>
        <mxCell id="YpNgMTdwTrCu8pLs_j0M-12" value="Message1" style="html=1;rounded=1;absoluteArcSize=1;arcSize=10;whiteSpace=wrap;" parent="1" vertex="1">
          <mxGeometry x="-4020" y="240" width="80" height="30" as="geometry" />
        </mxCell>
        <mxCell id="YpNgMTdwTrCu8pLs_j0M-13" value="" style="endArrow=open;html=1;rounded=0;align=center;verticalAlign=top;endFill=0;labelBackgroundColor=none;endSize=6;" parent="1" source="YpNgMTdwTrCu8pLs_j0M-12" edge="1">
          <mxGeometry relative="1" as="geometry">
            <mxPoint x="-3900" y="255" as="targetPoint" />
          </mxGeometry>
        </mxCell>
        <mxCell id="YpNgMTdwTrCu8pLs_j0M-14" value="State" style="html=1;align=center;verticalAlign=top;rounded=1;absoluteArcSize=1;arcSize=10;dashed=0;whiteSpace=wrap;" parent="1" vertex="1">
          <mxGeometry x="-3820" y="255" width="140" height="40" as="geometry" />
        </mxCell>
        <mxCell id="YpNgMTdwTrCu8pLs_j0M-15" value="State1, State2, ..." style="html=1;align=center;verticalAlign=top;rounded=1;absoluteArcSize=1;arcSize=10;dashed=0;whiteSpace=wrap;" parent="1" vertex="1">
          <mxGeometry x="-3620" y="255" width="140" height="40" as="geometry" />
        </mxCell>
        <mxCell id="7eG7Swem1IyPdvQVmkEB-40" style="edgeStyle=orthogonalEdgeStyle;rounded=0;orthogonalLoop=1;jettySize=auto;html=1;entryX=0.5;entryY=0;entryDx=0;entryDy=0;" parent="1" source="YpNgMTdwTrCu8pLs_j0M-16" target="7eG7Swem1IyPdvQVmkEB-38" edge="1">
          <mxGeometry relative="1" as="geometry">
            <Array as="points">
              <mxPoint x="1700" y="760" />
              <mxPoint x="2340" y="760" />
            </Array>
          </mxGeometry>
        </mxCell>
        <mxCell id="7eG7Swem1IyPdvQVmkEB-41" style="edgeStyle=orthogonalEdgeStyle;rounded=0;orthogonalLoop=1;jettySize=auto;html=1;entryX=0.5;entryY=0;entryDx=0;entryDy=0;" parent="1" source="YpNgMTdwTrCu8pLs_j0M-16" target="7eG7Swem1IyPdvQVmkEB-37" edge="1">
          <mxGeometry relative="1" as="geometry">
            <Array as="points">
              <mxPoint x="1700" y="760" />
              <mxPoint x="2030" y="760" />
            </Array>
          </mxGeometry>
        </mxCell>
        <mxCell id="7eG7Swem1IyPdvQVmkEB-42" style="edgeStyle=orthogonalEdgeStyle;rounded=0;orthogonalLoop=1;jettySize=auto;html=1;entryX=0.5;entryY=0;entryDx=0;entryDy=0;" parent="1" source="YpNgMTdwTrCu8pLs_j0M-16" target="7eG7Swem1IyPdvQVmkEB-39" edge="1">
          <mxGeometry relative="1" as="geometry">
            <Array as="points">
              <mxPoint x="1700" y="760" />
              <mxPoint x="1440" y="760" />
            </Array>
          </mxGeometry>
        </mxCell>
        <mxCell id="YpNgMTdwTrCu8pLs_j0M-16" value="Danışman Ana Ekranı" style="html=1;align=center;verticalAlign=top;rounded=1;absoluteArcSize=1;arcSize=10;dashed=0;whiteSpace=wrap;" parent="1" vertex="1">
          <mxGeometry x="1630" y="648.5" width="140" height="43" as="geometry" />
        </mxCell>
        <mxCell id="7eG7Swem1IyPdvQVmkEB-49" style="edgeStyle=orthogonalEdgeStyle;rounded=0;orthogonalLoop=1;jettySize=auto;html=1;entryX=0.5;entryY=0;entryDx=0;entryDy=0;" parent="1" source="YpNgMTdwTrCu8pLs_j0M-18" target="7eG7Swem1IyPdvQVmkEB-44" edge="1">
          <mxGeometry relative="1" as="geometry">
            <Array as="points">
              <mxPoint x="3890" y="800" />
              <mxPoint x="4120" y="800" />
            </Array>
          </mxGeometry>
        </mxCell>
        <mxCell id="7eG7Swem1IyPdvQVmkEB-50" style="edgeStyle=orthogonalEdgeStyle;rounded=0;orthogonalLoop=1;jettySize=auto;html=1;entryX=0.5;entryY=0;entryDx=0;entryDy=0;" parent="1" source="YpNgMTdwTrCu8pLs_j0M-18" target="7eG7Swem1IyPdvQVmkEB-45" edge="1">
          <mxGeometry relative="1" as="geometry">
            <Array as="points">
              <mxPoint x="3890" y="800" />
              <mxPoint x="4580" y="800" />
            </Array>
          </mxGeometry>
        </mxCell>
        <mxCell id="7eG7Swem1IyPdvQVmkEB-51" style="edgeStyle=orthogonalEdgeStyle;rounded=0;orthogonalLoop=1;jettySize=auto;html=1;entryX=0.5;entryY=0;entryDx=0;entryDy=0;" parent="1" source="YpNgMTdwTrCu8pLs_j0M-18" target="7eG7Swem1IyPdvQVmkEB-46" edge="1">
          <mxGeometry relative="1" as="geometry">
            <Array as="points">
              <mxPoint x="3890" y="800" />
              <mxPoint x="3610" y="800" />
            </Array>
          </mxGeometry>
        </mxCell>
        <mxCell id="YpNgMTdwTrCu8pLs_j0M-18" value="İdareci Ana Ekranı&lt;div&gt;&lt;br&gt;&lt;/div&gt;" style="html=1;align=center;verticalAlign=top;rounded=1;absoluteArcSize=1;arcSize=10;dashed=0;whiteSpace=wrap;" parent="1" vertex="1">
          <mxGeometry x="3820" y="675" width="140" height="40" as="geometry" />
        </mxCell>
        <mxCell id="YpNgMTdwTrCu8pLs_j0M-20" value="" style="ellipse;html=1;shape=endState;fillColor=strokeColor;" parent="1" vertex="1">
          <mxGeometry x="-2060.13" y="1043" width="30" height="20" as="geometry" />
        </mxCell>
        <mxCell id="YpNgMTdwTrCu8pLs_j0M-25" value="Danışman" style="html=1;align=center;verticalAlign=top;rounded=1;absoluteArcSize=1;arcSize=10;dashed=0;whiteSpace=wrap;" parent="1" vertex="1">
          <mxGeometry x="-4670" y="265" width="140" height="50" as="geometry" />
        </mxCell>
        <mxCell id="nbqyCKGvC23zPWqp3UHc-19" style="edgeStyle=orthogonalEdgeStyle;rounded=0;orthogonalLoop=1;jettySize=auto;html=1;entryX=1;entryY=0.5;entryDx=0;entryDy=0;" parent="1" source="YpNgMTdwTrCu8pLs_j0M-26" target="raTxTzk0vgehEr7z1tvl-13" edge="1">
          <mxGeometry relative="1" as="geometry">
            <mxPoint x="-2790" y="285" as="targetPoint" />
            <Array as="points">
              <mxPoint x="-2790" y="300" />
            </Array>
          </mxGeometry>
        </mxCell>
        <mxCell id="YpNgMTdwTrCu8pLs_j0M-26" value="&lt;span data-sider-select-id=&quot;6f21c08b-1ee0-4d9a-971a-5f069b97619d&quot; style=&quot;text-wrap: nowrap;&quot;&gt;&lt;font data-sider-select-id=&quot;adb5f741-1b5e-4715-a0d9-119e286bbc81&quot; style=&quot;font-size: 8px;&quot;&gt;Hata !&amp;nbsp; Kullanıcı Sistemde Kayıtlı Değil&lt;/font&gt;&lt;/span&gt;" style="html=1;rounded=1;absoluteArcSize=1;arcSize=10;whiteSpace=wrap;fillColor=#1ba1e2;fontColor=#ffffff;strokeColor=#006EAF;" parent="1" vertex="1">
          <mxGeometry x="-2850" y="365" width="140" height="38" as="geometry" />
        </mxCell>
        <mxCell id="YpNgMTdwTrCu8pLs_j0M-28" value="&lt;font data-sider-select-id=&quot;d092bb43-2534-4f56-a5d7-0d986fded775&quot; style=&quot;font-size: 10px;&quot;&gt;Yes&lt;/font&gt;" style="text;html=1;align=center;verticalAlign=middle;resizable=0;points=[];autosize=1;strokeColor=none;fillColor=none;" parent="1" vertex="1">
          <mxGeometry x="-3130" y="413" width="40" height="30" as="geometry" />
        </mxCell>
        <mxCell id="YpNgMTdwTrCu8pLs_j0M-29" value="&lt;span data-sider-select-id=&quot;ffd7aa2f-4a25-4322-89a0-0c4640fc9525&quot; style=&quot;&quot;&gt;&lt;font style=&quot;font-size: 12px;&quot;&gt;No&lt;/font&gt;&lt;/span&gt;" style="text;html=1;align=center;verticalAlign=middle;resizable=0;points=[];autosize=1;strokeColor=none;fillColor=none;" parent="1" vertex="1">
          <mxGeometry x="-3000" y="355" width="40" height="30" as="geometry" />
        </mxCell>
        <mxCell id="xUi7JRu2v_sGwWPzo44r-147" style="edgeStyle=orthogonalEdgeStyle;rounded=0;orthogonalLoop=1;jettySize=auto;html=1;entryX=0.643;entryY=0;entryDx=0;entryDy=0;entryPerimeter=0;" parent="1" target="xUi7JRu2v_sGwWPzo44r-144" edge="1">
          <mxGeometry relative="1" as="geometry">
            <mxPoint x="-4655" y="783" as="targetPoint" />
            <mxPoint x="-4725" y="738" as="sourcePoint" />
          </mxGeometry>
        </mxCell>
        <mxCell id="xUi7JRu2v_sGwWPzo44r-148" style="edgeStyle=orthogonalEdgeStyle;rounded=0;orthogonalLoop=1;jettySize=auto;html=1;" parent="1" source="YpNgMTdwTrCu8pLs_j0M-30" target="xUi7JRu2v_sGwWPzo44r-145" edge="1">
          <mxGeometry relative="1" as="geometry" />
        </mxCell>
        <mxCell id="xUi7JRu2v_sGwWPzo44r-151" style="edgeStyle=orthogonalEdgeStyle;rounded=0;orthogonalLoop=1;jettySize=auto;html=1;entryX=0.5;entryY=0;entryDx=0;entryDy=0;" parent="1" source="YpNgMTdwTrCu8pLs_j0M-30" target="xUi7JRu2v_sGwWPzo44r-146" edge="1">
          <mxGeometry relative="1" as="geometry">
            <mxPoint x="-4495" y="853" as="targetPoint" />
          </mxGeometry>
        </mxCell>
        <mxCell id="2cs-It8Q2KzFfJwQsvEJ-1" style="edgeStyle=orthogonalEdgeStyle;rounded=0;orthogonalLoop=1;jettySize=auto;html=1;" parent="1" source="YpNgMTdwTrCu8pLs_j0M-30" edge="1">
          <mxGeometry relative="1" as="geometry">
            <mxPoint x="-4860" y="565" as="targetPoint" />
            <Array as="points">
              <mxPoint x="-4859" y="725" />
            </Array>
          </mxGeometry>
        </mxCell>
        <mxCell id="YpNgMTdwTrCu8pLs_j0M-30" value="Belge Menüsü" style="html=1;align=center;verticalAlign=top;rounded=1;absoluteArcSize=1;arcSize=10;dashed=0;whiteSpace=wrap;" parent="1" vertex="1">
          <mxGeometry x="-4725" y="718" width="140" height="40" as="geometry" />
        </mxCell>
        <mxCell id="2cs-It8Q2KzFfJwQsvEJ-45" style="edgeStyle=orthogonalEdgeStyle;rounded=0;orthogonalLoop=1;jettySize=auto;html=1;entryX=0.5;entryY=0;entryDx=0;entryDy=0;" parent="1" source="YpNgMTdwTrCu8pLs_j0M-36" target="2cs-It8Q2KzFfJwQsvEJ-42" edge="1">
          <mxGeometry relative="1" as="geometry" />
        </mxCell>
        <mxCell id="2cs-It8Q2KzFfJwQsvEJ-47" style="edgeStyle=orthogonalEdgeStyle;rounded=0;orthogonalLoop=1;jettySize=auto;html=1;" parent="1" source="YpNgMTdwTrCu8pLs_j0M-36" target="2cs-It8Q2KzFfJwQsvEJ-43" edge="1">
          <mxGeometry relative="1" as="geometry" />
        </mxCell>
        <mxCell id="2cs-It8Q2KzFfJwQsvEJ-48" style="edgeStyle=orthogonalEdgeStyle;rounded=0;orthogonalLoop=1;jettySize=auto;html=1;entryX=0.5;entryY=0;entryDx=0;entryDy=0;" parent="1" source="YpNgMTdwTrCu8pLs_j0M-36" target="2cs-It8Q2KzFfJwQsvEJ-44" edge="1">
          <mxGeometry relative="1" as="geometry">
            <Array as="points">
              <mxPoint x="-3599" y="698" />
            </Array>
          </mxGeometry>
        </mxCell>
        <mxCell id="YpNgMTdwTrCu8pLs_j0M-36" value="Görüntüleme İşlemleri Menüsü" style="whiteSpace=wrap;html=1;verticalAlign=top;rounded=1;arcSize=10;dashed=0;" parent="1" vertex="1">
          <mxGeometry x="-3820" y="668" width="120" height="40" as="geometry" />
        </mxCell>
        <mxCell id="2cs-It8Q2KzFfJwQsvEJ-97" style="edgeStyle=orthogonalEdgeStyle;rounded=0;orthogonalLoop=1;jettySize=auto;html=1;entryX=0.5;entryY=0;entryDx=0;entryDy=0;" parent="1" source="YpNgMTdwTrCu8pLs_j0M-38" target="2cs-It8Q2KzFfJwQsvEJ-95" edge="1">
          <mxGeometry relative="1" as="geometry" />
        </mxCell>
        <mxCell id="YpNgMTdwTrCu8pLs_j0M-38" value="Hesap Ayarları Menüsü" style="whiteSpace=wrap;html=1;verticalAlign=top;rounded=1;arcSize=10;dashed=0;" parent="1" vertex="1">
          <mxGeometry x="-3170" y="1043" width="120" height="40" as="geometry" />
        </mxCell>
        <mxCell id="xUi7JRu2v_sGwWPzo44r-61" style="edgeStyle=orthogonalEdgeStyle;rounded=0;orthogonalLoop=1;jettySize=auto;html=1;entryX=0.5;entryY=0;entryDx=0;entryDy=0;" parent="1" source="YpNgMTdwTrCu8pLs_j0M-41" target="xUi7JRu2v_sGwWPzo44r-58" edge="1">
          <mxGeometry relative="1" as="geometry" />
        </mxCell>
        <mxCell id="xUi7JRu2v_sGwWPzo44r-68" style="edgeStyle=orthogonalEdgeStyle;rounded=0;orthogonalLoop=1;jettySize=auto;html=1;" parent="1" source="YpNgMTdwTrCu8pLs_j0M-41" edge="1">
          <mxGeometry relative="1" as="geometry">
            <mxPoint x="-5780" y="565" as="targetPoint" />
          </mxGeometry>
        </mxCell>
        <mxCell id="YpNgMTdwTrCu8pLs_j0M-41" value="Derslerim" style="whiteSpace=wrap;html=1;verticalAlign=top;rounded=1;arcSize=10;dashed=0;" parent="1" vertex="1">
          <mxGeometry x="-5750" y="725" width="120" height="40" as="geometry" />
        </mxCell>
        <mxCell id="nbqyCKGvC23zPWqp3UHc-6" style="edgeStyle=orthogonalEdgeStyle;rounded=0;orthogonalLoop=1;jettySize=auto;html=1;entryX=0;entryY=0.5;entryDx=0;entryDy=0;exitX=0;exitY=0.5;exitDx=0;exitDy=0;" parent="1" source="YpNgMTdwTrCu8pLs_j0M-43" edge="1">
          <mxGeometry relative="1" as="geometry">
            <mxPoint x="-4580" y="565" as="targetPoint" />
            <mxPoint x="-6340" y="745" as="sourcePoint" />
            <Array as="points">
              <mxPoint x="-6750" y="745" />
              <mxPoint x="-6750" y="565" />
            </Array>
          </mxGeometry>
        </mxCell>
        <mxCell id="xUi7JRu2v_sGwWPzo44r-2" style="edgeStyle=orthogonalEdgeStyle;rounded=0;orthogonalLoop=1;jettySize=auto;html=1;entryX=0;entryY=0.5;entryDx=0;entryDy=0;" parent="1" source="YpNgMTdwTrCu8pLs_j0M-43" target="YpNgMTdwTrCu8pLs_j0M-92" edge="1">
          <mxGeometry relative="1" as="geometry" />
        </mxCell>
        <mxCell id="xUi7JRu2v_sGwWPzo44r-10" style="edgeStyle=orthogonalEdgeStyle;rounded=0;orthogonalLoop=1;jettySize=auto;html=1;entryX=0.5;entryY=0;entryDx=0;entryDy=0;" parent="1" source="YpNgMTdwTrCu8pLs_j0M-43" target="xUi7JRu2v_sGwWPzo44r-5" edge="1">
          <mxGeometry relative="1" as="geometry" />
        </mxCell>
        <mxCell id="YpNgMTdwTrCu8pLs_j0M-43" value="Ders Seçimi / Kayıt Yenileme Menüsü" style="whiteSpace=wrap;html=1;verticalAlign=top;rounded=1;arcSize=10;dashed=0;" parent="1" vertex="1">
          <mxGeometry x="-6660" y="725" width="120" height="40" as="geometry" />
        </mxCell>
        <mxCell id="xUi7JRu2v_sGwWPzo44r-174" style="edgeStyle=orthogonalEdgeStyle;rounded=0;orthogonalLoop=1;jettySize=auto;html=1;" parent="1" source="YpNgMTdwTrCu8pLs_j0M-46" edge="1">
          <mxGeometry relative="1" as="geometry">
            <mxPoint x="-4655" y="1323" as="targetPoint" />
          </mxGeometry>
        </mxCell>
        <mxCell id="YpNgMTdwTrCu8pLs_j0M-46" value="Transkript Görüntüle" style="html=1;align=center;verticalAlign=top;rounded=1;absoluteArcSize=1;arcSize=10;dashed=0;whiteSpace=wrap;fillColor=#f8cecc;strokeColor=#b85450;" parent="1" vertex="1">
          <mxGeometry x="-4725" y="1083" width="140" height="40" as="geometry" />
        </mxCell>
        <mxCell id="2cs-It8Q2KzFfJwQsvEJ-83" style="edgeStyle=orthogonalEdgeStyle;rounded=0;orthogonalLoop=1;jettySize=auto;html=1;" parent="1" source="YpNgMTdwTrCu8pLs_j0M-60" edge="1">
          <mxGeometry relative="1" as="geometry">
            <mxPoint x="-3599.5" y="1028" as="targetPoint" />
          </mxGeometry>
        </mxCell>
        <mxCell id="YpNgMTdwTrCu8pLs_j0M-60" value="Takvim&#39;i Görüntüle" style="html=1;align=center;verticalAlign=top;rounded=1;absoluteArcSize=1;arcSize=10;dashed=0;whiteSpace=wrap;fillColor=#f8cecc;strokeColor=#b85450;" parent="1" vertex="1">
          <mxGeometry x="-3669.5" y="908" width="140" height="40" as="geometry" />
        </mxCell>
        <mxCell id="2cs-It8Q2KzFfJwQsvEJ-89" style="edgeStyle=orthogonalEdgeStyle;rounded=0;orthogonalLoop=1;jettySize=auto;html=1;" parent="1" source="YpNgMTdwTrCu8pLs_j0M-61" edge="1">
          <mxGeometry relative="1" as="geometry">
            <mxPoint x="-3760" y="1028" as="targetPoint" />
          </mxGeometry>
        </mxCell>
        <mxCell id="YpNgMTdwTrCu8pLs_j0M-61" value="Danışman Bilgilerini Görüntüle" style="html=1;align=center;verticalAlign=top;rounded=1;absoluteArcSize=1;arcSize=10;dashed=0;whiteSpace=wrap;fillColor=#f8cecc;strokeColor=#b85450;" parent="1" vertex="1">
          <mxGeometry x="-3830" y="908" width="140" height="40" as="geometry" />
        </mxCell>
        <mxCell id="2cs-It8Q2KzFfJwQsvEJ-64" style="edgeStyle=orthogonalEdgeStyle;rounded=0;orthogonalLoop=1;jettySize=auto;html=1;" parent="1" source="YpNgMTdwTrCu8pLs_j0M-62" edge="1">
          <mxGeometry relative="1" as="geometry">
            <mxPoint x="-3930" y="688" as="targetPoint" />
            <Array as="points">
              <mxPoint x="-4220" y="1226" />
              <mxPoint x="-4220" y="688" />
              <mxPoint x="-3930" y="688" />
            </Array>
          </mxGeometry>
        </mxCell>
        <mxCell id="YpNgMTdwTrCu8pLs_j0M-62" value="Ders Programın&lt;div&gt;Görüntüle&lt;/div&gt;" style="html=1;align=center;verticalAlign=top;rounded=1;absoluteArcSize=1;arcSize=10;dashed=0;whiteSpace=wrap;fillColor=#f8cecc;strokeColor=#b85450;" parent="1" vertex="1">
          <mxGeometry x="-4000" y="1206" width="140" height="40" as="geometry" />
        </mxCell>
        <mxCell id="xUi7JRu2v_sGwWPzo44r-73" style="edgeStyle=orthogonalEdgeStyle;rounded=0;orthogonalLoop=1;jettySize=auto;html=1;" parent="1" source="YpNgMTdwTrCu8pLs_j0M-67" target="xUi7JRu2v_sGwWPzo44r-72" edge="1">
          <mxGeometry relative="1" as="geometry" />
        </mxCell>
        <mxCell id="xUi7JRu2v_sGwWPzo44r-134" style="edgeStyle=orthogonalEdgeStyle;rounded=0;orthogonalLoop=1;jettySize=auto;html=1;" parent="1" source="YpNgMTdwTrCu8pLs_j0M-67" edge="1">
          <mxGeometry relative="1" as="geometry">
            <mxPoint x="-5780" y="745" as="targetPoint" />
          </mxGeometry>
        </mxCell>
        <mxCell id="YpNgMTdwTrCu8pLs_j0M-67" value="Dersleri ve Notları Görüntüle" style="html=1;align=center;verticalAlign=top;rounded=1;absoluteArcSize=1;arcSize=10;dashed=0;whiteSpace=wrap;fillColor=#f8cecc;strokeColor=#b85450;" parent="1" vertex="1">
          <mxGeometry x="-5760" y="1215" width="140" height="40" as="geometry" />
        </mxCell>
        <mxCell id="xUi7JRu2v_sGwWPzo44r-69" style="edgeStyle=orthogonalEdgeStyle;rounded=0;orthogonalLoop=1;jettySize=auto;html=1;" parent="1" source="YpNgMTdwTrCu8pLs_j0M-74" edge="1">
          <mxGeometry relative="1" as="geometry">
            <mxPoint x="-5310" y="565" as="targetPoint" />
          </mxGeometry>
        </mxCell>
        <mxCell id="YpNgMTdwTrCu8pLs_j0M-74" value="Herhangi Bir Programa Kayıtlı Değil" style="html=1;rounded=1;absoluteArcSize=1;arcSize=10;whiteSpace=wrap;fillColor=#1ba1e2;strokeColor=#006EAF;fontColor=#ffffff;" parent="1" vertex="1">
          <mxGeometry x="-5550" y="815" width="130" height="40" as="geometry" />
        </mxCell>
        <mxCell id="YpNgMTdwTrCu8pLs_j0M-110" style="edgeStyle=orthogonalEdgeStyle;rounded=0;orthogonalLoop=1;jettySize=auto;html=1;" parent="1" source="YpNgMTdwTrCu8pLs_j0M-80" target="YpNgMTdwTrCu8pLs_j0M-104" edge="1">
          <mxGeometry relative="1" as="geometry">
            <Array as="points">
              <mxPoint x="-6600" y="1240" />
              <mxPoint x="-6760" y="1240" />
            </Array>
          </mxGeometry>
        </mxCell>
        <mxCell id="YpNgMTdwTrCu8pLs_j0M-111" style="edgeStyle=orthogonalEdgeStyle;rounded=0;orthogonalLoop=1;jettySize=auto;html=1;" parent="1" source="YpNgMTdwTrCu8pLs_j0M-80" target="YpNgMTdwTrCu8pLs_j0M-108" edge="1">
          <mxGeometry relative="1" as="geometry" />
        </mxCell>
        <mxCell id="YpNgMTdwTrCu8pLs_j0M-112" style="edgeStyle=orthogonalEdgeStyle;rounded=0;orthogonalLoop=1;jettySize=auto;html=1;" parent="1" source="YpNgMTdwTrCu8pLs_j0M-80" target="YpNgMTdwTrCu8pLs_j0M-106" edge="1">
          <mxGeometry relative="1" as="geometry">
            <Array as="points">
              <mxPoint x="-6600" y="1240" />
              <mxPoint x="-6435" y="1240" />
            </Array>
          </mxGeometry>
        </mxCell>
        <mxCell id="xUi7JRu2v_sGwWPzo44r-16" style="edgeStyle=orthogonalEdgeStyle;rounded=0;orthogonalLoop=1;jettySize=auto;html=1;entryX=0;entryY=0.5;entryDx=0;entryDy=0;" parent="1" source="YpNgMTdwTrCu8pLs_j0M-80" target="YpNgMTdwTrCu8pLs_j0M-99" edge="1">
          <mxGeometry relative="1" as="geometry">
            <Array as="points">
              <mxPoint x="-6520" y="1185" />
              <mxPoint x="-6520" y="1125" />
            </Array>
          </mxGeometry>
        </mxCell>
        <mxCell id="xUi7JRu2v_sGwWPzo44r-52" style="edgeStyle=orthogonalEdgeStyle;rounded=0;orthogonalLoop=1;jettySize=auto;html=1;" parent="1" source="YpNgMTdwTrCu8pLs_j0M-80" target="YpNgMTdwTrCu8pLs_j0M-114" edge="1">
          <mxGeometry relative="1" as="geometry" />
        </mxCell>
        <mxCell id="xUi7JRu2v_sGwWPzo44r-119" style="edgeStyle=orthogonalEdgeStyle;rounded=0;orthogonalLoop=1;jettySize=auto;html=1;" parent="1" source="YpNgMTdwTrCu8pLs_j0M-80" edge="1">
          <mxGeometry relative="1" as="geometry">
            <mxPoint x="-6750" y="745" as="targetPoint" />
            <Array as="points">
              <mxPoint x="-6749" y="1165" />
              <mxPoint x="-6749" y="745" />
            </Array>
          </mxGeometry>
        </mxCell>
        <mxCell id="2_WJz-mZz8zobtCXucVs-303" style="edgeStyle=orthogonalEdgeStyle;rounded=0;orthogonalLoop=1;jettySize=auto;html=1;entryX=0.5;entryY=0;entryDx=0;entryDy=0;" edge="1" parent="1" source="YpNgMTdwTrCu8pLs_j0M-80" target="j1WZlLF4a-4qiutJMyGu-48">
          <mxGeometry relative="1" as="geometry">
            <Array as="points">
              <mxPoint x="-6600" y="1240" />
              <mxPoint x="-6920" y="1240" />
            </Array>
          </mxGeometry>
        </mxCell>
        <mxCell id="YpNgMTdwTrCu8pLs_j0M-80" value="Seçilecek Dersleri Görüntüle&amp;nbsp;" style="html=1;align=center;verticalAlign=top;rounded=1;absoluteArcSize=1;arcSize=10;dashed=0;whiteSpace=wrap;fillColor=#f8cecc;strokeColor=#b85450;" parent="1" vertex="1">
          <mxGeometry x="-6670" y="1165" width="140" height="40" as="geometry" />
        </mxCell>
        <mxCell id="2cs-It8Q2KzFfJwQsvEJ-153" value="" style="edgeStyle=orthogonalEdgeStyle;rounded=0;orthogonalLoop=1;jettySize=auto;html=1;" parent="1" source="YpNgMTdwTrCu8pLs_j0M-81" target="2cs-It8Q2KzFfJwQsvEJ-151" edge="1">
          <mxGeometry relative="1" as="geometry">
            <Array as="points">
              <mxPoint x="-2045.13" y="813" />
              <mxPoint x="-2045.13" y="813" />
            </Array>
          </mxGeometry>
        </mxCell>
        <mxCell id="YpNgMTdwTrCu8pLs_j0M-81" value="Çıkış Yap" style="whiteSpace=wrap;html=1;verticalAlign=top;rounded=1;arcSize=10;dashed=0;" parent="1" vertex="1">
          <mxGeometry x="-2105.13" y="708" width="120" height="40" as="geometry" />
        </mxCell>
        <mxCell id="YpNgMTdwTrCu8pLs_j0M-86" value="Kayıtlı Program Varsa" style="text;html=1;align=center;verticalAlign=middle;resizable=0;points=[];autosize=1;strokeColor=none;fillColor=none;rotation=90;" parent="1" vertex="1">
          <mxGeometry x="-6650" y="825" width="140" height="30" as="geometry" />
        </mxCell>
        <mxCell id="YpNgMTdwTrCu8pLs_j0M-91" value="Öğrenci bir programa kayıtlı değilse" style="text;html=1;align=center;verticalAlign=middle;resizable=0;points=[];autosize=1;strokeColor=none;fillColor=none;" parent="1" vertex="1">
          <mxGeometry x="-6525" y="715" width="210" height="30" as="geometry" />
        </mxCell>
        <mxCell id="YpNgMTdwTrCu8pLs_j0M-95" style="edgeStyle=orthogonalEdgeStyle;rounded=0;orthogonalLoop=1;jettySize=auto;html=1;" parent="1" source="YpNgMTdwTrCu8pLs_j0M-92" edge="1">
          <mxGeometry relative="1" as="geometry">
            <mxPoint x="-4580" y="565" as="targetPoint" />
            <Array as="points">
              <mxPoint x="-5875" y="565" />
            </Array>
          </mxGeometry>
        </mxCell>
        <mxCell id="YpNgMTdwTrCu8pLs_j0M-92" value="Herhangi Bir Programa Kayıtlı Değil" style="html=1;rounded=1;absoluteArcSize=1;arcSize=10;whiteSpace=wrap;fillColor=#1ba1e2;strokeColor=#006EAF;fontColor=#ffffff;" parent="1" vertex="1">
          <mxGeometry x="-6300" y="725" width="130" height="40" as="geometry" />
        </mxCell>
        <mxCell id="YpNgMTdwTrCu8pLs_j0M-98" value="Gno&amp;lt;1.80" style="text;html=1;align=center;verticalAlign=middle;resizable=0;points=[];autosize=1;strokeColor=none;fillColor=none;" parent="1" vertex="1">
          <mxGeometry x="-6475" y="1095" width="80" height="30" as="geometry" />
        </mxCell>
        <mxCell id="xUi7JRu2v_sGwWPzo44r-19" style="edgeStyle=orthogonalEdgeStyle;rounded=0;orthogonalLoop=1;jettySize=auto;html=1;entryX=0.5;entryY=0;entryDx=0;entryDy=0;" parent="1" source="YpNgMTdwTrCu8pLs_j0M-99" target="xUi7JRu2v_sGwWPzo44r-18" edge="1">
          <mxGeometry relative="1" as="geometry" />
        </mxCell>
        <mxCell id="YpNgMTdwTrCu8pLs_j0M-99" value="Önceki Yıl Dersleri Alınmalı" style="html=1;rounded=1;absoluteArcSize=1;arcSize=10;whiteSpace=wrap;fillColor=#1ba1e2;strokeColor=#006EAF;fontColor=#ffffff;" parent="1" vertex="1">
          <mxGeometry x="-6330" y="1105" width="130" height="40" as="geometry" />
        </mxCell>
        <mxCell id="YpNgMTdwTrCu8pLs_j0M-101" value="Alttan dersleri alma zorunlu" style="text;html=1;align=center;verticalAlign=middle;resizable=0;points=[];autosize=1;strokeColor=none;fillColor=none;" parent="1" vertex="1">
          <mxGeometry x="-6820" y="1205" width="170" height="30" as="geometry" />
        </mxCell>
        <mxCell id="YpNgMTdwTrCu8pLs_j0M-126" style="edgeStyle=orthogonalEdgeStyle;rounded=0;orthogonalLoop=1;jettySize=auto;html=1;entryX=0.5;entryY=0;entryDx=0;entryDy=0;" parent="1" source="YpNgMTdwTrCu8pLs_j0M-104" edge="1">
          <mxGeometry relative="1" as="geometry">
            <Array as="points">
              <mxPoint x="-6760" y="1440" />
              <mxPoint x="-6530" y="1440" />
            </Array>
            <mxPoint x="-6530" y="1515" as="targetPoint" />
          </mxGeometry>
        </mxCell>
        <mxCell id="YpNgMTdwTrCu8pLs_j0M-104" value="Alltan Dersleri Al" style="html=1;align=center;verticalAlign=top;rounded=1;absoluteArcSize=1;arcSize=10;dashed=0;whiteSpace=wrap;fillColor=#f8cecc;strokeColor=#b85450;" parent="1" vertex="1">
          <mxGeometry x="-6830" y="1315" width="140" height="40" as="geometry" />
        </mxCell>
        <mxCell id="YpNgMTdwTrCu8pLs_j0M-128" style="edgeStyle=orthogonalEdgeStyle;rounded=0;orthogonalLoop=1;jettySize=auto;html=1;entryX=0.5;entryY=0;entryDx=0;entryDy=0;" parent="1" source="YpNgMTdwTrCu8pLs_j0M-106" edge="1">
          <mxGeometry relative="1" as="geometry">
            <mxPoint x="-6530" y="1515" as="targetPoint" />
            <Array as="points">
              <mxPoint x="-6435" y="1440" />
              <mxPoint x="-6529" y="1440" />
              <mxPoint x="-6529" y="1515" />
            </Array>
          </mxGeometry>
        </mxCell>
        <mxCell id="YpNgMTdwTrCu8pLs_j0M-106" value="&lt;div data-sider-select-id=&quot;84483e46-2456-44e6-a681-b8dce48a3466&quot; style=&quot;&quot;&gt;Koşullu Dersler&lt;/div&gt;" style="html=1;align=center;verticalAlign=top;rounded=1;absoluteArcSize=1;arcSize=10;dashed=0;whiteSpace=wrap;fillColor=#f8cecc;strokeColor=#b85450;" parent="1" vertex="1">
          <mxGeometry x="-6510" y="1315" width="150" height="40" as="geometry" />
        </mxCell>
        <mxCell id="YpNgMTdwTrCu8pLs_j0M-127" style="edgeStyle=orthogonalEdgeStyle;rounded=0;orthogonalLoop=1;jettySize=auto;html=1;" parent="1" source="YpNgMTdwTrCu8pLs_j0M-108" edge="1">
          <mxGeometry relative="1" as="geometry">
            <mxPoint x="-6530" y="1515" as="targetPoint" />
            <Array as="points">
              <mxPoint x="-6600" y="1440" />
              <mxPoint x="-6530" y="1440" />
            </Array>
          </mxGeometry>
        </mxCell>
        <mxCell id="YpNgMTdwTrCu8pLs_j0M-108" value="&lt;div data-sider-select-id=&quot;4ff2cb0c-740a-40d9-b887-eb3f0265e049&quot;&gt;Seçmeli Ders Seçimi&lt;/div&gt;" style="html=1;align=center;verticalAlign=top;rounded=1;absoluteArcSize=1;arcSize=10;dashed=0;whiteSpace=wrap;fillColor=#f8cecc;strokeColor=#b85450;" parent="1" vertex="1">
          <mxGeometry x="-6675" y="1315" width="150" height="40" as="geometry" />
        </mxCell>
        <mxCell id="YpNgMTdwTrCu8pLs_j0M-113" value="&lt;span data-sider-select-id=&quot;d300b96c-ef65-47a0-be22-939e3653dd04&quot; style=&quot;font-size: 10px; text-align: justify;&quot;&gt;Gno&amp;lt;2.00 ise Zorunlu&lt;/span&gt;" style="text;html=1;align=center;verticalAlign=middle;resizable=0;points=[];autosize=1;strokeColor=none;fillColor=none;" parent="1" vertex="1">
          <mxGeometry x="-6555" y="1205" width="120" height="30" as="geometry" />
        </mxCell>
        <mxCell id="YpNgMTdwTrCu8pLs_j0M-129" style="edgeStyle=orthogonalEdgeStyle;rounded=0;orthogonalLoop=1;jettySize=auto;html=1;" parent="1" source="YpNgMTdwTrCu8pLs_j0M-114" edge="1">
          <mxGeometry relative="1" as="geometry">
            <mxPoint x="-6530" y="1515" as="targetPoint" />
            <Array as="points">
              <mxPoint x="-6265" y="1440" />
              <mxPoint x="-6529" y="1440" />
              <mxPoint x="-6529" y="1515" />
            </Array>
          </mxGeometry>
        </mxCell>
        <mxCell id="YpNgMTdwTrCu8pLs_j0M-114" value="&lt;div data-sider-select-id=&quot;84483e46-2456-44e6-a681-b8dce48a3466&quot; style=&quot;&quot;&gt;Üst Dönem Dersleri Seçme&lt;/div&gt;" style="html=1;align=center;verticalAlign=top;rounded=1;absoluteArcSize=1;arcSize=10;dashed=0;whiteSpace=wrap;fillColor=#f8cecc;strokeColor=#b85450;" parent="1" vertex="1">
          <mxGeometry x="-6340" y="1315" width="150" height="40" as="geometry" />
        </mxCell>
        <mxCell id="YpNgMTdwTrCu8pLs_j0M-117" value="Alttan Ders Yoksa Ve Gno=&amp;gt;3.00" style="text;html=1;align=center;verticalAlign=middle;resizable=0;points=[];autosize=1;strokeColor=none;fillColor=none;" parent="1" vertex="1">
          <mxGeometry x="-6480" y="1155" width="200" height="30" as="geometry" />
        </mxCell>
        <mxCell id="xUi7JRu2v_sGwWPzo44r-42" style="edgeStyle=orthogonalEdgeStyle;rounded=0;orthogonalLoop=1;jettySize=auto;html=1;exitX=0;exitY=0.5;exitDx=0;exitDy=0;" parent="1" source="YpNgMTdwTrCu8pLs_j0M-131" edge="1">
          <mxGeometry relative="1" as="geometry">
            <mxPoint x="-7010" y="1585" as="targetPoint" />
          </mxGeometry>
        </mxCell>
        <mxCell id="YpNgMTdwTrCu8pLs_j0M-131" value="Ders Seçimi Kontrol Edilmeli" style="html=1;rounded=1;absoluteArcSize=1;arcSize=10;whiteSpace=wrap;fillColor=#1ba1e2;strokeColor=#006EAF;fontColor=#ffffff;" parent="1" vertex="1">
          <mxGeometry x="-6900" y="1785" width="130" height="40" as="geometry" />
        </mxCell>
        <mxCell id="nbqyCKGvC23zPWqp3UHc-7" value="Geri" style="text;html=1;align=center;verticalAlign=middle;resizable=0;points=[];autosize=1;strokeColor=none;fillColor=none;" parent="1" vertex="1">
          <mxGeometry x="-6800" y="655" width="50" height="30" as="geometry" />
        </mxCell>
        <mxCell id="nbqyCKGvC23zPWqp3UHc-8" value="&lt;font data-sider-select-id=&quot;1cc78314-6cfd-4c71-9566-9b67fd5dcb45&quot; style=&quot;font-size: 15px;&quot;&gt;Kullanıcı Öğrenci İse&amp;nbsp;&lt;/font&gt;" style="text;html=1;align=center;verticalAlign=middle;resizable=0;points=[];autosize=1;strokeColor=none;fillColor=none;" parent="1" vertex="1">
          <mxGeometry x="-3995" y="455" width="170" height="30" as="geometry" />
        </mxCell>
        <mxCell id="nbqyCKGvC23zPWqp3UHc-11" value="" style="edgeStyle=orthogonalEdgeStyle;html=1;align=left;verticalAlign=top;endArrow=open;endSize=8;strokeColor=#ff0000;rounded=0;entryX=0.5;entryY=0;entryDx=0;entryDy=0;" parent="1" target="nbqyCKGvC23zPWqp3UHc-27" edge="1">
          <mxGeometry x="-1" relative="1" as="geometry">
            <mxPoint x="-3129" y="445" as="targetPoint" />
            <mxPoint x="-3128.7424561403504" y="403.00122807017556" as="sourcePoint" />
            <Array as="points">
              <mxPoint x="-3129" y="445" />
            </Array>
            <mxPoint as="offset" />
          </mxGeometry>
        </mxCell>
        <mxCell id="nbqyCKGvC23zPWqp3UHc-15" value="" style="edgeStyle=orthogonalEdgeStyle;rounded=0;orthogonalLoop=1;jettySize=auto;html=1;exitX=0.5;exitY=1;exitDx=0;exitDy=0;" parent="1" source="raTxTzk0vgehEr7z1tvl-13" target="nbqyCKGvC23zPWqp3UHc-9" edge="1">
          <mxGeometry relative="1" as="geometry">
            <Array as="points" />
            <mxPoint x="-3129" y="325" as="sourcePoint" />
            <mxPoint x="-2191" y="545" as="targetPoint" />
          </mxGeometry>
        </mxCell>
        <mxCell id="nbqyCKGvC23zPWqp3UHc-18" style="edgeStyle=orthogonalEdgeStyle;rounded=0;orthogonalLoop=1;jettySize=auto;html=1;entryX=0;entryY=0.5;entryDx=0;entryDy=0;" parent="1" source="nbqyCKGvC23zPWqp3UHc-9" target="YpNgMTdwTrCu8pLs_j0M-26" edge="1">
          <mxGeometry relative="1" as="geometry">
            <Array as="points">
              <mxPoint x="-2860" y="384" />
            </Array>
          </mxGeometry>
        </mxCell>
        <mxCell id="nbqyCKGvC23zPWqp3UHc-9" value="&lt;font style=&quot;font-size: 10px;&quot;&gt;Kullanıcı Sistemde Kayıtlı mı?&lt;/font&gt;" style="rhombus;whiteSpace=wrap;html=1;fontColor=#000000;fillColor=#ffffc0;strokeColor=#ff0000;" parent="1" vertex="1">
          <mxGeometry x="-3178.5" y="355" width="99" height="58" as="geometry" />
        </mxCell>
        <mxCell id="nbqyCKGvC23zPWqp3UHc-31" style="edgeStyle=orthogonalEdgeStyle;rounded=0;orthogonalLoop=1;jettySize=auto;html=1;entryX=0.5;entryY=0;entryDx=0;entryDy=0;" parent="1" source="nbqyCKGvC23zPWqp3UHc-27" target="raTxTzk0vgehEr7z1tvl-15" edge="1">
          <mxGeometry relative="1" as="geometry" />
        </mxCell>
        <mxCell id="nbqyCKGvC23zPWqp3UHc-33" style="edgeStyle=orthogonalEdgeStyle;rounded=0;orthogonalLoop=1;jettySize=auto;html=1;entryX=0.554;entryY=-0.07;entryDx=0;entryDy=0;entryPerimeter=0;" parent="1" target="YpNgMTdwTrCu8pLs_j0M-6" edge="1">
          <mxGeometry relative="1" as="geometry">
            <mxPoint x="-790" y="665" as="targetPoint" />
            <Array as="points">
              <mxPoint x="-182" y="518" />
            </Array>
            <mxPoint x="-3130.000000000001" y="518" as="sourcePoint" />
          </mxGeometry>
        </mxCell>
        <mxCell id="7eG7Swem1IyPdvQVmkEB-10" style="edgeStyle=orthogonalEdgeStyle;rounded=0;orthogonalLoop=1;jettySize=auto;html=1;entryX=0.5;entryY=0;entryDx=0;entryDy=0;" parent="1" source="nbqyCKGvC23zPWqp3UHc-27" target="YpNgMTdwTrCu8pLs_j0M-16" edge="1">
          <mxGeometry relative="1" as="geometry" />
        </mxCell>
        <mxCell id="7eG7Swem1IyPdvQVmkEB-11" style="edgeStyle=orthogonalEdgeStyle;rounded=0;orthogonalLoop=1;jettySize=auto;html=1;entryX=0.5;entryY=0;entryDx=0;entryDy=0;" parent="1" source="nbqyCKGvC23zPWqp3UHc-27" target="YpNgMTdwTrCu8pLs_j0M-18" edge="1">
          <mxGeometry relative="1" as="geometry">
            <Array as="points">
              <mxPoint x="3890" y="475" />
            </Array>
          </mxGeometry>
        </mxCell>
        <mxCell id="nbqyCKGvC23zPWqp3UHc-27" value="Role" style="rhombus;whiteSpace=wrap;html=1;fontColor=#000000;fillColor=#ffffc0;strokeColor=#ff0000;" parent="1" vertex="1">
          <mxGeometry x="-3173.5" y="465" width="89" height="60" as="geometry" />
        </mxCell>
        <mxCell id="nbqyCKGvC23zPWqp3UHc-34" value="&lt;font data-sider-select-id=&quot;3cdd4399-2b49-4ecd-b7a4-ae1072c389da&quot; style=&quot;font-size: 18px;&quot;&gt;Kullanıcı Öğretim Elemanı İse&lt;/font&gt;" style="text;html=1;align=center;verticalAlign=middle;resizable=0;points=[];autosize=1;strokeColor=none;fillColor=none;" parent="1" vertex="1">
          <mxGeometry x="-1440" y="525" width="260" height="40" as="geometry" />
        </mxCell>
        <mxCell id="nbqyCKGvC23zPWqp3UHc-48" value="OrtakDavranis" style="swimlane;fontStyle=1;align=center;verticalAlign=middle;startSize=25;container=0;collapsible=0;rounded=1;arcSize=14;dropTarget=0;fontSize=20;" parent="1" vertex="1">
          <mxGeometry x="-3430" y="1010" width="1185" height="820" as="geometry" />
        </mxCell>
        <mxCell id="xUi7JRu2v_sGwWPzo44r-3" value="Öğrenci Ana Ekranına Dön" style="text;html=1;align=center;verticalAlign=middle;resizable=0;points=[];autosize=1;strokeColor=none;fillColor=none;" parent="1" vertex="1">
          <mxGeometry x="-6150" y="715" width="170" height="30" as="geometry" />
        </mxCell>
        <mxCell id="xUi7JRu2v_sGwWPzo44r-11" style="edgeStyle=orthogonalEdgeStyle;rounded=0;orthogonalLoop=1;jettySize=auto;html=1;entryX=0.5;entryY=0;entryDx=0;entryDy=0;" parent="1" source="xUi7JRu2v_sGwWPzo44r-5" target="YpNgMTdwTrCu8pLs_j0M-80" edge="1">
          <mxGeometry relative="1" as="geometry" />
        </mxCell>
        <mxCell id="xUi7JRu2v_sGwWPzo44r-14" style="edgeStyle=orthogonalEdgeStyle;rounded=0;orthogonalLoop=1;jettySize=auto;html=1;" parent="1" source="xUi7JRu2v_sGwWPzo44r-5" target="xUi7JRu2v_sGwWPzo44r-13" edge="1">
          <mxGeometry relative="1" as="geometry">
            <Array as="points">
              <mxPoint x="-6500" y="945" />
              <mxPoint x="-6500" y="945" />
            </Array>
          </mxGeometry>
        </mxCell>
        <mxCell id="xUi7JRu2v_sGwWPzo44r-5" value="&lt;font data-sider-select-id=&quot;c8e989de-6e28-427a-bb97-aff3df588ef3&quot; style=&quot;font-size: 10px;&quot;&gt;Ders Seçimi Zamanı mı?&lt;/font&gt;" style="rhombus;whiteSpace=wrap;html=1;fontColor=#000000;fillColor=#ffffc0;strokeColor=#ff0000;" parent="1" vertex="1">
          <mxGeometry x="-6659.75" y="895" width="119.5" height="88" as="geometry" />
        </mxCell>
        <mxCell id="xUi7JRu2v_sGwWPzo44r-12" value="Evet" style="text;html=1;align=center;verticalAlign=middle;resizable=0;points=[];autosize=1;strokeColor=none;fillColor=none;" parent="1" vertex="1">
          <mxGeometry x="-6605" y="1023" width="50" height="30" as="geometry" />
        </mxCell>
        <mxCell id="xUi7JRu2v_sGwWPzo44r-13" value="HATA BİLDİRİMİ! Ders Seçimi Zamanı Değil!" style="html=1;rounded=1;absoluteArcSize=1;arcSize=10;whiteSpace=wrap;fillColor=#1ba1e2;strokeColor=#006EAF;fontColor=#ffffff;" parent="1" vertex="1">
          <mxGeometry x="-6390" y="925" width="130" height="40" as="geometry" />
        </mxCell>
        <mxCell id="xUi7JRu2v_sGwWPzo44r-15" value="Hayır" style="text;html=1;align=center;verticalAlign=middle;resizable=0;points=[];autosize=1;strokeColor=none;fillColor=none;" parent="1" vertex="1">
          <mxGeometry x="-6515" y="915" width="50" height="30" as="geometry" />
        </mxCell>
        <mxCell id="xUi7JRu2v_sGwWPzo44r-25" style="edgeStyle=orthogonalEdgeStyle;rounded=0;orthogonalLoop=1;jettySize=auto;html=1;entryX=1;entryY=0.5;entryDx=0;entryDy=0;" parent="1" source="xUi7JRu2v_sGwWPzo44r-18" target="xUi7JRu2v_sGwWPzo44r-24" edge="1">
          <mxGeometry relative="1" as="geometry">
            <Array as="points">
              <mxPoint x="-6095" y="1585" />
            </Array>
          </mxGeometry>
        </mxCell>
        <mxCell id="xUi7JRu2v_sGwWPzo44r-18" value="&lt;div data-sider-select-id=&quot;84483e46-2456-44e6-a681-b8dce48a3466&quot; style=&quot;&quot;&gt;&lt;span data-sider-select-id=&quot;77f55762-5c15-4ae8-b55c-a57af7bca900&quot; style=&quot;&quot;&gt;&lt;font color=&quot;#121212&quot;&gt;Önceki Yıl Dersleri&lt;/font&gt;&lt;/span&gt;&lt;br&gt;&lt;/div&gt;" style="html=1;align=center;verticalAlign=top;rounded=1;absoluteArcSize=1;arcSize=10;dashed=0;whiteSpace=wrap;fillColor=#f8cecc;strokeColor=#b85450;" parent="1" vertex="1">
          <mxGeometry x="-6170" y="1315" width="150" height="40" as="geometry" />
        </mxCell>
        <mxCell id="xUi7JRu2v_sGwWPzo44r-20" value="Zorunlu" style="text;html=1;align=center;verticalAlign=middle;resizable=0;points=[];autosize=1;strokeColor=none;fillColor=none;" parent="1" vertex="1">
          <mxGeometry x="-6095" y="1200" width="60" height="30" as="geometry" />
        </mxCell>
        <mxCell id="xUi7JRu2v_sGwWPzo44r-27" value="" style="edgeStyle=orthogonalEdgeStyle;rounded=0;orthogonalLoop=1;jettySize=auto;html=1;" parent="1" source="xUi7JRu2v_sGwWPzo44r-24" edge="1">
          <mxGeometry relative="1" as="geometry">
            <mxPoint x="-6530" y="1735" as="targetPoint" />
          </mxGeometry>
        </mxCell>
        <mxCell id="xUi7JRu2v_sGwWPzo44r-29" style="edgeStyle=orthogonalEdgeStyle;rounded=0;orthogonalLoop=1;jettySize=auto;html=1;entryX=0;entryY=0.5;entryDx=0;entryDy=0;" parent="1" source="xUi7JRu2v_sGwWPzo44r-24" target="YpNgMTdwTrCu8pLs_j0M-80" edge="1">
          <mxGeometry relative="1" as="geometry">
            <mxPoint x="-7010" y="1145" as="targetPoint" />
            <Array as="points">
              <mxPoint x="-7010" y="1585" />
              <mxPoint x="-7010" y="1185" />
            </Array>
          </mxGeometry>
        </mxCell>
        <mxCell id="xUi7JRu2v_sGwWPzo44r-24" value="&lt;span data-sider-select-id=&quot;ac28560a-ffd9-4517-845f-252667711be9&quot; style=&quot;font-size: 10px;&quot;&gt;Seçilen Dersler Danışmana Gönderilsin mi?&lt;/span&gt;" style="rhombus;whiteSpace=wrap;html=1;fontColor=#000000;fillColor=#ffffc0;strokeColor=#ff0000;" parent="1" vertex="1">
          <mxGeometry x="-6600" y="1515" width="140" height="140" as="geometry" />
        </mxCell>
        <mxCell id="xUi7JRu2v_sGwWPzo44r-28" value="Evet" style="text;html=1;align=center;verticalAlign=middle;resizable=0;points=[];autosize=1;strokeColor=none;fillColor=none;" parent="1" vertex="1">
          <mxGeometry x="-6530" y="1675" width="50" height="30" as="geometry" />
        </mxCell>
        <mxCell id="xUi7JRu2v_sGwWPzo44r-36" value="Hayır" style="text;html=1;align=center;verticalAlign=middle;resizable=0;points=[];autosize=1;strokeColor=none;fillColor=none;" parent="1" vertex="1">
          <mxGeometry x="-6660" y="1553" width="50" height="30" as="geometry" />
        </mxCell>
        <mxCell id="xUi7JRu2v_sGwWPzo44r-40" style="edgeStyle=orthogonalEdgeStyle;rounded=0;orthogonalLoop=1;jettySize=auto;html=1;" parent="1" source="xUi7JRu2v_sGwWPzo44r-39" edge="1">
          <mxGeometry relative="1" as="geometry">
            <mxPoint x="-6770" y="1805" as="targetPoint" />
          </mxGeometry>
        </mxCell>
        <mxCell id="xUi7JRu2v_sGwWPzo44r-54" style="edgeStyle=orthogonalEdgeStyle;rounded=0;orthogonalLoop=1;jettySize=auto;html=1;entryX=1;entryY=0.5;entryDx=0;entryDy=0;" parent="1" source="xUi7JRu2v_sGwWPzo44r-39" target="xUi7JRu2v_sGwWPzo44r-45" edge="1">
          <mxGeometry relative="1" as="geometry">
            <Array as="points">
              <mxPoint x="-6640" y="1865" />
              <mxPoint x="-6640" y="1865" />
            </Array>
          </mxGeometry>
        </mxCell>
        <mxCell id="xUi7JRu2v_sGwWPzo44r-39" value="&lt;span data-sider-select-id=&quot;c9b3df54-9bd8-4e8e-9101-f375ca689117&quot; style=&quot;text-wrap: nowrap;&quot;&gt;AKTS &amp;gt; 45 mi?&lt;/span&gt;" style="rhombus;whiteSpace=wrap;html=1;fontColor=#000000;fillColor=#ffffc0;strokeColor=#ff0000;" parent="1" vertex="1">
          <mxGeometry x="-6600" y="1735" width="140" height="140" as="geometry" />
        </mxCell>
        <mxCell id="xUi7JRu2v_sGwWPzo44r-41" value="Evet" style="text;html=1;align=center;verticalAlign=middle;resizable=0;points=[];autosize=1;strokeColor=none;fillColor=none;" parent="1" vertex="1">
          <mxGeometry x="-6699.5" y="1773" width="50" height="30" as="geometry" />
        </mxCell>
        <mxCell id="xUi7JRu2v_sGwWPzo44r-56" style="edgeStyle=orthogonalEdgeStyle;rounded=0;orthogonalLoop=1;jettySize=auto;html=1;" parent="1" source="xUi7JRu2v_sGwWPzo44r-45" edge="1">
          <mxGeometry relative="1" as="geometry">
            <mxPoint x="-7010" y="1805" as="targetPoint" />
            <Array as="points">
              <mxPoint x="-7010" y="1865" />
              <mxPoint x="-7010" y="1815" />
            </Array>
          </mxGeometry>
        </mxCell>
        <mxCell id="xUi7JRu2v_sGwWPzo44r-45" value="Seçilen Dersler Danışmana Gönderildi" style="html=1;rounded=1;absoluteArcSize=1;arcSize=10;whiteSpace=wrap;fillColor=#1ba1e2;strokeColor=#006EAF;fontColor=#ffffff;" parent="1" vertex="1">
          <mxGeometry x="-6900" y="1845" width="130" height="40" as="geometry" />
        </mxCell>
        <mxCell id="xUi7JRu2v_sGwWPzo44r-55" value="Hayır" style="text;html=1;align=center;verticalAlign=middle;resizable=0;points=[];autosize=1;strokeColor=none;fillColor=none;" parent="1" vertex="1">
          <mxGeometry x="-6690" y="1865" width="50" height="30" as="geometry" />
        </mxCell>
        <mxCell id="xUi7JRu2v_sGwWPzo44r-57" value="Menüyü Göster" style="text;html=1;align=center;verticalAlign=middle;resizable=0;points=[];autosize=1;strokeColor=none;fillColor=none;" parent="1" vertex="1">
          <mxGeometry x="-7010" y="1815" width="110" height="30" as="geometry" />
        </mxCell>
        <mxCell id="xUi7JRu2v_sGwWPzo44r-63" style="edgeStyle=orthogonalEdgeStyle;rounded=0;orthogonalLoop=1;jettySize=auto;html=1;" parent="1" source="xUi7JRu2v_sGwWPzo44r-58" target="YpNgMTdwTrCu8pLs_j0M-74" edge="1">
          <mxGeometry relative="1" as="geometry" />
        </mxCell>
        <mxCell id="xUi7JRu2v_sGwWPzo44r-65" style="edgeStyle=orthogonalEdgeStyle;rounded=0;orthogonalLoop=1;jettySize=auto;html=1;entryX=0.5;entryY=0;entryDx=0;entryDy=0;" parent="1" source="xUi7JRu2v_sGwWPzo44r-58" target="YpNgMTdwTrCu8pLs_j0M-67" edge="1">
          <mxGeometry relative="1" as="geometry" />
        </mxCell>
        <mxCell id="xUi7JRu2v_sGwWPzo44r-58" value="&lt;span data-sider-select-id=&quot;c9b3df54-9bd8-4e8e-9101-f375ca689117&quot; style=&quot;text-wrap: nowrap;&quot;&gt;&lt;font data-sider-select-id=&quot;7a510392-38f2-43ba-bfcd-f93132c9f3cc&quot; style=&quot;font-size: 14px;&quot;&gt;Öğrenci Bir Programa Kayıtlı mı?&lt;/font&gt;&lt;/span&gt;" style="rhombus;whiteSpace=wrap;html=1;fontColor=#000000;fillColor=#ffffc0;strokeColor=#ff0000;align=center;" parent="1" vertex="1">
          <mxGeometry x="-5800" y="885" width="220" height="176" as="geometry" />
        </mxCell>
        <mxCell id="xUi7JRu2v_sGwWPzo44r-64" value="Hayır" style="text;html=1;align=center;verticalAlign=middle;resizable=0;points=[];autosize=1;strokeColor=none;fillColor=none;" parent="1" vertex="1">
          <mxGeometry x="-5560" y="940" width="50" height="30" as="geometry" />
        </mxCell>
        <mxCell id="xUi7JRu2v_sGwWPzo44r-66" value="Evet" style="text;html=1;align=center;verticalAlign=middle;resizable=0;points=[];autosize=1;strokeColor=none;fillColor=none;" parent="1" vertex="1">
          <mxGeometry x="-5680" y="1103" width="50" height="30" as="geometry" />
        </mxCell>
        <mxCell id="xUi7JRu2v_sGwWPzo44r-67" value="Öğrenci ana ekranına dön&lt;div&gt;&lt;br&gt;&lt;/div&gt;" style="text;html=1;align=center;verticalAlign=middle;resizable=0;points=[];autosize=1;strokeColor=none;fillColor=none;" parent="1" vertex="1">
          <mxGeometry x="-5460" y="705" width="160" height="40" as="geometry" />
        </mxCell>
        <mxCell id="xUi7JRu2v_sGwWPzo44r-70" value="Geri" style="text;html=1;align=center;verticalAlign=middle;resizable=0;points=[];autosize=1;strokeColor=none;fillColor=none;" parent="1" vertex="1">
          <mxGeometry x="-5820" y="655" width="50" height="30" as="geometry" />
        </mxCell>
        <mxCell id="xUi7JRu2v_sGwWPzo44r-71" value="&lt;font data-sider-select-id=&quot;3ac00be1-4497-4f37-8a21-d145cc6225cb&quot; style=&quot;font-size: 19px;&quot;&gt;Öğrenci Ana Ekranına Dön&lt;/font&gt;" style="text;html=1;align=center;verticalAlign=middle;resizable=0;points=[];autosize=1;strokeColor=none;fillColor=none;" parent="1" vertex="1">
          <mxGeometry x="-5805" y="518" width="250" height="40" as="geometry" />
        </mxCell>
        <mxCell id="xUi7JRu2v_sGwWPzo44r-91" value="" style="edgeStyle=orthogonalEdgeStyle;rounded=0;orthogonalLoop=1;jettySize=auto;html=1;" parent="1" source="xUi7JRu2v_sGwWPzo44r-72" target="xUi7JRu2v_sGwWPzo44r-90" edge="1">
          <mxGeometry relative="1" as="geometry" />
        </mxCell>
        <mxCell id="xUi7JRu2v_sGwWPzo44r-97" value="" style="edgeStyle=orthogonalEdgeStyle;rounded=0;orthogonalLoop=1;jettySize=auto;html=1;" parent="1" source="xUi7JRu2v_sGwWPzo44r-72" target="xUi7JRu2v_sGwWPzo44r-96" edge="1">
          <mxGeometry relative="1" as="geometry" />
        </mxCell>
        <mxCell id="xUi7JRu2v_sGwWPzo44r-102" value="" style="edgeStyle=orthogonalEdgeStyle;rounded=0;orthogonalLoop=1;jettySize=auto;html=1;" parent="1" source="xUi7JRu2v_sGwWPzo44r-72" target="xUi7JRu2v_sGwWPzo44r-101" edge="1">
          <mxGeometry relative="1" as="geometry" />
        </mxCell>
        <mxCell id="xUi7JRu2v_sGwWPzo44r-105" value="" style="edgeStyle=orthogonalEdgeStyle;rounded=0;orthogonalLoop=1;jettySize=auto;html=1;" parent="1" source="xUi7JRu2v_sGwWPzo44r-72" target="xUi7JRu2v_sGwWPzo44r-104" edge="1">
          <mxGeometry relative="1" as="geometry" />
        </mxCell>
        <mxCell id="xUi7JRu2v_sGwWPzo44r-72" value="Ders Detaylarını Görüntüle" style="html=1;align=center;verticalAlign=top;rounded=1;absoluteArcSize=1;arcSize=10;dashed=0;whiteSpace=wrap;fillColor=#f8cecc;strokeColor=#b85450;" parent="1" vertex="1">
          <mxGeometry x="-5760" y="1325" width="140" height="40" as="geometry" />
        </mxCell>
        <mxCell id="xUi7JRu2v_sGwWPzo44r-125" style="edgeStyle=orthogonalEdgeStyle;rounded=0;orthogonalLoop=1;jettySize=auto;html=1;" parent="1" source="xUi7JRu2v_sGwWPzo44r-90" edge="1">
          <mxGeometry relative="1" as="geometry">
            <mxPoint x="-5854" y="1645" as="targetPoint" />
          </mxGeometry>
        </mxCell>
        <mxCell id="xUi7JRu2v_sGwWPzo44r-90" value="Genel Bilgileri Görüntüle" style="html=1;align=center;verticalAlign=top;rounded=1;absoluteArcSize=1;arcSize=10;dashed=0;whiteSpace=wrap;fillColor=#f8cecc;strokeColor=#b85450;" parent="1" vertex="1">
          <mxGeometry x="-5924" y="1445" width="140" height="40" as="geometry" />
        </mxCell>
        <mxCell id="xUi7JRu2v_sGwWPzo44r-126" style="edgeStyle=orthogonalEdgeStyle;rounded=0;orthogonalLoop=1;jettySize=auto;html=1;" parent="1" source="xUi7JRu2v_sGwWPzo44r-96" edge="1">
          <mxGeometry relative="1" as="geometry">
            <mxPoint x="-5690" y="1645" as="targetPoint" />
          </mxGeometry>
        </mxCell>
        <mxCell id="xUi7JRu2v_sGwWPzo44r-96" value="Hafta İçeriklerini Görüntüle" style="html=1;align=center;verticalAlign=top;rounded=1;absoluteArcSize=1;arcSize=10;dashed=0;whiteSpace=wrap;fillColor=#f8cecc;strokeColor=#b85450;" parent="1" vertex="1">
          <mxGeometry x="-5760" y="1445" width="140" height="40" as="geometry" />
        </mxCell>
        <mxCell id="xUi7JRu2v_sGwWPzo44r-127" style="edgeStyle=orthogonalEdgeStyle;rounded=0;orthogonalLoop=1;jettySize=auto;html=1;" parent="1" source="xUi7JRu2v_sGwWPzo44r-101" edge="1">
          <mxGeometry relative="1" as="geometry">
            <mxPoint x="-5530" y="1645" as="targetPoint" />
          </mxGeometry>
        </mxCell>
        <mxCell id="xUi7JRu2v_sGwWPzo44r-101" value="Ödevler" style="html=1;align=center;verticalAlign=top;rounded=1;absoluteArcSize=1;arcSize=10;dashed=0;whiteSpace=wrap;fillColor=#f8cecc;strokeColor=#b85450;" parent="1" vertex="1">
          <mxGeometry x="-5600" y="1445" width="140" height="40" as="geometry" />
        </mxCell>
        <mxCell id="xUi7JRu2v_sGwWPzo44r-128" style="edgeStyle=orthogonalEdgeStyle;rounded=0;orthogonalLoop=1;jettySize=auto;html=1;" parent="1" source="xUi7JRu2v_sGwWPzo44r-104" edge="1">
          <mxGeometry relative="1" as="geometry">
            <mxPoint x="-5380" y="1645" as="targetPoint" />
          </mxGeometry>
        </mxCell>
        <mxCell id="xUi7JRu2v_sGwWPzo44r-104" value="Ders Bilgilerini Görüntüle" style="html=1;align=center;verticalAlign=top;rounded=1;absoluteArcSize=1;arcSize=10;dashed=0;whiteSpace=wrap;fillColor=#f8cecc;strokeColor=#b85450;" parent="1" vertex="1">
          <mxGeometry x="-5450" y="1445" width="140" height="40" as="geometry" />
        </mxCell>
        <mxCell id="xUi7JRu2v_sGwWPzo44r-123" value="Geri" style="text;html=1;align=center;verticalAlign=middle;resizable=0;points=[];autosize=1;strokeColor=none;fillColor=none;" parent="1" vertex="1">
          <mxGeometry x="-6800" y="970" width="50" height="30" as="geometry" />
        </mxCell>
        <mxCell id="xUi7JRu2v_sGwWPzo44r-129" value="" style="edgeStyle=none;orthogonalLoop=1;jettySize=auto;html=1;rounded=0;" parent="1" edge="1">
          <mxGeometry width="100" relative="1" as="geometry">
            <mxPoint x="-5900" y="1645" as="sourcePoint" />
            <mxPoint x="-5620" y="1245" as="targetPoint" />
            <Array as="points">
              <mxPoint x="-5240" y="1645" />
              <mxPoint x="-5240" y="1245" />
              <mxPoint x="-5420" y="1245" />
              <mxPoint x="-5520" y="1245" />
            </Array>
          </mxGeometry>
        </mxCell>
        <mxCell id="xUi7JRu2v_sGwWPzo44r-131" value="Geri&amp;nbsp;" style="text;html=1;align=center;verticalAlign=middle;resizable=0;points=[];autosize=1;strokeColor=none;fillColor=none;" parent="1" vertex="1">
          <mxGeometry x="-5670" y="1645" width="50" height="30" as="geometry" />
        </mxCell>
        <mxCell id="xUi7JRu2v_sGwWPzo44r-132" value="Dersler Ve Notları Görüntüle" style="text;html=1;align=center;verticalAlign=middle;resizable=0;points=[];autosize=1;strokeColor=none;fillColor=none;rotation=90;" parent="1" vertex="1">
          <mxGeometry x="-5310" y="1405" width="170" height="30" as="geometry" />
        </mxCell>
        <mxCell id="xUi7JRu2v_sGwWPzo44r-135" value="Geri" style="text;html=1;align=center;verticalAlign=middle;resizable=0;points=[];autosize=1;strokeColor=none;fillColor=none;" parent="1" vertex="1">
          <mxGeometry x="-5820" y="1103" width="50" height="30" as="geometry" />
        </mxCell>
        <mxCell id="xUi7JRu2v_sGwWPzo44r-154" style="edgeStyle=orthogonalEdgeStyle;rounded=0;orthogonalLoop=1;jettySize=auto;html=1;entryX=0.5;entryY=0;entryDx=0;entryDy=0;" parent="1" source="xUi7JRu2v_sGwWPzo44r-144" target="xUi7JRu2v_sGwWPzo44r-152" edge="1">
          <mxGeometry relative="1" as="geometry" />
        </mxCell>
        <mxCell id="xUi7JRu2v_sGwWPzo44r-144" value="Öğrenci Belgesi" style="html=1;align=center;verticalAlign=top;rounded=1;absoluteArcSize=1;arcSize=10;dashed=0;whiteSpace=wrap;" parent="1" vertex="1">
          <mxGeometry x="-4925" y="923" width="140" height="40" as="geometry" />
        </mxCell>
        <mxCell id="xUi7JRu2v_sGwWPzo44r-165" style="edgeStyle=orthogonalEdgeStyle;rounded=0;orthogonalLoop=1;jettySize=auto;html=1;entryX=0.5;entryY=0;entryDx=0;entryDy=0;" parent="1" source="xUi7JRu2v_sGwWPzo44r-145" target="YpNgMTdwTrCu8pLs_j0M-46" edge="1">
          <mxGeometry relative="1" as="geometry" />
        </mxCell>
        <mxCell id="xUi7JRu2v_sGwWPzo44r-145" value="Transkript" style="html=1;align=center;verticalAlign=top;rounded=1;absoluteArcSize=1;arcSize=10;dashed=0;whiteSpace=wrap;" parent="1" vertex="1">
          <mxGeometry x="-4725" y="923" width="140" height="40" as="geometry" />
        </mxCell>
        <mxCell id="xUi7JRu2v_sGwWPzo44r-173" style="edgeStyle=orthogonalEdgeStyle;rounded=0;orthogonalLoop=1;jettySize=auto;html=1;entryX=0.5;entryY=0;entryDx=0;entryDy=0;" parent="1" source="xUi7JRu2v_sGwWPzo44r-146" target="xUi7JRu2v_sGwWPzo44r-172" edge="1">
          <mxGeometry relative="1" as="geometry" />
        </mxCell>
        <mxCell id="xUi7JRu2v_sGwWPzo44r-146" value="Öğrenci Ders içeriği Raporu" style="html=1;align=center;verticalAlign=top;rounded=1;absoluteArcSize=1;arcSize=10;dashed=0;whiteSpace=wrap;" parent="1" vertex="1">
          <mxGeometry x="-4535" y="926" width="140" height="40" as="geometry" />
        </mxCell>
        <mxCell id="xUi7JRu2v_sGwWPzo44r-155" value="" style="edgeStyle=orthogonalEdgeStyle;rounded=0;orthogonalLoop=1;jettySize=auto;html=1;" parent="1" source="xUi7JRu2v_sGwWPzo44r-152" target="YpNgMTdwTrCu8pLs_j0M-8" edge="1">
          <mxGeometry relative="1" as="geometry">
            <Array as="points">
              <mxPoint x="-4855" y="1233" />
              <mxPoint x="-4855" y="1233" />
            </Array>
          </mxGeometry>
        </mxCell>
        <mxCell id="2cs-It8Q2KzFfJwQsvEJ-6" style="edgeStyle=orthogonalEdgeStyle;rounded=0;orthogonalLoop=1;jettySize=auto;html=1;exitX=0;exitY=0.5;exitDx=0;exitDy=0;entryX=0;entryY=0.75;entryDx=0;entryDy=0;" parent="1" source="xUi7JRu2v_sGwWPzo44r-152" target="YpNgMTdwTrCu8pLs_j0M-30" edge="1">
          <mxGeometry relative="1" as="geometry">
            <Array as="points">
              <mxPoint x="-5080" y="1104" />
              <mxPoint x="-5080" y="748" />
            </Array>
          </mxGeometry>
        </mxCell>
        <mxCell id="xUi7JRu2v_sGwWPzo44r-152" value="&lt;font data-sider-select-id=&quot;c8e989de-6e28-427a-bb97-aff3df588ef3&quot; style=&quot;font-size: 10px;&quot;&gt;Öğrenci Belgesi Var mı?&lt;/font&gt;" style="rhombus;whiteSpace=wrap;html=1;fontColor=#000000;fillColor=#ffffc0;strokeColor=#ff0000;" parent="1" vertex="1">
          <mxGeometry x="-4919.87" y="1055" width="129.75" height="98" as="geometry" />
        </mxCell>
        <mxCell id="xUi7JRu2v_sGwWPzo44r-156" value="Evet" style="text;html=1;align=center;verticalAlign=middle;resizable=0;points=[];autosize=1;strokeColor=none;fillColor=none;" parent="1" vertex="1">
          <mxGeometry x="-4905" y="1183" width="50" height="30" as="geometry" />
        </mxCell>
        <mxCell id="xUi7JRu2v_sGwWPzo44r-158" value="Hayır" style="text;html=1;align=center;verticalAlign=middle;resizable=0;points=[];autosize=1;strokeColor=none;fillColor=none;" parent="1" vertex="1">
          <mxGeometry x="-4975" y="1073" width="50" height="30" as="geometry" />
        </mxCell>
        <mxCell id="xUi7JRu2v_sGwWPzo44r-164" value="Geri" style="text;html=1;align=center;verticalAlign=middle;resizable=0;points=[];autosize=1;strokeColor=none;fillColor=none;" parent="1" vertex="1">
          <mxGeometry x="-5130" y="1155" width="50" height="30" as="geometry" />
        </mxCell>
        <mxCell id="xUi7JRu2v_sGwWPzo44r-175" style="edgeStyle=orthogonalEdgeStyle;rounded=0;orthogonalLoop=1;jettySize=auto;html=1;" parent="1" source="xUi7JRu2v_sGwWPzo44r-172" edge="1">
          <mxGeometry relative="1" as="geometry">
            <mxPoint x="-4465" y="1323" as="targetPoint" />
          </mxGeometry>
        </mxCell>
        <mxCell id="xUi7JRu2v_sGwWPzo44r-172" value="Öğrenci Ders İçeriği Raporu Göüntüle" style="html=1;align=center;verticalAlign=top;rounded=1;absoluteArcSize=1;arcSize=10;dashed=0;whiteSpace=wrap;fillColor=#f8cecc;strokeColor=#b85450;" parent="1" vertex="1">
          <mxGeometry x="-4535" y="1084" width="140" height="40" as="geometry" />
        </mxCell>
        <mxCell id="xUi7JRu2v_sGwWPzo44r-176" value="" style="edgeStyle=none;orthogonalLoop=1;jettySize=auto;html=1;rounded=0;" parent="1" edge="1">
          <mxGeometry width="100" relative="1" as="geometry">
            <mxPoint x="-4405" y="1323" as="sourcePoint" />
            <mxPoint x="-5080" y="1263" as="targetPoint" />
            <Array as="points">
              <mxPoint x="-5055" y="1323" />
              <mxPoint x="-5080" y="1323" />
              <mxPoint x="-5080" y="1295" />
            </Array>
          </mxGeometry>
        </mxCell>
        <mxCell id="xUi7JRu2v_sGwWPzo44r-178" value="Geri" style="text;html=1;align=center;verticalAlign=middle;resizable=0;points=[];autosize=1;strokeColor=none;fillColor=none;" parent="1" vertex="1">
          <mxGeometry x="-4595" y="1328" width="50" height="30" as="geometry" />
        </mxCell>
        <mxCell id="2cs-It8Q2KzFfJwQsvEJ-10" value="Geri" style="text;html=1;align=center;verticalAlign=middle;resizable=0;points=[];autosize=1;strokeColor=none;fillColor=none;" parent="1" vertex="1">
          <mxGeometry x="-4905" y="663" width="50" height="30" as="geometry" />
        </mxCell>
        <mxCell id="2cs-It8Q2KzFfJwQsvEJ-11" value="&lt;font data-sider-select-id=&quot;3ac00be1-4497-4f37-8a21-d145cc6225cb&quot; style=&quot;font-size: 19px;&quot;&gt;Öğrenci Ana Ekranına Dön&lt;/font&gt;" style="text;html=1;align=center;verticalAlign=middle;resizable=0;points=[];autosize=1;strokeColor=none;fillColor=none;" parent="1" vertex="1">
          <mxGeometry x="-4320" y="518" width="250" height="40" as="geometry" />
        </mxCell>
        <mxCell id="2cs-It8Q2KzFfJwQsvEJ-53" style="edgeStyle=orthogonalEdgeStyle;rounded=0;orthogonalLoop=1;jettySize=auto;html=1;" parent="1" source="2cs-It8Q2KzFfJwQsvEJ-42" target="2cs-It8Q2KzFfJwQsvEJ-52" edge="1">
          <mxGeometry relative="1" as="geometry" />
        </mxCell>
        <mxCell id="2cs-It8Q2KzFfJwQsvEJ-42" value="Ders Programı" style="whiteSpace=wrap;html=1;verticalAlign=top;rounded=1;arcSize=10;dashed=0;" parent="1" vertex="1">
          <mxGeometry x="-3990" y="788" width="120" height="40" as="geometry" />
        </mxCell>
        <mxCell id="2cs-It8Q2KzFfJwQsvEJ-50" style="edgeStyle=orthogonalEdgeStyle;rounded=0;orthogonalLoop=1;jettySize=auto;html=1;exitX=0.5;exitY=1;exitDx=0;exitDy=0;entryX=0.5;entryY=0;entryDx=0;entryDy=0;" parent="1" source="2cs-It8Q2KzFfJwQsvEJ-43" target="YpNgMTdwTrCu8pLs_j0M-61" edge="1">
          <mxGeometry relative="1" as="geometry" />
        </mxCell>
        <mxCell id="2cs-It8Q2KzFfJwQsvEJ-43" value="Danışman Bilgileri" style="whiteSpace=wrap;html=1;verticalAlign=top;rounded=1;arcSize=10;dashed=0;" parent="1" vertex="1">
          <mxGeometry x="-3820" y="788" width="120" height="40" as="geometry" />
        </mxCell>
        <mxCell id="2cs-It8Q2KzFfJwQsvEJ-49" style="edgeStyle=orthogonalEdgeStyle;rounded=0;orthogonalLoop=1;jettySize=auto;html=1;" parent="1" source="2cs-It8Q2KzFfJwQsvEJ-44" target="YpNgMTdwTrCu8pLs_j0M-60" edge="1">
          <mxGeometry relative="1" as="geometry" />
        </mxCell>
        <mxCell id="2cs-It8Q2KzFfJwQsvEJ-44" value="Takvim" style="whiteSpace=wrap;html=1;verticalAlign=top;rounded=1;arcSize=10;dashed=0;" parent="1" vertex="1">
          <mxGeometry x="-3659.5" y="788" width="120" height="40" as="geometry" />
        </mxCell>
        <mxCell id="2cs-It8Q2KzFfJwQsvEJ-54" style="edgeStyle=orthogonalEdgeStyle;rounded=0;orthogonalLoop=1;jettySize=auto;html=1;entryX=0.5;entryY=0;entryDx=0;entryDy=0;" parent="1" source="2cs-It8Q2KzFfJwQsvEJ-52" target="YpNgMTdwTrCu8pLs_j0M-62" edge="1">
          <mxGeometry relative="1" as="geometry">
            <mxPoint x="-3930.004999999999" y="1198" as="targetPoint" />
          </mxGeometry>
        </mxCell>
        <mxCell id="2cs-It8Q2KzFfJwQsvEJ-56" style="edgeStyle=orthogonalEdgeStyle;rounded=0;orthogonalLoop=1;jettySize=auto;html=1;" parent="1" source="2cs-It8Q2KzFfJwQsvEJ-52" edge="1">
          <mxGeometry relative="1" as="geometry">
            <mxPoint x="-4060" y="1055" as="targetPoint" />
          </mxGeometry>
        </mxCell>
        <mxCell id="2cs-It8Q2KzFfJwQsvEJ-52" value="&lt;span data-sider-select-id=&quot;5fe8fa2a-0ea4-4986-ba3a-c360c971cb7d&quot; style=&quot;font-size: 10px;&quot;&gt;Ders Atamaları&lt;/span&gt;&lt;div&gt;&lt;span style=&quot;font-size: 10px;&quot;&gt;Gerçekleşti mi?&lt;/span&gt;&lt;/div&gt;" style="rhombus;whiteSpace=wrap;html=1;fontColor=#000000;fillColor=#ffffc0;strokeColor=#ff0000;" parent="1" vertex="1">
          <mxGeometry x="-3994.88" y="1006" width="129.75" height="98" as="geometry" />
        </mxCell>
        <mxCell id="2cs-It8Q2KzFfJwQsvEJ-55" value="Evet" style="text;html=1;align=center;verticalAlign=middle;resizable=0;points=[];autosize=1;strokeColor=none;fillColor=none;" parent="1" vertex="1">
          <mxGeometry x="-3935" y="1138" width="50" height="30" as="geometry" />
        </mxCell>
        <mxCell id="2cs-It8Q2KzFfJwQsvEJ-57" value="Hayır" style="text;html=1;align=center;verticalAlign=middle;resizable=0;points=[];autosize=1;strokeColor=none;fillColor=none;" parent="1" vertex="1">
          <mxGeometry x="-4040" y="1028" width="50" height="30" as="geometry" />
        </mxCell>
        <mxCell id="2cs-It8Q2KzFfJwQsvEJ-81" style="edgeStyle=orthogonalEdgeStyle;rounded=0;orthogonalLoop=1;jettySize=auto;html=1;" parent="1" source="2cs-It8Q2KzFfJwQsvEJ-59" edge="1">
          <mxGeometry relative="1" as="geometry">
            <mxPoint x="-4125.000000000001" y="688" as="targetPoint" />
          </mxGeometry>
        </mxCell>
        <mxCell id="2cs-It8Q2KzFfJwQsvEJ-59" value="Ders Ataması Gerçekleşmemiştir." style="html=1;rounded=1;absoluteArcSize=1;arcSize=10;whiteSpace=wrap;fillColor=#1ba1e2;strokeColor=#006EAF;fontColor=#ffffff;" parent="1" vertex="1">
          <mxGeometry x="-4190" y="1035" width="130" height="40" as="geometry" />
        </mxCell>
        <mxCell id="2cs-It8Q2KzFfJwQsvEJ-65" value="Geri" style="text;html=1;align=center;verticalAlign=middle;resizable=0;points=[];autosize=1;strokeColor=none;fillColor=none;" parent="1" vertex="1">
          <mxGeometry x="-4165" y="1226" width="50" height="30" as="geometry" />
        </mxCell>
        <mxCell id="2cs-It8Q2KzFfJwQsvEJ-82" value="" style="edgeStyle=none;orthogonalLoop=1;jettySize=auto;html=1;rounded=0;entryX=1;entryY=0.5;entryDx=0;entryDy=0;" parent="1" target="YpNgMTdwTrCu8pLs_j0M-36" edge="1">
          <mxGeometry width="100" relative="1" as="geometry">
            <mxPoint x="-3820" y="1028" as="sourcePoint" />
            <mxPoint x="-3520" y="1018" as="targetPoint" />
            <Array as="points">
              <mxPoint x="-3820" y="1028" />
              <mxPoint x="-3440" y="1028" />
              <mxPoint x="-3440" y="968" />
              <mxPoint x="-3440" y="858" />
              <mxPoint x="-3440" y="688" />
            </Array>
          </mxGeometry>
        </mxCell>
        <mxCell id="2cs-It8Q2KzFfJwQsvEJ-90" value="Geri" style="text;html=1;align=center;verticalAlign=middle;resizable=0;points=[];autosize=1;strokeColor=none;fillColor=none;" parent="1" vertex="1">
          <mxGeometry x="-3680" y="1035" width="50" height="30" as="geometry" />
        </mxCell>
        <mxCell id="2cs-It8Q2KzFfJwQsvEJ-108" style="edgeStyle=orthogonalEdgeStyle;rounded=0;orthogonalLoop=1;jettySize=auto;html=1;" parent="1" source="2cs-It8Q2KzFfJwQsvEJ-91" target="2cs-It8Q2KzFfJwQsvEJ-107" edge="1">
          <mxGeometry relative="1" as="geometry">
            <Array as="points">
              <mxPoint x="-3310" y="1363" />
              <mxPoint x="-3150" y="1363" />
            </Array>
          </mxGeometry>
        </mxCell>
        <mxCell id="2cs-It8Q2KzFfJwQsvEJ-91" value="Cep Telefonu Bilgisini Güncelle" style="html=1;align=center;verticalAlign=top;rounded=1;absoluteArcSize=1;arcSize=10;dashed=0;whiteSpace=wrap;fillColor=#f8cecc;strokeColor=#b85450;" parent="1" vertex="1">
          <mxGeometry x="-3380" y="1244" width="140" height="39" as="geometry" />
        </mxCell>
        <mxCell id="2cs-It8Q2KzFfJwQsvEJ-109" style="edgeStyle=orthogonalEdgeStyle;rounded=0;orthogonalLoop=1;jettySize=auto;html=1;" parent="1" source="2cs-It8Q2KzFfJwQsvEJ-92" edge="1">
          <mxGeometry relative="1" as="geometry">
            <mxPoint x="-3150.000000000001" y="1443.0000000000002" as="targetPoint" />
          </mxGeometry>
        </mxCell>
        <mxCell id="2cs-It8Q2KzFfJwQsvEJ-92" value="Kurumsal E-posta Bilgisini Güncelle" style="html=1;align=center;verticalAlign=top;rounded=1;absoluteArcSize=1;arcSize=10;dashed=0;whiteSpace=wrap;fillColor=#f8cecc;strokeColor=#b85450;" parent="1" vertex="1">
          <mxGeometry x="-3220" y="1243" width="140" height="40" as="geometry" />
        </mxCell>
        <mxCell id="2cs-It8Q2KzFfJwQsvEJ-110" style="edgeStyle=orthogonalEdgeStyle;rounded=0;orthogonalLoop=1;jettySize=auto;html=1;" parent="1" source="2cs-It8Q2KzFfJwQsvEJ-93" target="2cs-It8Q2KzFfJwQsvEJ-107" edge="1">
          <mxGeometry relative="1" as="geometry">
            <Array as="points">
              <mxPoint x="-3000" y="1363" />
              <mxPoint x="-3150" y="1363" />
            </Array>
          </mxGeometry>
        </mxCell>
        <mxCell id="2cs-It8Q2KzFfJwQsvEJ-93" value="Kişisel E-posta Bilgisini Güncelle" style="html=1;align=center;verticalAlign=top;rounded=1;absoluteArcSize=1;arcSize=10;dashed=0;whiteSpace=wrap;fillColor=#f8cecc;strokeColor=#b85450;" parent="1" vertex="1">
          <mxGeometry x="-3070" y="1244" width="140" height="39" as="geometry" />
        </mxCell>
        <mxCell id="2cs-It8Q2KzFfJwQsvEJ-111" style="edgeStyle=orthogonalEdgeStyle;rounded=0;orthogonalLoop=1;jettySize=auto;html=1;entryX=0.5;entryY=0;entryDx=0;entryDy=0;" parent="1" source="2cs-It8Q2KzFfJwQsvEJ-94" target="2cs-It8Q2KzFfJwQsvEJ-107" edge="1">
          <mxGeometry relative="1" as="geometry">
            <Array as="points">
              <mxPoint x="-2845" y="1363" />
              <mxPoint x="-3150" y="1363" />
            </Array>
          </mxGeometry>
        </mxCell>
        <mxCell id="2cs-It8Q2KzFfJwQsvEJ-94" value="İkamet Adresi Güncelle" style="html=1;align=center;verticalAlign=top;rounded=1;absoluteArcSize=1;arcSize=10;dashed=0;whiteSpace=wrap;fillColor=#f8cecc;strokeColor=#b85450;" parent="1" vertex="1">
          <mxGeometry x="-2910" y="1244" width="130" height="36" as="geometry" />
        </mxCell>
        <mxCell id="2cs-It8Q2KzFfJwQsvEJ-101" style="edgeStyle=orthogonalEdgeStyle;rounded=0;orthogonalLoop=1;jettySize=auto;html=1;entryX=0.5;entryY=0;entryDx=0;entryDy=0;" parent="1" source="2cs-It8Q2KzFfJwQsvEJ-95" target="2cs-It8Q2KzFfJwQsvEJ-92" edge="1">
          <mxGeometry relative="1" as="geometry" />
        </mxCell>
        <mxCell id="2cs-It8Q2KzFfJwQsvEJ-102" style="edgeStyle=orthogonalEdgeStyle;rounded=0;orthogonalLoop=1;jettySize=auto;html=1;entryX=0.5;entryY=0;entryDx=0;entryDy=0;" parent="1" source="2cs-It8Q2KzFfJwQsvEJ-95" target="2cs-It8Q2KzFfJwQsvEJ-91" edge="1">
          <mxGeometry relative="1" as="geometry">
            <Array as="points">
              <mxPoint x="-3110" y="1203" />
              <mxPoint x="-3310" y="1203" />
            </Array>
          </mxGeometry>
        </mxCell>
        <mxCell id="2cs-It8Q2KzFfJwQsvEJ-103" style="edgeStyle=orthogonalEdgeStyle;rounded=0;orthogonalLoop=1;jettySize=auto;html=1;entryX=0.5;entryY=0;entryDx=0;entryDy=0;" parent="1" source="2cs-It8Q2KzFfJwQsvEJ-95" target="2cs-It8Q2KzFfJwQsvEJ-93" edge="1">
          <mxGeometry relative="1" as="geometry" />
        </mxCell>
        <mxCell id="2cs-It8Q2KzFfJwQsvEJ-104" style="edgeStyle=orthogonalEdgeStyle;rounded=0;orthogonalLoop=1;jettySize=auto;html=1;" parent="1" source="2cs-It8Q2KzFfJwQsvEJ-95" target="2cs-It8Q2KzFfJwQsvEJ-94" edge="1">
          <mxGeometry relative="1" as="geometry">
            <Array as="points">
              <mxPoint x="-3110" y="1203" />
              <mxPoint x="-2845" y="1203" />
            </Array>
          </mxGeometry>
        </mxCell>
        <mxCell id="2cs-It8Q2KzFfJwQsvEJ-105" style="edgeStyle=orthogonalEdgeStyle;rounded=0;orthogonalLoop=1;jettySize=auto;html=1;" parent="1" source="2cs-It8Q2KzFfJwQsvEJ-95" target="2cs-It8Q2KzFfJwQsvEJ-99" edge="1">
          <mxGeometry relative="1" as="geometry">
            <Array as="points">
              <mxPoint x="-3110" y="1203" />
              <mxPoint x="-2695" y="1203" />
            </Array>
          </mxGeometry>
        </mxCell>
        <mxCell id="2cs-It8Q2KzFfJwQsvEJ-95" value="Hesayp Ayarlarını Görüntüle" style="html=1;align=center;verticalAlign=top;rounded=1;absoluteArcSize=1;arcSize=10;dashed=0;whiteSpace=wrap;fillColor=#f8cecc;strokeColor=#b85450;" parent="1" vertex="1">
          <mxGeometry x="-3180" y="1123" width="140" height="40" as="geometry" />
        </mxCell>
        <mxCell id="2cs-It8Q2KzFfJwQsvEJ-113" style="edgeStyle=orthogonalEdgeStyle;rounded=0;orthogonalLoop=1;jettySize=auto;html=1;" parent="1" source="2cs-It8Q2KzFfJwQsvEJ-99" target="2cs-It8Q2KzFfJwQsvEJ-112" edge="1">
          <mxGeometry relative="1" as="geometry" />
        </mxCell>
        <mxCell id="2cs-It8Q2KzFfJwQsvEJ-115" style="edgeStyle=orthogonalEdgeStyle;rounded=0;orthogonalLoop=1;jettySize=auto;html=1;entryX=0.5;entryY=0;entryDx=0;entryDy=0;" parent="1" source="2cs-It8Q2KzFfJwQsvEJ-99" target="2cs-It8Q2KzFfJwQsvEJ-114" edge="1">
          <mxGeometry relative="1" as="geometry">
            <Array as="points">
              <mxPoint x="-2695" y="1323" />
              <mxPoint x="-2540" y="1323" />
            </Array>
          </mxGeometry>
        </mxCell>
        <mxCell id="2cs-It8Q2KzFfJwQsvEJ-99" value="Şifreyi Güncelle" style="html=1;align=center;verticalAlign=top;rounded=1;absoluteArcSize=1;arcSize=10;dashed=0;whiteSpace=wrap;fillColor=#f8cecc;strokeColor=#b85450;" parent="1" vertex="1">
          <mxGeometry x="-2765" y="1241" width="140" height="40" as="geometry" />
        </mxCell>
        <mxCell id="2cs-It8Q2KzFfJwQsvEJ-138" style="edgeStyle=orthogonalEdgeStyle;rounded=0;orthogonalLoop=1;jettySize=auto;html=1;entryX=0;entryY=0.5;entryDx=0;entryDy=0;" parent="1" source="2cs-It8Q2KzFfJwQsvEJ-107" target="YpNgMTdwTrCu8pLs_j0M-38" edge="1">
          <mxGeometry relative="1" as="geometry">
            <Array as="points">
              <mxPoint x="-3420" y="1463" />
              <mxPoint x="-3420" y="1063" />
            </Array>
          </mxGeometry>
        </mxCell>
        <mxCell id="2cs-It8Q2KzFfJwQsvEJ-107" value="Bilgileri Güncelle" style="html=1;align=center;verticalAlign=top;rounded=1;absoluteArcSize=1;arcSize=10;dashed=0;whiteSpace=wrap;fillColor=#f8cecc;strokeColor=#b85450;" parent="1" vertex="1">
          <mxGeometry x="-3220" y="1444" width="140" height="39" as="geometry" />
        </mxCell>
        <mxCell id="2cs-It8Q2KzFfJwQsvEJ-117" style="edgeStyle=orthogonalEdgeStyle;rounded=0;orthogonalLoop=1;jettySize=auto;html=1;" parent="1" source="2cs-It8Q2KzFfJwQsvEJ-112" target="2cs-It8Q2KzFfJwQsvEJ-116" edge="1">
          <mxGeometry relative="1" as="geometry" />
        </mxCell>
        <mxCell id="2cs-It8Q2KzFfJwQsvEJ-112" value="Eski Şifreyi Gir" style="html=1;align=center;verticalAlign=top;rounded=1;absoluteArcSize=1;arcSize=10;dashed=0;whiteSpace=wrap;fillColor=#f8cecc;strokeColor=#b85450;" parent="1" vertex="1">
          <mxGeometry x="-2765" y="1383" width="140" height="40" as="geometry" />
        </mxCell>
        <mxCell id="2cs-It8Q2KzFfJwQsvEJ-119" style="edgeStyle=orthogonalEdgeStyle;rounded=0;orthogonalLoop=1;jettySize=auto;html=1;entryX=0.5;entryY=0;entryDx=0;entryDy=0;" parent="1" source="2cs-It8Q2KzFfJwQsvEJ-114" target="2cs-It8Q2KzFfJwQsvEJ-116" edge="1">
          <mxGeometry relative="1" as="geometry" />
        </mxCell>
        <mxCell id="2cs-It8Q2KzFfJwQsvEJ-114" value="Eski Şifreyi Doğrula" style="html=1;align=center;verticalAlign=top;rounded=1;absoluteArcSize=1;arcSize=10;dashed=0;whiteSpace=wrap;fillColor=#f8cecc;strokeColor=#b85450;" parent="1" vertex="1">
          <mxGeometry x="-2610" y="1383" width="140" height="40" as="geometry" />
        </mxCell>
        <mxCell id="2cs-It8Q2KzFfJwQsvEJ-124" value="" style="edgeStyle=orthogonalEdgeStyle;rounded=0;orthogonalLoop=1;jettySize=auto;html=1;" parent="1" source="2cs-It8Q2KzFfJwQsvEJ-116" edge="1">
          <mxGeometry relative="1" as="geometry">
            <mxPoint x="-2615.125" y="1710" as="targetPoint" />
          </mxGeometry>
        </mxCell>
        <mxCell id="2cs-It8Q2KzFfJwQsvEJ-130" style="edgeStyle=orthogonalEdgeStyle;rounded=0;orthogonalLoop=1;jettySize=auto;html=1;" parent="1" source="2cs-It8Q2KzFfJwQsvEJ-116" edge="1">
          <mxGeometry relative="1" as="geometry">
            <mxPoint x="-2420" y="1561" as="targetPoint" />
          </mxGeometry>
        </mxCell>
        <mxCell id="2cs-It8Q2KzFfJwQsvEJ-116" value="&lt;span style=&quot;font-size: 10px;&quot;&gt;Girilen Şifre Eski Şifreyle Eşleşiyor mu?&lt;/span&gt;" style="rhombus;whiteSpace=wrap;html=1;fontColor=#000000;fillColor=#ffffc0;strokeColor=#ff0000;" parent="1" vertex="1">
          <mxGeometry x="-2680" y="1513" width="129.75" height="98" as="geometry" />
        </mxCell>
        <mxCell id="2cs-It8Q2KzFfJwQsvEJ-126" style="edgeStyle=orthogonalEdgeStyle;rounded=0;orthogonalLoop=1;jettySize=auto;html=1;entryX=0.5;entryY=1;entryDx=0;entryDy=0;" parent="1" source="2cs-It8Q2KzFfJwQsvEJ-125" target="2cs-It8Q2KzFfJwQsvEJ-107" edge="1">
          <mxGeometry relative="1" as="geometry">
            <mxPoint x="-2710" y="1733" as="targetPoint" />
          </mxGeometry>
        </mxCell>
        <mxCell id="2cs-It8Q2KzFfJwQsvEJ-125" value="Yeni Şifre Gir" style="html=1;align=center;verticalAlign=top;rounded=1;absoluteArcSize=1;arcSize=10;dashed=0;whiteSpace=wrap;fillColor=#f8cecc;strokeColor=#b85450;" parent="1" vertex="1">
          <mxGeometry x="-2685.12" y="1713" width="140" height="40" as="geometry" />
        </mxCell>
        <mxCell id="2cs-It8Q2KzFfJwQsvEJ-132" style="edgeStyle=orthogonalEdgeStyle;rounded=0;orthogonalLoop=1;jettySize=auto;html=1;entryX=1;entryY=0.5;entryDx=0;entryDy=0;" parent="1" source="2cs-It8Q2KzFfJwQsvEJ-127" target="YpNgMTdwTrCu8pLs_j0M-38" edge="1">
          <mxGeometry relative="1" as="geometry">
            <Array as="points">
              <mxPoint x="-2400" y="1063" />
            </Array>
          </mxGeometry>
        </mxCell>
        <mxCell id="2cs-It8Q2KzFfJwQsvEJ-127" value="Girilen Şifre Eski Şifreyle Uyuşmuyor" style="html=1;rounded=1;absoluteArcSize=1;arcSize=10;whiteSpace=wrap;fillColor=#1ba1e2;strokeColor=#006EAF;fontColor=#ffffff;" parent="1" vertex="1">
          <mxGeometry x="-2420" y="1541" width="130" height="40" as="geometry" />
        </mxCell>
        <mxCell id="2cs-It8Q2KzFfJwQsvEJ-137" value="Hesap Ayarları Menüsüne Dön" style="text;html=1;align=center;verticalAlign=middle;resizable=0;points=[];autosize=1;strokeColor=none;fillColor=none;" parent="1" vertex="1">
          <mxGeometry x="-2845" y="1071" width="190" height="30" as="geometry" />
        </mxCell>
        <mxCell id="2cs-It8Q2KzFfJwQsvEJ-139" value="Hesap Ayarları Menüsüne Dön" style="text;html=1;align=center;verticalAlign=middle;resizable=0;points=[];autosize=1;strokeColor=none;fillColor=none;" parent="1" vertex="1">
          <mxGeometry x="-3430" y="1473" width="190" height="30" as="geometry" />
        </mxCell>
        <mxCell id="2cs-It8Q2KzFfJwQsvEJ-156" value="" style="edgeStyle=orthogonalEdgeStyle;rounded=0;orthogonalLoop=1;jettySize=auto;html=1;" parent="1" source="2cs-It8Q2KzFfJwQsvEJ-151" target="YpNgMTdwTrCu8pLs_j0M-20" edge="1">
          <mxGeometry relative="1" as="geometry">
            <Array as="points">
              <mxPoint x="-2045.13" y="1013" />
              <mxPoint x="-2045.13" y="1013" />
            </Array>
          </mxGeometry>
        </mxCell>
        <mxCell id="2cs-It8Q2KzFfJwQsvEJ-158" style="edgeStyle=orthogonalEdgeStyle;rounded=0;orthogonalLoop=1;jettySize=auto;html=1;entryX=1;entryY=0.5;entryDx=0;entryDy=0;" parent="1" source="2cs-It8Q2KzFfJwQsvEJ-151" target="raTxTzk0vgehEr7z1tvl-15" edge="1">
          <mxGeometry relative="1" as="geometry">
            <mxPoint x="-2530" y="565" as="targetPoint" />
            <Array as="points">
              <mxPoint x="-1880" y="896" />
              <mxPoint x="-1880" y="565" />
            </Array>
          </mxGeometry>
        </mxCell>
        <mxCell id="2cs-It8Q2KzFfJwQsvEJ-151" value="&lt;span data-sider-select-id=&quot;36403c2a-30e3-46e4-a1fe-6f9c7752840d&quot; style=&quot;font-size: 10px;&quot;&gt;Çıkış Yapılsın mı?&lt;/span&gt;" style="rhombus;whiteSpace=wrap;html=1;fontColor=#000000;fillColor=#ffffc0;strokeColor=#ff0000;" parent="1" vertex="1">
          <mxGeometry x="-2110" y="835" width="129.75" height="98" as="geometry" />
        </mxCell>
        <mxCell id="2cs-It8Q2KzFfJwQsvEJ-157" value="Evet" style="text;html=1;align=center;verticalAlign=middle;resizable=0;points=[];autosize=1;strokeColor=none;fillColor=none;" parent="1" vertex="1">
          <mxGeometry x="-2040.13" y="961" width="50" height="30" as="geometry" />
        </mxCell>
        <mxCell id="2cs-It8Q2KzFfJwQsvEJ-160" value="Hayır" style="text;html=1;align=center;verticalAlign=middle;resizable=0;points=[];autosize=1;strokeColor=none;fillColor=none;" parent="1" vertex="1">
          <mxGeometry x="-1960.13" y="851" width="50" height="30" as="geometry" />
        </mxCell>
        <mxCell id="2cs-It8Q2KzFfJwQsvEJ-161" value="&lt;font data-sider-select-id=&quot;3ac00be1-4497-4f37-8a21-d145cc6225cb&quot; style=&quot;font-size: 19px;&quot;&gt;Öğrenci Ana Ekranına Dön&lt;/font&gt;" style="text;html=1;align=center;verticalAlign=middle;resizable=0;points=[];autosize=1;strokeColor=none;fillColor=none;rotation=90;" parent="1" vertex="1">
          <mxGeometry x="-1980.25" y="685" width="250" height="40" as="geometry" />
        </mxCell>
        <mxCell id="2cs-It8Q2KzFfJwQsvEJ-162" value="&lt;font data-sider-select-id=&quot;3ac00be1-4497-4f37-8a21-d145cc6225cb&quot; style=&quot;font-size: 19px;&quot;&gt;Öğrenci Ana Ekranına Dön&lt;/font&gt;" style="text;html=1;align=center;verticalAlign=middle;resizable=0;points=[];autosize=1;strokeColor=none;fillColor=none;" parent="1" vertex="1">
          <mxGeometry x="-2959.5" y="535" width="250" height="40" as="geometry" />
        </mxCell>
        <mxCell id="2cs-It8Q2KzFfJwQsvEJ-163" value="&lt;font data-sider-select-id=&quot;3ac00be1-4497-4f37-8a21-d145cc6225cb&quot; style=&quot;font-size: 19px;&quot;&gt;Öğrenci Ana Ekranına Dön&lt;/font&gt;" style="text;html=1;align=center;verticalAlign=middle;resizable=0;points=[];autosize=1;strokeColor=none;fillColor=none;rotation=270;" parent="1" vertex="1">
          <mxGeometry x="-6900" y="800" width="250" height="40" as="geometry" />
        </mxCell>
        <mxCell id="uusWP2kZoQyk6e6ta9zT-7" value="" style="edgeStyle=none;orthogonalLoop=1;jettySize=auto;html=1;rounded=0;" parent="1" edge="1">
          <mxGeometry width="100" relative="1" as="geometry">
            <mxPoint x="-3160" y="1030" as="sourcePoint" />
            <mxPoint x="-3160" y="570" as="targetPoint" />
            <Array as="points" />
          </mxGeometry>
        </mxCell>
        <mxCell id="uusWP2kZoQyk6e6ta9zT-10" value="Geri" style="text;html=1;align=center;verticalAlign=middle;resizable=0;points=[];autosize=1;strokeColor=none;fillColor=none;" parent="1" vertex="1">
          <mxGeometry x="-3170" y="970" width="50" height="30" as="geometry" />
        </mxCell>
        <mxCell id="uusWP2kZoQyk6e6ta9zT-18" value="" style="edgeStyle=none;orthogonalLoop=1;jettySize=auto;html=1;rounded=0;" parent="1" edge="1">
          <mxGeometry width="100" relative="1" as="geometry">
            <mxPoint x="-3790" y="665" as="sourcePoint" />
            <mxPoint x="-3790" y="565" as="targetPoint" />
            <Array as="points" />
          </mxGeometry>
        </mxCell>
        <mxCell id="uusWP2kZoQyk6e6ta9zT-19" value="Geri" style="text;html=1;align=center;verticalAlign=middle;resizable=0;points=[];autosize=1;strokeColor=none;fillColor=none;" parent="1" vertex="1">
          <mxGeometry x="-3835" y="623" width="50" height="30" as="geometry" />
        </mxCell>
        <mxCell id="uusWP2kZoQyk6e6ta9zT-23" value="Geri&lt;div&gt;&lt;br&gt;&lt;/div&gt;" style="text;html=1;align=center;verticalAlign=middle;resizable=0;points=[];autosize=1;strokeColor=none;fillColor=none;" parent="1" vertex="1">
          <mxGeometry x="-5130" y="933" width="50" height="40" as="geometry" />
        </mxCell>
        <mxCell id="uusWP2kZoQyk6e6ta9zT-24" value="&lt;font data-sider-select-id=&quot;4615afa2-a15d-46ff-8085-09e00436689a&quot; style=&quot;font-size: 14px;&quot;&gt;Belge Menüsüne Dön&lt;/font&gt;" style="text;html=1;align=center;verticalAlign=middle;resizable=0;points=[];autosize=1;strokeColor=none;fillColor=none;rotation=270;" parent="1" vertex="1">
          <mxGeometry x="-5185" y="1050" width="160" height="30" as="geometry" />
        </mxCell>
        <mxCell id="uusWP2kZoQyk6e6ta9zT-25" value="&lt;font data-sider-select-id=&quot;4615afa2-a15d-46ff-8085-09e00436689a&quot; style=&quot;font-size: 14px;&quot;&gt;Belge Menüsüne Dön&lt;/font&gt;" style="text;html=1;align=center;verticalAlign=middle;resizable=0;points=[];autosize=1;strokeColor=none;fillColor=none;rotation=0;" parent="1" vertex="1">
          <mxGeometry x="-4960" y="1330" width="160" height="30" as="geometry" />
        </mxCell>
        <mxCell id="uusWP2kZoQyk6e6ta9zT-26" value="Seçilecek Dersleri Görüntüle" style="text;whiteSpace=wrap;html=1;rotation=270;" parent="1" vertex="1">
          <mxGeometry x="-7130" y="1445" width="190" height="40" as="geometry" />
        </mxCell>
        <mxCell id="uusWP2kZoQyk6e6ta9zT-27" value="Geri" style="text;html=1;align=center;verticalAlign=middle;resizable=0;points=[];autosize=1;strokeColor=none;fillColor=none;" parent="1" vertex="1">
          <mxGeometry x="-7075" y="1703" width="50" height="30" as="geometry" />
        </mxCell>
        <mxCell id="7eG7Swem1IyPdvQVmkEB-12" value="&lt;font data-sider-select-id=&quot;3cdd4399-2b49-4ecd-b7a4-ae1072c389da&quot; style=&quot;font-size: 18px;&quot;&gt;Kullanıcı Danışman İse&lt;/font&gt;" style="text;html=1;align=center;verticalAlign=middle;resizable=0;points=[];autosize=1;strokeColor=none;fillColor=none;" parent="1" vertex="1">
          <mxGeometry x="660" y="505" width="210" height="40" as="geometry" />
        </mxCell>
        <mxCell id="7eG7Swem1IyPdvQVmkEB-13" value="&lt;font data-sider-select-id=&quot;3cdd4399-2b49-4ecd-b7a4-ae1072c389da&quot; style=&quot;font-size: 18px;&quot;&gt;Kullanıcı İdareci İse&lt;/font&gt;" style="text;html=1;align=center;verticalAlign=middle;resizable=0;points=[];autosize=1;strokeColor=none;fillColor=none;" parent="1" vertex="1">
          <mxGeometry x="2370" y="478" width="180" height="40" as="geometry" />
        </mxCell>
        <mxCell id="HIaP-Ngg1NBtZ_O1qn8a-14" style="edgeStyle=orthogonalEdgeStyle;rounded=0;orthogonalLoop=1;jettySize=auto;html=1;" parent="1" source="7eG7Swem1IyPdvQVmkEB-14" edge="1">
          <mxGeometry relative="1" as="geometry">
            <mxPoint x="280" y="670" as="targetPoint" />
          </mxGeometry>
        </mxCell>
        <mxCell id="2_WJz-mZz8zobtCXucVs-284" style="edgeStyle=orthogonalEdgeStyle;rounded=0;orthogonalLoop=1;jettySize=auto;html=1;" edge="1" parent="1" source="7eG7Swem1IyPdvQVmkEB-14">
          <mxGeometry relative="1" as="geometry">
            <mxPoint x="-2600" y="1000" as="targetPoint" />
            <Array as="points">
              <mxPoint x="140" y="210" />
              <mxPoint x="-2600" y="210" />
            </Array>
          </mxGeometry>
        </mxCell>
        <mxCell id="7eG7Swem1IyPdvQVmkEB-14" value="Hesap Ayarları Menüsü" style="whiteSpace=wrap;html=1;verticalAlign=top;rounded=1;arcSize=10;dashed=0;" parent="1" vertex="1">
          <mxGeometry x="50" y="840" width="120" height="40" as="geometry" />
        </mxCell>
        <mxCell id="HIaP-Ngg1NBtZ_O1qn8a-8" style="edgeStyle=orthogonalEdgeStyle;rounded=0;orthogonalLoop=1;jettySize=auto;html=1;entryX=0.5;entryY=0;entryDx=0;entryDy=0;" parent="1" source="7eG7Swem1IyPdvQVmkEB-15" target="HIaP-Ngg1NBtZ_O1qn8a-3" edge="1">
          <mxGeometry relative="1" as="geometry" />
        </mxCell>
        <mxCell id="7eG7Swem1IyPdvQVmkEB-15" value="Çıkış Yap" style="whiteSpace=wrap;html=1;verticalAlign=top;rounded=1;arcSize=10;dashed=0;" parent="1" vertex="1">
          <mxGeometry x="530" y="841" width="120" height="40" as="geometry" />
        </mxCell>
        <mxCell id="2_WJz-mZz8zobtCXucVs-133" style="edgeStyle=orthogonalEdgeStyle;rounded=0;orthogonalLoop=1;jettySize=auto;html=1;entryX=0.5;entryY=0;entryDx=0;entryDy=0;" edge="1" parent="1" source="7eG7Swem1IyPdvQVmkEB-25" target="2_WJz-mZz8zobtCXucVs-130">
          <mxGeometry relative="1" as="geometry">
            <Array as="points">
              <mxPoint x="-580" y="960" />
              <mxPoint x="-765" y="960" />
            </Array>
          </mxGeometry>
        </mxCell>
        <mxCell id="2_WJz-mZz8zobtCXucVs-134" style="edgeStyle=orthogonalEdgeStyle;rounded=0;orthogonalLoop=1;jettySize=auto;html=1;entryX=0.5;entryY=0;entryDx=0;entryDy=0;" edge="1" parent="1" source="7eG7Swem1IyPdvQVmkEB-25" target="2_WJz-mZz8zobtCXucVs-131">
          <mxGeometry relative="1" as="geometry" />
        </mxCell>
        <mxCell id="2_WJz-mZz8zobtCXucVs-135" style="edgeStyle=orthogonalEdgeStyle;rounded=0;orthogonalLoop=1;jettySize=auto;html=1;" edge="1" parent="1" source="7eG7Swem1IyPdvQVmkEB-25" target="2_WJz-mZz8zobtCXucVs-132">
          <mxGeometry relative="1" as="geometry">
            <Array as="points">
              <mxPoint x="-580" y="960" />
              <mxPoint x="-395" y="960" />
            </Array>
          </mxGeometry>
        </mxCell>
        <mxCell id="2_WJz-mZz8zobtCXucVs-234" style="edgeStyle=orthogonalEdgeStyle;rounded=0;orthogonalLoop=1;jettySize=auto;html=1;entryX=0.5;entryY=0;entryDx=0;entryDy=0;" edge="1" parent="1" source="7eG7Swem1IyPdvQVmkEB-25" target="2_WJz-mZz8zobtCXucVs-233">
          <mxGeometry relative="1" as="geometry">
            <Array as="points">
              <mxPoint x="-580" y="960" />
              <mxPoint x="-205" y="960" />
            </Array>
          </mxGeometry>
        </mxCell>
        <mxCell id="7eG7Swem1IyPdvQVmkEB-25" value="Görüntüleme İşlemleri Menüsü" style="whiteSpace=wrap;html=1;verticalAlign=top;rounded=1;arcSize=10;dashed=0;" parent="1" vertex="1">
          <mxGeometry x="-640" y="840" width="120" height="40" as="geometry" />
        </mxCell>
        <mxCell id="HIaP-Ngg1NBtZ_O1qn8a-26" style="edgeStyle=orthogonalEdgeStyle;rounded=0;orthogonalLoop=1;jettySize=auto;html=1;" parent="1" source="7eG7Swem1IyPdvQVmkEB-37" edge="1">
          <mxGeometry relative="1" as="geometry">
            <mxPoint x="2159.999999999998" y="660" as="targetPoint" />
          </mxGeometry>
        </mxCell>
        <mxCell id="2_WJz-mZz8zobtCXucVs-292" style="edgeStyle=orthogonalEdgeStyle;rounded=0;orthogonalLoop=1;jettySize=auto;html=1;" edge="1" parent="1" source="7eG7Swem1IyPdvQVmkEB-37">
          <mxGeometry relative="1" as="geometry">
            <mxPoint x="150" y="210" as="targetPoint" />
            <Array as="points">
              <mxPoint x="1990" y="210" />
            </Array>
          </mxGeometry>
        </mxCell>
        <mxCell id="7eG7Swem1IyPdvQVmkEB-37" value="Hesap Ayarları Menüsü" style="whiteSpace=wrap;html=1;verticalAlign=top;rounded=1;arcSize=10;dashed=0;" parent="1" vertex="1">
          <mxGeometry x="1970" y="801" width="120" height="40" as="geometry" />
        </mxCell>
        <mxCell id="HIaP-Ngg1NBtZ_O1qn8a-21" style="edgeStyle=orthogonalEdgeStyle;rounded=0;orthogonalLoop=1;jettySize=auto;html=1;" parent="1" source="7eG7Swem1IyPdvQVmkEB-38" target="HIaP-Ngg1NBtZ_O1qn8a-18" edge="1">
          <mxGeometry relative="1" as="geometry" />
        </mxCell>
        <mxCell id="7eG7Swem1IyPdvQVmkEB-38" value="Çıkış Yap" style="whiteSpace=wrap;html=1;verticalAlign=top;rounded=1;arcSize=10;dashed=0;" parent="1" vertex="1">
          <mxGeometry x="2280" y="806" width="120" height="40" as="geometry" />
        </mxCell>
        <mxCell id="7eG7Swem1IyPdvQVmkEB-39" value="Görüntüleme İşlemleri Menüsü" style="whiteSpace=wrap;html=1;verticalAlign=top;rounded=1;arcSize=10;dashed=0;" parent="1" vertex="1">
          <mxGeometry x="1380" y="801" width="120" height="40" as="geometry" />
        </mxCell>
        <mxCell id="HIaP-Ngg1NBtZ_O1qn8a-37" style="edgeStyle=orthogonalEdgeStyle;rounded=0;orthogonalLoop=1;jettySize=auto;html=1;" parent="1" source="7eG7Swem1IyPdvQVmkEB-44" edge="1">
          <mxGeometry relative="1" as="geometry">
            <mxPoint x="4270" y="700" as="targetPoint" />
          </mxGeometry>
        </mxCell>
        <mxCell id="7eG7Swem1IyPdvQVmkEB-44" value="Hesap Ayarları Menüsü" style="whiteSpace=wrap;html=1;verticalAlign=top;rounded=1;arcSize=10;dashed=0;" parent="1" vertex="1">
          <mxGeometry x="4060" y="845" width="120" height="40" as="geometry" />
        </mxCell>
        <mxCell id="HIaP-Ngg1NBtZ_O1qn8a-33" style="edgeStyle=orthogonalEdgeStyle;rounded=0;orthogonalLoop=1;jettySize=auto;html=1;entryX=0.5;entryY=0;entryDx=0;entryDy=0;" parent="1" source="7eG7Swem1IyPdvQVmkEB-45" target="HIaP-Ngg1NBtZ_O1qn8a-30" edge="1">
          <mxGeometry relative="1" as="geometry" />
        </mxCell>
        <mxCell id="7eG7Swem1IyPdvQVmkEB-45" value="Çıkış Yap" style="whiteSpace=wrap;html=1;verticalAlign=top;rounded=1;arcSize=10;dashed=0;" parent="1" vertex="1">
          <mxGeometry x="4520" y="840" width="120" height="40" as="geometry" />
        </mxCell>
        <mxCell id="7eG7Swem1IyPdvQVmkEB-46" value="Görüntüleme İşlemleri Menüsü" style="whiteSpace=wrap;html=1;verticalAlign=top;rounded=1;arcSize=10;dashed=0;" parent="1" vertex="1">
          <mxGeometry x="3550" y="840" width="120" height="40" as="geometry" />
        </mxCell>
        <mxCell id="HIaP-Ngg1NBtZ_O1qn8a-1" value="" style="ellipse;html=1;shape=endState;fillColor=strokeColor;" parent="1" vertex="1">
          <mxGeometry x="574.9999999999999" y="1295" width="30" height="20" as="geometry" />
        </mxCell>
        <mxCell id="HIaP-Ngg1NBtZ_O1qn8a-2" value="" style="edgeStyle=orthogonalEdgeStyle;rounded=0;orthogonalLoop=1;jettySize=auto;html=1;" parent="1" source="HIaP-Ngg1NBtZ_O1qn8a-3" target="HIaP-Ngg1NBtZ_O1qn8a-1" edge="1">
          <mxGeometry relative="1" as="geometry">
            <Array as="points">
              <mxPoint x="590" y="1129" />
              <mxPoint x="590" y="1298" />
            </Array>
          </mxGeometry>
        </mxCell>
        <mxCell id="HIaP-Ngg1NBtZ_O1qn8a-10" style="edgeStyle=orthogonalEdgeStyle;rounded=0;orthogonalLoop=1;jettySize=auto;html=1;entryX=1;entryY=0.5;entryDx=0;entryDy=0;" parent="1" source="HIaP-Ngg1NBtZ_O1qn8a-3" target="YpNgMTdwTrCu8pLs_j0M-6" edge="1">
          <mxGeometry relative="1" as="geometry">
            <Array as="points">
              <mxPoint x="790" y="1129" />
              <mxPoint x="790" y="665" />
            </Array>
          </mxGeometry>
        </mxCell>
        <mxCell id="HIaP-Ngg1NBtZ_O1qn8a-3" value="&lt;span data-sider-select-id=&quot;36403c2a-30e3-46e4-a1fe-6f9c7752840d&quot; style=&quot;font-size: 10px;&quot;&gt;Çıkış Yapılsın mı?&lt;/span&gt;" style="rhombus;whiteSpace=wrap;html=1;fontColor=#000000;fillColor=#ffffc0;strokeColor=#ff0000;" parent="1" vertex="1">
          <mxGeometry x="525.12" y="1080" width="129.75" height="98" as="geometry" />
        </mxCell>
        <mxCell id="HIaP-Ngg1NBtZ_O1qn8a-4" value="Evet" style="text;html=1;align=center;verticalAlign=middle;resizable=0;points=[];autosize=1;strokeColor=none;fillColor=none;" parent="1" vertex="1">
          <mxGeometry x="579.9999999999999" y="1206" width="50" height="30" as="geometry" />
        </mxCell>
        <mxCell id="HIaP-Ngg1NBtZ_O1qn8a-5" value="Hayır" style="text;html=1;align=center;verticalAlign=middle;resizable=0;points=[];autosize=1;strokeColor=none;fillColor=none;" parent="1" vertex="1">
          <mxGeometry x="659.9999999999999" y="1103" width="50" height="30" as="geometry" />
        </mxCell>
        <mxCell id="HIaP-Ngg1NBtZ_O1qn8a-11" value="Öğretim Elemanı Ana Ekranı Dön&lt;div&gt;&lt;br&gt;&lt;/div&gt;" style="text;whiteSpace=wrap;html=1;rotation=90;" parent="1" vertex="1">
          <mxGeometry x="700" y="893" width="190" height="40" as="geometry" />
        </mxCell>
        <mxCell id="HIaP-Ngg1NBtZ_O1qn8a-15" value="Geri" style="text;html=1;align=center;verticalAlign=middle;resizable=0;points=[];autosize=1;strokeColor=none;fillColor=none;" parent="1" vertex="1">
          <mxGeometry x="205" y="835" width="50" height="30" as="geometry" />
        </mxCell>
        <mxCell id="HIaP-Ngg1NBtZ_O1qn8a-16" value="" style="ellipse;html=1;shape=endState;fillColor=strokeColor;" parent="1" vertex="1">
          <mxGeometry x="2325" y="1211" width="30" height="20" as="geometry" />
        </mxCell>
        <mxCell id="HIaP-Ngg1NBtZ_O1qn8a-17" value="" style="edgeStyle=orthogonalEdgeStyle;rounded=0;orthogonalLoop=1;jettySize=auto;html=1;" parent="1" source="HIaP-Ngg1NBtZ_O1qn8a-18" target="HIaP-Ngg1NBtZ_O1qn8a-16" edge="1">
          <mxGeometry relative="1" as="geometry">
            <Array as="points">
              <mxPoint x="2344.88" y="1040" />
              <mxPoint x="2344.88" y="1209" />
            </Array>
          </mxGeometry>
        </mxCell>
        <mxCell id="HIaP-Ngg1NBtZ_O1qn8a-24" style="edgeStyle=orthogonalEdgeStyle;rounded=0;orthogonalLoop=1;jettySize=auto;html=1;entryX=1;entryY=0.25;entryDx=0;entryDy=0;" parent="1" source="HIaP-Ngg1NBtZ_O1qn8a-18" target="YpNgMTdwTrCu8pLs_j0M-16" edge="1">
          <mxGeometry relative="1" as="geometry">
            <Array as="points">
              <mxPoint x="2550" y="1050" />
              <mxPoint x="2550" y="659" />
            </Array>
          </mxGeometry>
        </mxCell>
        <mxCell id="HIaP-Ngg1NBtZ_O1qn8a-18" value="&lt;span data-sider-select-id=&quot;36403c2a-30e3-46e4-a1fe-6f9c7752840d&quot; style=&quot;font-size: 10px;&quot;&gt;Çıkış Yapılsın mı?&lt;/span&gt;" style="rhombus;whiteSpace=wrap;html=1;fontColor=#000000;fillColor=#ffffc0;strokeColor=#ff0000;" parent="1" vertex="1">
          <mxGeometry x="2275.13" y="1001" width="129.75" height="98" as="geometry" />
        </mxCell>
        <mxCell id="HIaP-Ngg1NBtZ_O1qn8a-19" value="Evet" style="text;html=1;align=center;verticalAlign=middle;resizable=0;points=[];autosize=1;strokeColor=none;fillColor=none;" parent="1" vertex="1">
          <mxGeometry x="2334.88" y="1117" width="50" height="30" as="geometry" />
        </mxCell>
        <mxCell id="HIaP-Ngg1NBtZ_O1qn8a-20" value="Hayır" style="text;html=1;align=center;verticalAlign=middle;resizable=0;points=[];autosize=1;strokeColor=none;fillColor=none;" parent="1" vertex="1">
          <mxGeometry x="2430" y="1018" width="50" height="30" as="geometry" />
        </mxCell>
        <mxCell id="HIaP-Ngg1NBtZ_O1qn8a-25" value="Danışman Ana Ekranına Dön" style="text;whiteSpace=wrap;html=1;rotation=90;" parent="1" vertex="1">
          <mxGeometry x="2500" y="835" width="150" height="40" as="geometry" />
        </mxCell>
        <mxCell id="HIaP-Ngg1NBtZ_O1qn8a-27" value="Geri" style="text;html=1;align=center;verticalAlign=middle;resizable=0;points=[];autosize=1;strokeColor=none;fillColor=none;" parent="1" vertex="1">
          <mxGeometry x="2115" y="798" width="50" height="30" as="geometry" />
        </mxCell>
        <mxCell id="HIaP-Ngg1NBtZ_O1qn8a-28" value="" style="ellipse;html=1;shape=endState;fillColor=strokeColor;" parent="1" vertex="1">
          <mxGeometry x="4564.99" y="1256" width="30" height="20" as="geometry" />
        </mxCell>
        <mxCell id="HIaP-Ngg1NBtZ_O1qn8a-29" value="" style="edgeStyle=orthogonalEdgeStyle;rounded=0;orthogonalLoop=1;jettySize=auto;html=1;" parent="1" source="HIaP-Ngg1NBtZ_O1qn8a-30" target="HIaP-Ngg1NBtZ_O1qn8a-28" edge="1">
          <mxGeometry relative="1" as="geometry">
            <Array as="points">
              <mxPoint x="4589.75" y="1082" />
              <mxPoint x="4589.75" y="1251" />
            </Array>
          </mxGeometry>
        </mxCell>
        <mxCell id="HIaP-Ngg1NBtZ_O1qn8a-35" style="edgeStyle=orthogonalEdgeStyle;rounded=0;orthogonalLoop=1;jettySize=auto;html=1;entryX=1;entryY=0.5;entryDx=0;entryDy=0;" parent="1" source="HIaP-Ngg1NBtZ_O1qn8a-30" target="YpNgMTdwTrCu8pLs_j0M-18" edge="1">
          <mxGeometry relative="1" as="geometry">
            <Array as="points">
              <mxPoint x="4740" y="1109" />
              <mxPoint x="4740" y="695" />
            </Array>
          </mxGeometry>
        </mxCell>
        <mxCell id="HIaP-Ngg1NBtZ_O1qn8a-30" value="&lt;span data-sider-select-id=&quot;36403c2a-30e3-46e4-a1fe-6f9c7752840d&quot; style=&quot;font-size: 10px;&quot;&gt;Çıkış Yapılsın mı?&lt;/span&gt;" style="rhombus;whiteSpace=wrap;html=1;fontColor=#000000;fillColor=#ffffc0;strokeColor=#ff0000;" parent="1" vertex="1">
          <mxGeometry x="4515.12" y="1060" width="129.75" height="98" as="geometry" />
        </mxCell>
        <mxCell id="HIaP-Ngg1NBtZ_O1qn8a-31" value="Evet" style="text;html=1;align=center;verticalAlign=middle;resizable=0;points=[];autosize=1;strokeColor=none;fillColor=none;" parent="1" vertex="1">
          <mxGeometry x="4579.75" y="1159" width="50" height="30" as="geometry" />
        </mxCell>
        <mxCell id="HIaP-Ngg1NBtZ_O1qn8a-32" value="Hayır" style="text;html=1;align=center;verticalAlign=middle;resizable=0;points=[];autosize=1;strokeColor=none;fillColor=none;" parent="1" vertex="1">
          <mxGeometry x="4644.87" y="1075" width="50" height="30" as="geometry" />
        </mxCell>
        <mxCell id="HIaP-Ngg1NBtZ_O1qn8a-36" value="İdareci Ana Ekranına Dön" style="text;whiteSpace=wrap;html=1;rotation=90;" parent="1" vertex="1">
          <mxGeometry x="4694.87" y="895" width="130" height="40" as="geometry" />
        </mxCell>
        <mxCell id="HIaP-Ngg1NBtZ_O1qn8a-38" value="Geri" style="text;html=1;align=center;verticalAlign=middle;resizable=0;points=[];autosize=1;strokeColor=none;fillColor=none;" parent="1" vertex="1">
          <mxGeometry x="4205" y="838" width="50" height="30" as="geometry" />
        </mxCell>
        <mxCell id="2_WJz-mZz8zobtCXucVs-123" style="edgeStyle=orthogonalEdgeStyle;rounded=0;orthogonalLoop=1;jettySize=auto;html=1;exitX=0;exitY=0.25;exitDx=0;exitDy=0;" edge="1" parent="1" source="j1WZlLF4a-4qiutJMyGu-1">
          <mxGeometry relative="1" as="geometry">
            <mxPoint x="-1360.000000000001" y="848.1515151515152" as="targetPoint" />
          </mxGeometry>
        </mxCell>
        <mxCell id="j1WZlLF4a-4qiutJMyGu-1" value="Derslerim Menüsü" style="whiteSpace=wrap;html=1;verticalAlign=top;rounded=1;arcSize=10;dashed=0;" parent="1" vertex="1">
          <mxGeometry x="-1140" y="838" width="120" height="40" as="geometry" />
        </mxCell>
        <mxCell id="j1WZlLF4a-4qiutJMyGu-4" style="edgeStyle=orthogonalEdgeStyle;rounded=0;orthogonalLoop=1;jettySize=auto;html=1;entryX=0.5;entryY=0;entryDx=0;entryDy=0;" parent="1" source="j1WZlLF4a-4qiutJMyGu-1" target="j1WZlLF4a-4qiutJMyGu-21" edge="1">
          <mxGeometry relative="1" as="geometry">
            <mxPoint x="-1080.0049999999983" y="989" as="targetPoint" />
          </mxGeometry>
        </mxCell>
        <mxCell id="j1WZlLF4a-4qiutJMyGu-6" value="" style="edgeStyle=none;orthogonalLoop=1;jettySize=auto;html=1;rounded=0;entryX=0;entryY=0.5;entryDx=0;entryDy=0;" parent="1" target="YpNgMTdwTrCu8pLs_j0M-6" edge="1">
          <mxGeometry width="100" relative="1" as="geometry">
            <mxPoint x="-1360" y="860" as="sourcePoint" />
            <mxPoint x="-1240" y="860" as="targetPoint" />
            <Array as="points">
              <mxPoint x="-1360" y="880" />
              <mxPoint x="-1360" y="830" />
              <mxPoint x="-1360" y="665" />
            </Array>
          </mxGeometry>
        </mxCell>
        <mxCell id="j1WZlLF4a-4qiutJMyGu-25" style="edgeStyle=orthogonalEdgeStyle;rounded=0;orthogonalLoop=1;jettySize=auto;html=1;entryX=0;entryY=0.5;entryDx=0;entryDy=0;" parent="1" source="j1WZlLF4a-4qiutJMyGu-15" target="j1WZlLF4a-4qiutJMyGu-1" edge="1">
          <mxGeometry relative="1" as="geometry">
            <mxPoint x="-1210" y="1080" as="targetPoint" />
            <Array as="points">
              <mxPoint x="-1200" y="1217" />
              <mxPoint x="-1200" y="858" />
            </Array>
          </mxGeometry>
        </mxCell>
        <mxCell id="j1WZlLF4a-4qiutJMyGu-27" style="edgeStyle=orthogonalEdgeStyle;rounded=0;orthogonalLoop=1;jettySize=auto;html=1;entryX=0.5;entryY=0;entryDx=0;entryDy=0;" parent="1" source="j1WZlLF4a-4qiutJMyGu-15" target="j1WZlLF4a-4qiutJMyGu-17" edge="1">
          <mxGeometry relative="1" as="geometry" />
        </mxCell>
        <mxCell id="j1WZlLF4a-4qiutJMyGu-15" value="&lt;span data-sider-select-id=&quot;36403c2a-30e3-46e4-a1fe-6f9c7752840d&quot; style=&quot;font-size: 10px;&quot;&gt;Atanmış Ders Var MI?&lt;/span&gt;&lt;div&gt;&lt;span data-sider-select-id=&quot;36403c2a-30e3-46e4-a1fe-6f9c7752840d&quot; style=&quot;font-size: 10px;&quot;&gt;&lt;br&gt;&lt;/span&gt;&lt;/div&gt;" style="rhombus;whiteSpace=wrap;html=1;fontColor=#000000;fillColor=#ffffc0;strokeColor=#ff0000;" parent="1" vertex="1">
          <mxGeometry x="-1144.88" y="1168" width="129.75" height="98" as="geometry" />
        </mxCell>
        <mxCell id="j1WZlLF4a-4qiutJMyGu-16" value="Hayır" style="text;html=1;align=center;verticalAlign=middle;resizable=0;points=[];autosize=1;strokeColor=none;fillColor=none;" parent="1" vertex="1">
          <mxGeometry x="-1194.88" y="1196" width="50" height="30" as="geometry" />
        </mxCell>
        <mxCell id="j1WZlLF4a-4qiutJMyGu-31" style="edgeStyle=orthogonalEdgeStyle;rounded=0;orthogonalLoop=1;jettySize=auto;html=1;" parent="1" source="j1WZlLF4a-4qiutJMyGu-17" edge="1">
          <mxGeometry relative="1" as="geometry">
            <mxPoint x="-1080" y="1520" as="targetPoint" />
          </mxGeometry>
        </mxCell>
        <mxCell id="j1WZlLF4a-4qiutJMyGu-17" value="Atanmış Dersleri Göster" style="html=1;align=center;verticalAlign=top;rounded=1;absoluteArcSize=1;arcSize=10;dashed=0;whiteSpace=wrap;fillColor=#f8cecc;strokeColor=#b85450;" parent="1" vertex="1">
          <mxGeometry x="-1150" y="1365" width="140" height="40" as="geometry" />
        </mxCell>
        <mxCell id="j1WZlLF4a-4qiutJMyGu-23" style="edgeStyle=orthogonalEdgeStyle;rounded=0;orthogonalLoop=1;jettySize=auto;html=1;entryX=0.5;entryY=0;entryDx=0;entryDy=0;" parent="1" source="j1WZlLF4a-4qiutJMyGu-21" target="j1WZlLF4a-4qiutJMyGu-15" edge="1">
          <mxGeometry relative="1" as="geometry">
            <mxPoint x="-1080" y="1080" as="targetPoint" />
          </mxGeometry>
        </mxCell>
        <mxCell id="j1WZlLF4a-4qiutJMyGu-21" value="Atanmış Dersler Menüsü" style="whiteSpace=wrap;html=1;verticalAlign=top;rounded=1;arcSize=10;dashed=0;" parent="1" vertex="1">
          <mxGeometry x="-1140" y="1000" width="120" height="40" as="geometry" />
        </mxCell>
        <mxCell id="j1WZlLF4a-4qiutJMyGu-28" value="Evet" style="text;html=1;align=center;verticalAlign=middle;resizable=0;points=[];autosize=1;strokeColor=none;fillColor=none;" parent="1" vertex="1">
          <mxGeometry x="-1085" y="1298" width="50" height="30" as="geometry" />
        </mxCell>
        <mxCell id="j1WZlLF4a-4qiutJMyGu-29" style="edgeStyle=orthogonalEdgeStyle;rounded=0;orthogonalLoop=1;jettySize=auto;html=1;" parent="1" source="j1WZlLF4a-4qiutJMyGu-17" edge="1">
          <mxGeometry relative="1" as="geometry">
            <mxPoint x="-1200" y="1222" as="targetPoint" />
          </mxGeometry>
        </mxCell>
        <mxCell id="j1WZlLF4a-4qiutJMyGu-30" value="Geri" style="text;html=1;align=center;verticalAlign=middle;resizable=0;points=[];autosize=1;strokeColor=none;fillColor=none;" parent="1" vertex="1">
          <mxGeometry x="-1200" y="1360" width="50" height="30" as="geometry" />
        </mxCell>
        <mxCell id="j1WZlLF4a-4qiutJMyGu-43" style="edgeStyle=orthogonalEdgeStyle;rounded=0;orthogonalLoop=1;jettySize=auto;html=1;" parent="1" source="j1WZlLF4a-4qiutJMyGu-32" target="j1WZlLF4a-4qiutJMyGu-37" edge="1">
          <mxGeometry relative="1" as="geometry">
            <Array as="points">
              <mxPoint x="-1080" y="1640" />
              <mxPoint x="-1670" y="1640" />
            </Array>
          </mxGeometry>
        </mxCell>
        <mxCell id="2_WJz-mZz8zobtCXucVs-5" style="edgeStyle=orthogonalEdgeStyle;rounded=0;orthogonalLoop=1;jettySize=auto;html=1;entryX=0.5;entryY=0;entryDx=0;entryDy=0;" edge="1" parent="1" source="j1WZlLF4a-4qiutJMyGu-32" target="j1WZlLF4a-4qiutJMyGu-41">
          <mxGeometry relative="1" as="geometry">
            <Array as="points">
              <mxPoint x="-1080" y="1640" />
              <mxPoint x="-1370" y="1640" />
            </Array>
          </mxGeometry>
        </mxCell>
        <mxCell id="2_WJz-mZz8zobtCXucVs-6" style="edgeStyle=orthogonalEdgeStyle;rounded=0;orthogonalLoop=1;jettySize=auto;html=1;entryX=0.5;entryY=0;entryDx=0;entryDy=0;" edge="1" parent="1" source="j1WZlLF4a-4qiutJMyGu-32" target="j1WZlLF4a-4qiutJMyGu-42">
          <mxGeometry relative="1" as="geometry">
            <Array as="points">
              <mxPoint x="-1080" y="1640" />
              <mxPoint x="-1205" y="1640" />
            </Array>
          </mxGeometry>
        </mxCell>
        <mxCell id="2_WJz-mZz8zobtCXucVs-7" style="edgeStyle=orthogonalEdgeStyle;rounded=0;orthogonalLoop=1;jettySize=auto;html=1;entryX=0.5;entryY=0;entryDx=0;entryDy=0;" edge="1" parent="1" source="j1WZlLF4a-4qiutJMyGu-32" target="j1WZlLF4a-4qiutJMyGu-38">
          <mxGeometry relative="1" as="geometry">
            <Array as="points">
              <mxPoint x="-1080" y="1640" />
              <mxPoint x="-1520" y="1640" />
            </Array>
          </mxGeometry>
        </mxCell>
        <mxCell id="2_WJz-mZz8zobtCXucVs-8" style="edgeStyle=orthogonalEdgeStyle;rounded=0;orthogonalLoop=1;jettySize=auto;html=1;entryX=0.5;entryY=0;entryDx=0;entryDy=0;" edge="1" parent="1" source="j1WZlLF4a-4qiutJMyGu-32" target="j1WZlLF4a-4qiutJMyGu-34">
          <mxGeometry relative="1" as="geometry">
            <Array as="points">
              <mxPoint x="-1080" y="1640" />
              <mxPoint x="-1820" y="1640" />
            </Array>
          </mxGeometry>
        </mxCell>
        <mxCell id="2_WJz-mZz8zobtCXucVs-15" style="edgeStyle=orthogonalEdgeStyle;rounded=0;orthogonalLoop=1;jettySize=auto;html=1;entryX=0.5;entryY=0;entryDx=0;entryDy=0;" edge="1" parent="1" source="j1WZlLF4a-4qiutJMyGu-32" target="2_WJz-mZz8zobtCXucVs-3">
          <mxGeometry relative="1" as="geometry">
            <Array as="points">
              <mxPoint x="-1080" y="1640" />
              <mxPoint x="-1025" y="1640" />
            </Array>
          </mxGeometry>
        </mxCell>
        <mxCell id="2_WJz-mZz8zobtCXucVs-18" style="edgeStyle=orthogonalEdgeStyle;rounded=0;orthogonalLoop=1;jettySize=auto;html=1;entryX=0.5;entryY=0;entryDx=0;entryDy=0;" edge="1" parent="1" source="j1WZlLF4a-4qiutJMyGu-32" target="2_WJz-mZz8zobtCXucVs-2">
          <mxGeometry relative="1" as="geometry">
            <Array as="points">
              <mxPoint x="-1080" y="1640" />
              <mxPoint x="-845" y="1640" />
            </Array>
          </mxGeometry>
        </mxCell>
        <mxCell id="2_WJz-mZz8zobtCXucVs-20" style="edgeStyle=orthogonalEdgeStyle;rounded=0;orthogonalLoop=1;jettySize=auto;html=1;entryX=0.5;entryY=0;entryDx=0;entryDy=0;" edge="1" parent="1" source="j1WZlLF4a-4qiutJMyGu-32" target="2_WJz-mZz8zobtCXucVs-1">
          <mxGeometry relative="1" as="geometry">
            <Array as="points">
              <mxPoint x="-1080" y="1640" />
              <mxPoint x="-665" y="1640" />
            </Array>
          </mxGeometry>
        </mxCell>
        <mxCell id="2_WJz-mZz8zobtCXucVs-24" style="edgeStyle=orthogonalEdgeStyle;rounded=0;orthogonalLoop=1;jettySize=auto;html=1;" edge="1" parent="1" source="j1WZlLF4a-4qiutJMyGu-32" target="2_WJz-mZz8zobtCXucVs-22">
          <mxGeometry relative="1" as="geometry">
            <Array as="points">
              <mxPoint x="-1080" y="1640" />
              <mxPoint x="-305" y="1640" />
            </Array>
          </mxGeometry>
        </mxCell>
        <mxCell id="2_WJz-mZz8zobtCXucVs-25" style="edgeStyle=orthogonalEdgeStyle;rounded=0;orthogonalLoop=1;jettySize=auto;html=1;entryX=0.5;entryY=0;entryDx=0;entryDy=0;" edge="1" parent="1" source="j1WZlLF4a-4qiutJMyGu-32" target="2_WJz-mZz8zobtCXucVs-4">
          <mxGeometry relative="1" as="geometry">
            <Array as="points">
              <mxPoint x="-1080" y="1640" />
              <mxPoint x="-125" y="1640" />
            </Array>
          </mxGeometry>
        </mxCell>
        <mxCell id="j1WZlLF4a-4qiutJMyGu-32" value="İşlemler(Her Derse Ait)" style="whiteSpace=wrap;html=1;verticalAlign=top;rounded=1;arcSize=10;dashed=0;" parent="1" vertex="1">
          <mxGeometry x="-1140.0100000000002" y="1520" width="120" height="40" as="geometry" />
        </mxCell>
        <mxCell id="2_WJz-mZz8zobtCXucVs-61" style="edgeStyle=orthogonalEdgeStyle;rounded=0;orthogonalLoop=1;jettySize=auto;html=1;" edge="1" parent="1" source="j1WZlLF4a-4qiutJMyGu-34">
          <mxGeometry relative="1" as="geometry">
            <mxPoint x="-1820" y="1830" as="targetPoint" />
          </mxGeometry>
        </mxCell>
        <mxCell id="2_WJz-mZz8zobtCXucVs-83" style="edgeStyle=orthogonalEdgeStyle;rounded=0;orthogonalLoop=1;jettySize=auto;html=1;exitX=0.25;exitY=1;exitDx=0;exitDy=0;entryX=0.5;entryY=0;entryDx=0;entryDy=0;" edge="1" parent="1" source="j1WZlLF4a-4qiutJMyGu-34" target="2_WJz-mZz8zobtCXucVs-78">
          <mxGeometry relative="1" as="geometry">
            <Array as="points">
              <mxPoint x="-1855" y="1880" />
              <mxPoint x="-2035" y="1880" />
            </Array>
          </mxGeometry>
        </mxCell>
        <mxCell id="2_WJz-mZz8zobtCXucVs-84" style="edgeStyle=orthogonalEdgeStyle;rounded=0;orthogonalLoop=1;jettySize=auto;html=1;exitX=0.75;exitY=1;exitDx=0;exitDy=0;" edge="1" parent="1" source="j1WZlLF4a-4qiutJMyGu-34" target="2_WJz-mZz8zobtCXucVs-82">
          <mxGeometry relative="1" as="geometry">
            <Array as="points">
              <mxPoint x="-1785" y="1880" />
              <mxPoint x="-1890" y="1880" />
            </Array>
          </mxGeometry>
        </mxCell>
        <mxCell id="j1WZlLF4a-4qiutJMyGu-34" value="Detayları Göster" style="html=1;align=center;verticalAlign=top;rounded=1;absoluteArcSize=1;arcSize=10;dashed=0;whiteSpace=wrap;fillColor=#f8cecc;strokeColor=#b85450;" parent="1" vertex="1">
          <mxGeometry x="-1890" y="1680" width="140" height="40" as="geometry" />
        </mxCell>
        <mxCell id="2_WJz-mZz8zobtCXucVs-60" style="edgeStyle=orthogonalEdgeStyle;rounded=0;orthogonalLoop=1;jettySize=auto;html=1;" edge="1" parent="1" source="j1WZlLF4a-4qiutJMyGu-37">
          <mxGeometry relative="1" as="geometry">
            <mxPoint x="-1670" y="1830" as="targetPoint" />
          </mxGeometry>
        </mxCell>
        <mxCell id="2_WJz-mZz8zobtCXucVs-100" style="edgeStyle=orthogonalEdgeStyle;rounded=0;orthogonalLoop=1;jettySize=auto;html=1;exitX=0.75;exitY=1;exitDx=0;exitDy=0;entryX=0.5;entryY=0;entryDx=0;entryDy=0;" edge="1" parent="1" source="j1WZlLF4a-4qiutJMyGu-37" target="2_WJz-mZz8zobtCXucVs-93">
          <mxGeometry relative="1" as="geometry">
            <mxPoint x="-1635" y="1820" as="targetPoint" />
            <Array as="points">
              <mxPoint x="-1635" y="1880" />
              <mxPoint x="-1510" y="1880" />
            </Array>
          </mxGeometry>
        </mxCell>
        <mxCell id="2_WJz-mZz8zobtCXucVs-104" style="edgeStyle=orthogonalEdgeStyle;rounded=0;orthogonalLoop=1;jettySize=auto;html=1;exitX=0.75;exitY=1;exitDx=0;exitDy=0;" edge="1" parent="1" source="j1WZlLF4a-4qiutJMyGu-37" target="2_WJz-mZz8zobtCXucVs-94">
          <mxGeometry relative="1" as="geometry">
            <Array as="points">
              <mxPoint x="-1635" y="1880" />
              <mxPoint x="-1360" y="1880" />
            </Array>
          </mxGeometry>
        </mxCell>
        <mxCell id="2_WJz-mZz8zobtCXucVs-105" style="edgeStyle=orthogonalEdgeStyle;rounded=0;orthogonalLoop=1;jettySize=auto;html=1;exitX=0.75;exitY=1;exitDx=0;exitDy=0;" edge="1" parent="1" source="j1WZlLF4a-4qiutJMyGu-37" target="2_WJz-mZz8zobtCXucVs-95">
          <mxGeometry relative="1" as="geometry">
            <Array as="points">
              <mxPoint x="-1635" y="1880" />
              <mxPoint x="-1210" y="1880" />
            </Array>
          </mxGeometry>
        </mxCell>
        <mxCell id="2_WJz-mZz8zobtCXucVs-106" style="edgeStyle=orthogonalEdgeStyle;rounded=0;orthogonalLoop=1;jettySize=auto;html=1;exitX=0.75;exitY=1;exitDx=0;exitDy=0;entryX=0.5;entryY=0;entryDx=0;entryDy=0;" edge="1" parent="1" source="j1WZlLF4a-4qiutJMyGu-37" target="2_WJz-mZz8zobtCXucVs-92">
          <mxGeometry relative="1" as="geometry">
            <mxPoint x="-1635" y="1910" as="targetPoint" />
            <Array as="points">
              <mxPoint x="-1635" y="1880" />
              <mxPoint x="-1660" y="1880" />
            </Array>
          </mxGeometry>
        </mxCell>
        <mxCell id="2_WJz-mZz8zobtCXucVs-109" style="edgeStyle=orthogonalEdgeStyle;rounded=0;orthogonalLoop=1;jettySize=auto;html=1;exitX=0.75;exitY=1;exitDx=0;exitDy=0;" edge="1" parent="1" source="j1WZlLF4a-4qiutJMyGu-37" target="2_WJz-mZz8zobtCXucVs-108">
          <mxGeometry relative="1" as="geometry">
            <Array as="points">
              <mxPoint x="-1635" y="1880" />
              <mxPoint x="-1070" y="1880" />
            </Array>
          </mxGeometry>
        </mxCell>
        <mxCell id="j1WZlLF4a-4qiutJMyGu-37" value="Not Giriş Ekranını Göster" style="html=1;align=center;verticalAlign=top;rounded=1;absoluteArcSize=1;arcSize=10;dashed=0;whiteSpace=wrap;fillColor=#f8cecc;strokeColor=#b85450;" parent="1" vertex="1">
          <mxGeometry x="-1740" y="1680" width="140" height="40" as="geometry" />
        </mxCell>
        <mxCell id="2_WJz-mZz8zobtCXucVs-57" style="edgeStyle=orthogonalEdgeStyle;rounded=0;orthogonalLoop=1;jettySize=auto;html=1;" edge="1" parent="1" source="j1WZlLF4a-4qiutJMyGu-38">
          <mxGeometry relative="1" as="geometry">
            <mxPoint x="-1520" y="1830" as="targetPoint" />
          </mxGeometry>
        </mxCell>
        <mxCell id="j1WZlLF4a-4qiutJMyGu-38" value="Yoklama Raporu Görüntüle / Yükle" style="html=1;align=center;verticalAlign=top;rounded=1;absoluteArcSize=1;arcSize=10;dashed=0;whiteSpace=wrap;fillColor=#f8cecc;strokeColor=#b85450;" parent="1" vertex="1">
          <mxGeometry x="-1590" y="1680" width="140" height="40" as="geometry" />
        </mxCell>
        <mxCell id="2_WJz-mZz8zobtCXucVs-56" style="edgeStyle=orthogonalEdgeStyle;rounded=0;orthogonalLoop=1;jettySize=auto;html=1;" edge="1" parent="1" source="j1WZlLF4a-4qiutJMyGu-41">
          <mxGeometry relative="1" as="geometry">
            <mxPoint x="-1370" y="1830" as="targetPoint" />
          </mxGeometry>
        </mxCell>
        <mxCell id="j1WZlLF4a-4qiutJMyGu-41" value="Sınıf Listesini Görüntüle" style="html=1;align=center;verticalAlign=top;rounded=1;absoluteArcSize=1;arcSize=10;dashed=0;whiteSpace=wrap;fillColor=#f8cecc;strokeColor=#b85450;" parent="1" vertex="1">
          <mxGeometry x="-1440" y="1680" width="140" height="40" as="geometry" />
        </mxCell>
        <mxCell id="2_WJz-mZz8zobtCXucVs-53" style="edgeStyle=orthogonalEdgeStyle;rounded=0;orthogonalLoop=1;jettySize=auto;html=1;" edge="1" parent="1" source="j1WZlLF4a-4qiutJMyGu-42">
          <mxGeometry relative="1" as="geometry">
            <mxPoint x="-1205" y="1840" as="targetPoint" />
          </mxGeometry>
        </mxCell>
        <mxCell id="j1WZlLF4a-4qiutJMyGu-42" value="Devam Listesi(Haftalık,Aylık,Dönemlik)" style="html=1;align=center;verticalAlign=top;rounded=1;absoluteArcSize=1;arcSize=10;dashed=0;whiteSpace=wrap;fillColor=#f8cecc;strokeColor=#b85450;" parent="1" vertex="1">
          <mxGeometry x="-1290" y="1680" width="170" height="40" as="geometry" />
        </mxCell>
        <mxCell id="j1WZlLF4a-4qiutJMyGu-52" style="edgeStyle=orthogonalEdgeStyle;rounded=0;orthogonalLoop=1;jettySize=auto;html=1;" parent="1" source="j1WZlLF4a-4qiutJMyGu-48" edge="1">
          <mxGeometry relative="1" as="geometry">
            <mxPoint x="-6530" y="1510" as="targetPoint" />
            <Array as="points">
              <mxPoint x="-6920" y="1440" />
              <mxPoint x="-6530" y="1440" />
            </Array>
          </mxGeometry>
        </mxCell>
        <mxCell id="j1WZlLF4a-4qiutJMyGu-48" value="Zorunlu Dersleri Al" style="html=1;align=center;verticalAlign=top;rounded=1;absoluteArcSize=1;arcSize=10;dashed=0;whiteSpace=wrap;fillColor=#f8cecc;strokeColor=#b85450;" parent="1" vertex="1">
          <mxGeometry x="-6990" y="1315" width="140" height="40" as="geometry" />
        </mxCell>
        <mxCell id="2_WJz-mZz8zobtCXucVs-50" style="edgeStyle=orthogonalEdgeStyle;rounded=0;orthogonalLoop=1;jettySize=auto;html=1;" edge="1" parent="1" source="2_WJz-mZz8zobtCXucVs-1">
          <mxGeometry relative="1" as="geometry">
            <mxPoint x="-665" y="1840" as="targetPoint" />
          </mxGeometry>
        </mxCell>
        <mxCell id="2_WJz-mZz8zobtCXucVs-1" value="Final Sınav Yoklama Listesi&lt;div&gt;Görüntüle&lt;/div&gt;" style="html=1;align=center;verticalAlign=top;rounded=1;absoluteArcSize=1;arcSize=10;dashed=0;whiteSpace=wrap;fillColor=#f8cecc;strokeColor=#b85450;" vertex="1" parent="1">
          <mxGeometry x="-750" y="1680" width="170" height="40" as="geometry" />
        </mxCell>
        <mxCell id="2_WJz-mZz8zobtCXucVs-51" style="edgeStyle=orthogonalEdgeStyle;rounded=0;orthogonalLoop=1;jettySize=auto;html=1;" edge="1" parent="1" source="2_WJz-mZz8zobtCXucVs-2">
          <mxGeometry relative="1" as="geometry">
            <mxPoint x="-845" y="1840" as="targetPoint" />
          </mxGeometry>
        </mxCell>
        <mxCell id="2_WJz-mZz8zobtCXucVs-2" value="Vize Sınav Sonuç Raporu&lt;div&gt;Görüntüle&lt;/div&gt;" style="html=1;align=center;verticalAlign=top;rounded=1;absoluteArcSize=1;arcSize=10;dashed=0;whiteSpace=wrap;fillColor=#f8cecc;strokeColor=#b85450;" vertex="1" parent="1">
          <mxGeometry x="-930" y="1680" width="170" height="40" as="geometry" />
        </mxCell>
        <mxCell id="2_WJz-mZz8zobtCXucVs-52" style="edgeStyle=orthogonalEdgeStyle;rounded=0;orthogonalLoop=1;jettySize=auto;html=1;" edge="1" parent="1" source="2_WJz-mZz8zobtCXucVs-3">
          <mxGeometry relative="1" as="geometry">
            <mxPoint x="-1025" y="1840" as="targetPoint" />
          </mxGeometry>
        </mxCell>
        <mxCell id="2_WJz-mZz8zobtCXucVs-3" value="Vize Sınav Yoklama Listesi&lt;div&gt;Görüntüle&lt;/div&gt;" style="html=1;align=center;verticalAlign=top;rounded=1;absoluteArcSize=1;arcSize=10;dashed=0;whiteSpace=wrap;fillColor=#f8cecc;strokeColor=#b85450;" vertex="1" parent="1">
          <mxGeometry x="-1110" y="1680" width="170" height="40" as="geometry" />
        </mxCell>
        <mxCell id="2_WJz-mZz8zobtCXucVs-38" style="edgeStyle=orthogonalEdgeStyle;rounded=0;orthogonalLoop=1;jettySize=auto;html=1;" edge="1" parent="1" source="2_WJz-mZz8zobtCXucVs-4">
          <mxGeometry relative="1" as="geometry">
            <mxPoint x="-125" y="1840" as="targetPoint" />
          </mxGeometry>
        </mxCell>
        <mxCell id="2_WJz-mZz8zobtCXucVs-4" value="Bütünlemeye Girmek İsteyen Öğrenci Listesi Görüntüle" style="html=1;align=center;verticalAlign=top;rounded=1;absoluteArcSize=1;arcSize=10;dashed=0;whiteSpace=wrap;fillColor=#f8cecc;strokeColor=#b85450;" vertex="1" parent="1">
          <mxGeometry x="-210" y="1680" width="170" height="40" as="geometry" />
        </mxCell>
        <mxCell id="2_WJz-mZz8zobtCXucVs-43" style="edgeStyle=orthogonalEdgeStyle;rounded=0;orthogonalLoop=1;jettySize=auto;html=1;" edge="1" parent="1" source="2_WJz-mZz8zobtCXucVs-10">
          <mxGeometry relative="1" as="geometry">
            <mxPoint x="-485" y="1830" as="targetPoint" />
          </mxGeometry>
        </mxCell>
        <mxCell id="2_WJz-mZz8zobtCXucVs-10" value="Final Sınav Sonuç Raporu&lt;div&gt;Görüntüle&lt;/div&gt;" style="html=1;align=center;verticalAlign=top;rounded=1;absoluteArcSize=1;arcSize=10;dashed=0;whiteSpace=wrap;fillColor=#f8cecc;strokeColor=#b85450;" vertex="1" parent="1">
          <mxGeometry x="-570" y="1680" width="170" height="40" as="geometry" />
        </mxCell>
        <mxCell id="2_WJz-mZz8zobtCXucVs-21" style="edgeStyle=orthogonalEdgeStyle;rounded=0;orthogonalLoop=1;jettySize=auto;html=1;entryX=0.564;entryY=0.05;entryDx=0;entryDy=0;entryPerimeter=0;" edge="1" parent="1" source="j1WZlLF4a-4qiutJMyGu-32" target="2_WJz-mZz8zobtCXucVs-10">
          <mxGeometry relative="1" as="geometry">
            <Array as="points">
              <mxPoint x="-1080" y="1640" />
              <mxPoint x="-474" y="1640" />
            </Array>
          </mxGeometry>
        </mxCell>
        <mxCell id="2_WJz-mZz8zobtCXucVs-39" style="edgeStyle=orthogonalEdgeStyle;rounded=0;orthogonalLoop=1;jettySize=auto;html=1;" edge="1" parent="1" source="2_WJz-mZz8zobtCXucVs-22">
          <mxGeometry relative="1" as="geometry">
            <mxPoint x="-305" y="1840" as="targetPoint" />
          </mxGeometry>
        </mxCell>
        <mxCell id="2_WJz-mZz8zobtCXucVs-22" value="Öğrenci Not Listesi Görüntüle" style="html=1;align=center;verticalAlign=top;rounded=1;absoluteArcSize=1;arcSize=10;dashed=0;whiteSpace=wrap;fillColor=#f8cecc;strokeColor=#b85450;" vertex="1" parent="1">
          <mxGeometry x="-390" y="1680" width="170" height="40" as="geometry" />
        </mxCell>
        <mxCell id="2_WJz-mZz8zobtCXucVs-28" style="edgeStyle=orthogonalEdgeStyle;rounded=0;orthogonalLoop=1;jettySize=auto;html=1;" edge="1" parent="1" source="j1WZlLF4a-4qiutJMyGu-32">
          <mxGeometry relative="1" as="geometry">
            <mxPoint x="-1280" y="1020" as="targetPoint" />
          </mxGeometry>
        </mxCell>
        <mxCell id="2_WJz-mZz8zobtCXucVs-29" value="Geri" style="text;html=1;align=center;verticalAlign=middle;resizable=0;points=[];autosize=1;strokeColor=none;fillColor=none;" vertex="1" parent="1">
          <mxGeometry x="-1195" y="1508" width="50" height="30" as="geometry" />
        </mxCell>
        <mxCell id="2_WJz-mZz8zobtCXucVs-31" value="" style="endArrow=classic;html=1;rounded=0;entryX=0;entryY=0.5;entryDx=0;entryDy=0;" edge="1" parent="1" target="j1WZlLF4a-4qiutJMyGu-21">
          <mxGeometry width="50" height="50" relative="1" as="geometry">
            <mxPoint x="-40" y="1840" as="sourcePoint" />
            <mxPoint x="-1280" y="1000" as="targetPoint" />
            <Array as="points">
              <mxPoint x="-1920" y="1830" />
              <mxPoint x="-1920" y="1020" />
            </Array>
          </mxGeometry>
        </mxCell>
        <mxCell id="2_WJz-mZz8zobtCXucVs-62" value="Geri" style="text;html=1;align=center;verticalAlign=middle;resizable=0;points=[];autosize=1;strokeColor=none;fillColor=none;" vertex="1" parent="1">
          <mxGeometry x="-1850" y="1758" width="50" height="30" as="geometry" />
        </mxCell>
        <mxCell id="2_WJz-mZz8zobtCXucVs-63" value="Geri" style="text;html=1;align=center;verticalAlign=middle;resizable=0;points=[];autosize=1;strokeColor=none;fillColor=none;" vertex="1" parent="1">
          <mxGeometry x="-1720" y="1758" width="50" height="30" as="geometry" />
        </mxCell>
        <mxCell id="2_WJz-mZz8zobtCXucVs-64" value="Geri" style="text;html=1;align=center;verticalAlign=middle;resizable=0;points=[];autosize=1;strokeColor=none;fillColor=none;" vertex="1" parent="1">
          <mxGeometry x="-1570" y="1760" width="50" height="30" as="geometry" />
        </mxCell>
        <mxCell id="2_WJz-mZz8zobtCXucVs-65" value="Geri" style="text;html=1;align=center;verticalAlign=middle;resizable=0;points=[];autosize=1;strokeColor=none;fillColor=none;" vertex="1" parent="1">
          <mxGeometry x="-1420" y="1760" width="50" height="30" as="geometry" />
        </mxCell>
        <mxCell id="2_WJz-mZz8zobtCXucVs-66" value="Geri" style="text;html=1;align=center;verticalAlign=middle;resizable=0;points=[];autosize=1;strokeColor=none;fillColor=none;" vertex="1" parent="1">
          <mxGeometry x="-1250" y="1760" width="50" height="30" as="geometry" />
        </mxCell>
        <mxCell id="2_WJz-mZz8zobtCXucVs-67" value="Geri" style="text;html=1;align=center;verticalAlign=middle;resizable=0;points=[];autosize=1;strokeColor=none;fillColor=none;" vertex="1" parent="1">
          <mxGeometry x="-1070.01" y="1760" width="50" height="30" as="geometry" />
        </mxCell>
        <mxCell id="2_WJz-mZz8zobtCXucVs-68" value="Geri" style="text;html=1;align=center;verticalAlign=middle;resizable=0;points=[];autosize=1;strokeColor=none;fillColor=none;" vertex="1" parent="1">
          <mxGeometry x="-890" y="1760" width="50" height="30" as="geometry" />
        </mxCell>
        <mxCell id="2_WJz-mZz8zobtCXucVs-69" value="Geri" style="text;html=1;align=center;verticalAlign=middle;resizable=0;points=[];autosize=1;strokeColor=none;fillColor=none;" vertex="1" parent="1">
          <mxGeometry x="-710" y="1760" width="50" height="30" as="geometry" />
        </mxCell>
        <mxCell id="2_WJz-mZz8zobtCXucVs-70" value="Geri" style="text;html=1;align=center;verticalAlign=middle;resizable=0;points=[];autosize=1;strokeColor=none;fillColor=none;" vertex="1" parent="1">
          <mxGeometry x="-530" y="1760" width="50" height="30" as="geometry" />
        </mxCell>
        <mxCell id="2_WJz-mZz8zobtCXucVs-71" value="Geri" style="text;html=1;align=center;verticalAlign=middle;resizable=0;points=[];autosize=1;strokeColor=none;fillColor=none;" vertex="1" parent="1">
          <mxGeometry x="-350" y="1760" width="50" height="30" as="geometry" />
        </mxCell>
        <mxCell id="2_WJz-mZz8zobtCXucVs-74" value="Geri" style="text;html=1;align=center;verticalAlign=middle;resizable=0;points=[];autosize=1;strokeColor=none;fillColor=none;" vertex="1" parent="1">
          <mxGeometry x="-170" y="1760" width="50" height="30" as="geometry" />
        </mxCell>
        <mxCell id="2_WJz-mZz8zobtCXucVs-75" value="&lt;font data-sider-select-id=&quot;0122c8e4-904e-483d-ba3d-4003692323d2&quot; style=&quot;font-size: 20px;&quot;&gt;Atanmış Dersler Menüsüne Dön&lt;/font&gt;" style="text;html=1;align=center;verticalAlign=middle;resizable=0;points=[];autosize=1;strokeColor=none;fillColor=none;" vertex="1" parent="1">
          <mxGeometry x="-990" y="1845" width="310" height="40" as="geometry" />
        </mxCell>
        <mxCell id="2_WJz-mZz8zobtCXucVs-88" style="edgeStyle=orthogonalEdgeStyle;rounded=0;orthogonalLoop=1;jettySize=auto;html=1;" edge="1" parent="1" source="2_WJz-mZz8zobtCXucVs-78">
          <mxGeometry relative="1" as="geometry">
            <mxPoint x="-2035.13" y="2039.9999999999995" as="targetPoint" />
          </mxGeometry>
        </mxCell>
        <mxCell id="2_WJz-mZz8zobtCXucVs-78" value="Haftalık Ders İçeriklerini Göster&lt;div&gt;&lt;br&gt;&lt;/div&gt;" style="html=1;align=center;verticalAlign=top;rounded=1;absoluteArcSize=1;arcSize=10;dashed=0;whiteSpace=wrap;fillColor=#f8cecc;strokeColor=#b85450;" vertex="1" parent="1">
          <mxGeometry x="-2105.13" y="1920" width="140" height="40" as="geometry" />
        </mxCell>
        <mxCell id="2_WJz-mZz8zobtCXucVs-87" style="edgeStyle=orthogonalEdgeStyle;rounded=0;orthogonalLoop=1;jettySize=auto;html=1;entryX=0;entryY=0.5;entryDx=0;entryDy=0;" edge="1" parent="1" source="2_WJz-mZz8zobtCXucVs-82" target="j1WZlLF4a-4qiutJMyGu-34">
          <mxGeometry relative="1" as="geometry">
            <Array as="points">
              <mxPoint x="-1890" y="2040" />
              <mxPoint x="-2230" y="2040" />
              <mxPoint x="-2230" y="1700" />
            </Array>
          </mxGeometry>
        </mxCell>
        <mxCell id="2_WJz-mZz8zobtCXucVs-82" value="Dersi Alan Öğrencileri Göster" style="html=1;align=center;verticalAlign=top;rounded=1;absoluteArcSize=1;arcSize=10;dashed=0;whiteSpace=wrap;fillColor=#f8cecc;strokeColor=#b85450;" vertex="1" parent="1">
          <mxGeometry x="-1960.13" y="1920" width="140" height="40" as="geometry" />
        </mxCell>
        <mxCell id="2_WJz-mZz8zobtCXucVs-90" value="Geri" style="text;html=1;align=center;verticalAlign=middle;resizable=0;points=[];autosize=1;strokeColor=none;fillColor=none;" vertex="1" parent="1">
          <mxGeometry x="-1990.13" y="1980" width="50" height="30" as="geometry" />
        </mxCell>
        <mxCell id="2_WJz-mZz8zobtCXucVs-115" style="edgeStyle=orthogonalEdgeStyle;rounded=0;orthogonalLoop=1;jettySize=auto;html=1;" edge="1" parent="1" source="2_WJz-mZz8zobtCXucVs-92">
          <mxGeometry relative="1" as="geometry">
            <mxPoint x="-1660" y="2040" as="targetPoint" />
          </mxGeometry>
        </mxCell>
        <mxCell id="2_WJz-mZz8zobtCXucVs-92" value="Sınav oranlarını Düzenle" style="html=1;align=center;verticalAlign=top;rounded=1;absoluteArcSize=1;arcSize=10;dashed=0;whiteSpace=wrap;fillColor=#f8cecc;strokeColor=#b85450;" vertex="1" parent="1">
          <mxGeometry x="-1730" y="1920" width="140" height="40" as="geometry" />
        </mxCell>
        <mxCell id="2_WJz-mZz8zobtCXucVs-114" style="edgeStyle=orthogonalEdgeStyle;rounded=0;orthogonalLoop=1;jettySize=auto;html=1;" edge="1" parent="1" source="2_WJz-mZz8zobtCXucVs-93">
          <mxGeometry relative="1" as="geometry">
            <mxPoint x="-1510" y="2040" as="targetPoint" />
          </mxGeometry>
        </mxCell>
        <mxCell id="2_WJz-mZz8zobtCXucVs-93" value="İlan Et" style="html=1;align=center;verticalAlign=top;rounded=1;absoluteArcSize=1;arcSize=10;dashed=0;whiteSpace=wrap;fillColor=#f8cecc;strokeColor=#b85450;" vertex="1" parent="1">
          <mxGeometry x="-1580" y="1920" width="140" height="40" as="geometry" />
        </mxCell>
        <mxCell id="2_WJz-mZz8zobtCXucVs-113" style="edgeStyle=orthogonalEdgeStyle;rounded=0;orthogonalLoop=1;jettySize=auto;html=1;" edge="1" parent="1" source="2_WJz-mZz8zobtCXucVs-94">
          <mxGeometry relative="1" as="geometry">
            <mxPoint x="-1360" y="2040" as="targetPoint" />
          </mxGeometry>
        </mxCell>
        <mxCell id="2_WJz-mZz8zobtCXucVs-94" value="Sınav Yoklama Listesini Görüntüle" style="html=1;align=center;verticalAlign=top;rounded=1;absoluteArcSize=1;arcSize=10;dashed=0;whiteSpace=wrap;fillColor=#f8cecc;strokeColor=#b85450;" vertex="1" parent="1">
          <mxGeometry x="-1430" y="1920" width="140" height="40" as="geometry" />
        </mxCell>
        <mxCell id="2_WJz-mZz8zobtCXucVs-112" style="edgeStyle=orthogonalEdgeStyle;rounded=0;orthogonalLoop=1;jettySize=auto;html=1;" edge="1" parent="1" source="2_WJz-mZz8zobtCXucVs-95">
          <mxGeometry relative="1" as="geometry">
            <mxPoint x="-1215" y="2050" as="targetPoint" />
          </mxGeometry>
        </mxCell>
        <mxCell id="2_WJz-mZz8zobtCXucVs-95" value="Sınav Raporu Görüntüle" style="html=1;align=center;verticalAlign=top;rounded=1;absoluteArcSize=1;arcSize=10;dashed=0;whiteSpace=wrap;fillColor=#f8cecc;strokeColor=#b85450;" vertex="1" parent="1">
          <mxGeometry x="-1285" y="1920" width="140" height="40" as="geometry" />
        </mxCell>
        <mxCell id="2_WJz-mZz8zobtCXucVs-110" style="edgeStyle=orthogonalEdgeStyle;rounded=0;orthogonalLoop=1;jettySize=auto;html=1;entryX=0;entryY=1;entryDx=0;entryDy=0;" edge="1" parent="1" source="2_WJz-mZz8zobtCXucVs-108" target="j1WZlLF4a-4qiutJMyGu-37">
          <mxGeometry relative="1" as="geometry">
            <Array as="points">
              <mxPoint x="-1100" y="2040" />
              <mxPoint x="-1750" y="2040" />
              <mxPoint x="-1750" y="1720" />
            </Array>
          </mxGeometry>
        </mxCell>
        <mxCell id="2_WJz-mZz8zobtCXucVs-108" value="Kaydet Ve Hesapla" style="html=1;align=center;verticalAlign=top;rounded=1;absoluteArcSize=1;arcSize=10;dashed=0;whiteSpace=wrap;fillColor=#f8cecc;strokeColor=#b85450;" vertex="1" parent="1">
          <mxGeometry x="-1140.01" y="1920" width="140" height="40" as="geometry" />
        </mxCell>
        <mxCell id="2_WJz-mZz8zobtCXucVs-116" value="Geri/Kapat" style="text;html=1;align=center;verticalAlign=middle;resizable=0;points=[];autosize=1;strokeColor=none;fillColor=none;" vertex="1" parent="1">
          <mxGeometry x="-1730" y="1980" width="80" height="30" as="geometry" />
        </mxCell>
        <mxCell id="2_WJz-mZz8zobtCXucVs-117" value="Geri/Kapat" style="text;html=1;align=center;verticalAlign=middle;resizable=0;points=[];autosize=1;strokeColor=none;fillColor=none;" vertex="1" parent="1">
          <mxGeometry x="-1580" y="1980" width="80" height="30" as="geometry" />
        </mxCell>
        <mxCell id="2_WJz-mZz8zobtCXucVs-118" value="Geri/Kapat" style="text;html=1;align=center;verticalAlign=middle;resizable=0;points=[];autosize=1;strokeColor=none;fillColor=none;" vertex="1" parent="1">
          <mxGeometry x="-1430" y="1980" width="80" height="30" as="geometry" />
        </mxCell>
        <mxCell id="2_WJz-mZz8zobtCXucVs-119" value="Geri/Kapat" style="text;html=1;align=center;verticalAlign=middle;resizable=0;points=[];autosize=1;strokeColor=none;fillColor=none;" vertex="1" parent="1">
          <mxGeometry x="-1285" y="1980" width="80" height="30" as="geometry" />
        </mxCell>
        <mxCell id="2_WJz-mZz8zobtCXucVs-120" value="Geri/Kapat" style="text;html=1;align=center;verticalAlign=middle;resizable=0;points=[];autosize=1;strokeColor=none;fillColor=none;" vertex="1" parent="1">
          <mxGeometry x="-1170" y="1980" width="80" height="30" as="geometry" />
        </mxCell>
        <mxCell id="2_WJz-mZz8zobtCXucVs-121" value="&lt;font data-sider-select-id=&quot;1585fa3d-1a38-4006-bab0-acb878faae41&quot; style=&quot;font-size: 16px;&quot;&gt;Not Giriş Ekranını Göster&lt;/font&gt;" style="text;html=1;align=center;verticalAlign=middle;resizable=0;points=[];autosize=1;strokeColor=none;fillColor=none;" vertex="1" parent="1">
          <mxGeometry x="-1540" y="2050" width="200" height="30" as="geometry" />
        </mxCell>
        <mxCell id="2_WJz-mZz8zobtCXucVs-124" value="Geri" style="text;html=1;align=center;verticalAlign=middle;resizable=0;points=[];autosize=1;strokeColor=none;fillColor=none;" vertex="1" parent="1">
          <mxGeometry x="-1330" y="825" width="50" height="30" as="geometry" />
        </mxCell>
        <mxCell id="2_WJz-mZz8zobtCXucVs-138" style="edgeStyle=orthogonalEdgeStyle;rounded=0;orthogonalLoop=1;jettySize=auto;html=1;" edge="1" parent="1" source="2_WJz-mZz8zobtCXucVs-130" target="2_WJz-mZz8zobtCXucVs-137">
          <mxGeometry relative="1" as="geometry" />
        </mxCell>
        <mxCell id="2_WJz-mZz8zobtCXucVs-176" style="edgeStyle=orthogonalEdgeStyle;rounded=0;orthogonalLoop=1;jettySize=auto;html=1;" edge="1" parent="1" source="2_WJz-mZz8zobtCXucVs-130">
          <mxGeometry relative="1" as="geometry">
            <mxPoint x="-920" y="1080" as="targetPoint" />
            <Array as="points">
              <mxPoint x="-765" y="1080" />
            </Array>
          </mxGeometry>
        </mxCell>
        <mxCell id="2_WJz-mZz8zobtCXucVs-130" value="Danışmanı Olduğum&amp;nbsp;&lt;div&gt;Öğrencileri Göster&lt;/div&gt;" style="html=1;align=center;verticalAlign=top;rounded=1;absoluteArcSize=1;arcSize=10;dashed=0;whiteSpace=wrap;fillColor=#f8cecc;strokeColor=#b85450;" vertex="1" parent="1">
          <mxGeometry x="-850" y="1003" width="170" height="40" as="geometry" />
        </mxCell>
        <mxCell id="2_WJz-mZz8zobtCXucVs-177" style="edgeStyle=orthogonalEdgeStyle;rounded=0;orthogonalLoop=1;jettySize=auto;html=1;" edge="1" parent="1" source="2_WJz-mZz8zobtCXucVs-131">
          <mxGeometry relative="1" as="geometry">
            <mxPoint x="-760" y="1080" as="targetPoint" />
            <Array as="points">
              <mxPoint x="-580" y="1080" />
            </Array>
          </mxGeometry>
        </mxCell>
        <mxCell id="2_WJz-mZz8zobtCXucVs-131" value="Tüm öğrencileri Göster" style="html=1;align=center;verticalAlign=top;rounded=1;absoluteArcSize=1;arcSize=10;dashed=0;whiteSpace=wrap;fillColor=#f8cecc;strokeColor=#b85450;" vertex="1" parent="1">
          <mxGeometry x="-665" y="1003" width="170" height="40" as="geometry" />
        </mxCell>
        <mxCell id="2_WJz-mZz8zobtCXucVs-178" style="edgeStyle=orthogonalEdgeStyle;rounded=0;orthogonalLoop=1;jettySize=auto;html=1;" edge="1" parent="1" source="2_WJz-mZz8zobtCXucVs-132">
          <mxGeometry relative="1" as="geometry">
            <mxPoint x="-580" y="1080" as="targetPoint" />
            <Array as="points">
              <mxPoint x="-395" y="1080" />
            </Array>
          </mxGeometry>
        </mxCell>
        <mxCell id="2_WJz-mZz8zobtCXucVs-132" value="Haftalık Ders Programımı Göster" style="html=1;align=center;verticalAlign=top;rounded=1;absoluteArcSize=1;arcSize=10;dashed=0;whiteSpace=wrap;fillColor=#f8cecc;strokeColor=#b85450;" vertex="1" parent="1">
          <mxGeometry x="-480" y="1003" width="170" height="40" as="geometry" />
        </mxCell>
        <mxCell id="2_WJz-mZz8zobtCXucVs-141" style="edgeStyle=orthogonalEdgeStyle;rounded=0;orthogonalLoop=1;jettySize=auto;html=1;entryX=0;entryY=0.5;entryDx=0;entryDy=0;" edge="1" parent="1" source="2_WJz-mZz8zobtCXucVs-137" target="7eG7Swem1IyPdvQVmkEB-25">
          <mxGeometry relative="1" as="geometry">
            <Array as="points">
              <mxPoint x="-920" y="1172" />
              <mxPoint x="-920" y="860" />
            </Array>
          </mxGeometry>
        </mxCell>
        <mxCell id="2_WJz-mZz8zobtCXucVs-146" style="edgeStyle=orthogonalEdgeStyle;rounded=0;orthogonalLoop=1;jettySize=auto;html=1;entryX=0.5;entryY=0;entryDx=0;entryDy=0;" edge="1" parent="1" source="2_WJz-mZz8zobtCXucVs-137" target="2_WJz-mZz8zobtCXucVs-145">
          <mxGeometry relative="1" as="geometry" />
        </mxCell>
        <mxCell id="2_WJz-mZz8zobtCXucVs-137" value="&lt;span style=&quot;font-size: 10px;&quot;&gt;Var mı?&lt;/span&gt;" style="rhombus;whiteSpace=wrap;html=1;fontColor=#000000;fillColor=#ffffc0;strokeColor=#ff0000;" vertex="1" parent="1">
          <mxGeometry x="-829.87" y="1123" width="129.75" height="98" as="geometry" />
        </mxCell>
        <mxCell id="2_WJz-mZz8zobtCXucVs-142" value="Hayır" style="text;html=1;align=center;verticalAlign=middle;resizable=0;points=[];autosize=1;strokeColor=none;fillColor=none;" vertex="1" parent="1">
          <mxGeometry x="-890" y="1145" width="50" height="30" as="geometry" />
        </mxCell>
        <mxCell id="2_WJz-mZz8zobtCXucVs-167" style="edgeStyle=orthogonalEdgeStyle;rounded=0;orthogonalLoop=1;jettySize=auto;html=1;" edge="1" parent="1" source="2_WJz-mZz8zobtCXucVs-144">
          <mxGeometry relative="1" as="geometry">
            <mxPoint x="-764.9999999999991" y="1480" as="targetPoint" />
          </mxGeometry>
        </mxCell>
        <mxCell id="2_WJz-mZz8zobtCXucVs-144" value="Transkript Görüntüle" style="html=1;align=center;verticalAlign=top;rounded=1;absoluteArcSize=1;arcSize=10;dashed=0;whiteSpace=wrap;fillColor=#f8cecc;strokeColor=#b85450;" vertex="1" parent="1">
          <mxGeometry x="-830" y="1360" width="130" height="40" as="geometry" />
        </mxCell>
        <mxCell id="2_WJz-mZz8zobtCXucVs-153" value="" style="edgeStyle=orthogonalEdgeStyle;rounded=0;orthogonalLoop=1;jettySize=auto;html=1;" edge="1" parent="1" source="2_WJz-mZz8zobtCXucVs-145" target="2_WJz-mZz8zobtCXucVs-144">
          <mxGeometry relative="1" as="geometry" />
        </mxCell>
        <mxCell id="2_WJz-mZz8zobtCXucVs-155" style="edgeStyle=orthogonalEdgeStyle;rounded=0;orthogonalLoop=1;jettySize=auto;html=1;entryX=0.5;entryY=0;entryDx=0;entryDy=0;" edge="1" parent="1" source="2_WJz-mZz8zobtCXucVs-145" target="2_WJz-mZz8zobtCXucVs-149">
          <mxGeometry relative="1" as="geometry">
            <Array as="points">
              <mxPoint x="-765" y="1340" />
              <mxPoint x="-615" y="1340" />
            </Array>
          </mxGeometry>
        </mxCell>
        <mxCell id="2_WJz-mZz8zobtCXucVs-156" value="" style="edgeStyle=orthogonalEdgeStyle;rounded=0;orthogonalLoop=1;jettySize=auto;html=1;" edge="1" parent="1" source="2_WJz-mZz8zobtCXucVs-145" target="2_WJz-mZz8zobtCXucVs-144">
          <mxGeometry relative="1" as="geometry" />
        </mxCell>
        <mxCell id="2_WJz-mZz8zobtCXucVs-157" style="edgeStyle=orthogonalEdgeStyle;rounded=0;orthogonalLoop=1;jettySize=auto;html=1;entryX=0.5;entryY=0;entryDx=0;entryDy=0;" edge="1" parent="1" source="2_WJz-mZz8zobtCXucVs-145" target="2_WJz-mZz8zobtCXucVs-150">
          <mxGeometry relative="1" as="geometry">
            <Array as="points">
              <mxPoint x="-765" y="1340" />
              <mxPoint x="-465" y="1340" />
            </Array>
          </mxGeometry>
        </mxCell>
        <mxCell id="2_WJz-mZz8zobtCXucVs-158" style="edgeStyle=orthogonalEdgeStyle;rounded=0;orthogonalLoop=1;jettySize=auto;html=1;entryX=0.5;entryY=0;entryDx=0;entryDy=0;" edge="1" parent="1" source="2_WJz-mZz8zobtCXucVs-145">
          <mxGeometry relative="1" as="geometry">
            <mxPoint x="-315" y="1360" as="targetPoint" />
            <Array as="points">
              <mxPoint x="-765" y="1340" />
              <mxPoint x="-315" y="1340" />
            </Array>
          </mxGeometry>
        </mxCell>
        <mxCell id="2_WJz-mZz8zobtCXucVs-159" style="edgeStyle=orthogonalEdgeStyle;rounded=0;orthogonalLoop=1;jettySize=auto;html=1;entryX=0.5;entryY=0;entryDx=0;entryDy=0;" edge="1" parent="1" source="2_WJz-mZz8zobtCXucVs-145">
          <mxGeometry relative="1" as="geometry">
            <mxPoint x="-165" y="1360" as="targetPoint" />
            <Array as="points">
              <mxPoint x="-765" y="1340" />
              <mxPoint x="-165" y="1340" />
            </Array>
          </mxGeometry>
        </mxCell>
        <mxCell id="2_WJz-mZz8zobtCXucVs-145" value="İşlemler Menüsü" style="whiteSpace=wrap;html=1;verticalAlign=top;rounded=1;arcSize=10;dashed=0;" vertex="1" parent="1">
          <mxGeometry x="-825" y="1276" width="120" height="40" as="geometry" />
        </mxCell>
        <mxCell id="2_WJz-mZz8zobtCXucVs-166" style="edgeStyle=orthogonalEdgeStyle;rounded=0;orthogonalLoop=1;jettySize=auto;html=1;" edge="1" parent="1" source="2_WJz-mZz8zobtCXucVs-149">
          <mxGeometry relative="1" as="geometry">
            <mxPoint x="-614.9999999999991" y="1480" as="targetPoint" />
          </mxGeometry>
        </mxCell>
        <mxCell id="2_WJz-mZz8zobtCXucVs-149" value="Tarihsel Not Dökümanı Görüntüle" style="html=1;align=center;verticalAlign=top;rounded=1;absoluteArcSize=1;arcSize=10;dashed=0;whiteSpace=wrap;fillColor=#f8cecc;strokeColor=#b85450;" vertex="1" parent="1">
          <mxGeometry x="-680" y="1360" width="130" height="40" as="geometry" />
        </mxCell>
        <mxCell id="2_WJz-mZz8zobtCXucVs-165" style="edgeStyle=orthogonalEdgeStyle;rounded=0;orthogonalLoop=1;jettySize=auto;html=1;" edge="1" parent="1" source="2_WJz-mZz8zobtCXucVs-150">
          <mxGeometry relative="1" as="geometry">
            <mxPoint x="-465" y="1480" as="targetPoint" />
          </mxGeometry>
        </mxCell>
        <mxCell id="2_WJz-mZz8zobtCXucVs-150" value="Öğrenci Bilgileri Görüntüle" style="html=1;align=center;verticalAlign=top;rounded=1;absoluteArcSize=1;arcSize=10;dashed=0;whiteSpace=wrap;fillColor=#f8cecc;strokeColor=#b85450;" vertex="1" parent="1">
          <mxGeometry x="-530" y="1360" width="130" height="40" as="geometry" />
        </mxCell>
        <mxCell id="2_WJz-mZz8zobtCXucVs-164" style="edgeStyle=orthogonalEdgeStyle;rounded=0;orthogonalLoop=1;jettySize=auto;html=1;" edge="1" parent="1">
          <mxGeometry relative="1" as="geometry">
            <mxPoint x="-315" y="1480" as="targetPoint" />
            <mxPoint x="-315" y="1400" as="sourcePoint" />
          </mxGeometry>
        </mxCell>
        <mxCell id="2_WJz-mZz8zobtCXucVs-163" style="edgeStyle=orthogonalEdgeStyle;rounded=0;orthogonalLoop=1;jettySize=auto;html=1;entryX=0.042;entryY=0.6;entryDx=0;entryDy=0;entryPerimeter=0;" edge="1" parent="1" target="2_WJz-mZz8zobtCXucVs-145">
          <mxGeometry relative="1" as="geometry">
            <mxPoint x="-830" y="1300" as="targetPoint" />
            <mxPoint x="-165" y="1400" as="sourcePoint" />
            <Array as="points">
              <mxPoint x="-165" y="1480" />
              <mxPoint x="-900" y="1480" />
              <mxPoint x="-900" y="1300" />
            </Array>
          </mxGeometry>
        </mxCell>
        <mxCell id="2_WJz-mZz8zobtCXucVs-168" value="Geri" style="text;html=1;align=center;verticalAlign=middle;resizable=0;points=[];autosize=1;strokeColor=none;fillColor=none;" vertex="1" parent="1">
          <mxGeometry x="-320" y="1418" width="50" height="30" as="geometry" />
        </mxCell>
        <mxCell id="2_WJz-mZz8zobtCXucVs-169" value="Geri" style="text;html=1;align=center;verticalAlign=middle;resizable=0;points=[];autosize=1;strokeColor=none;fillColor=none;" vertex="1" parent="1">
          <mxGeometry x="-470" y="1418" width="50" height="30" as="geometry" />
        </mxCell>
        <mxCell id="2_WJz-mZz8zobtCXucVs-170" value="Geri" style="text;html=1;align=center;verticalAlign=middle;resizable=0;points=[];autosize=1;strokeColor=none;fillColor=none;" vertex="1" parent="1">
          <mxGeometry x="-630" y="1418" width="50" height="30" as="geometry" />
        </mxCell>
        <mxCell id="2_WJz-mZz8zobtCXucVs-171" value="Geri" style="text;html=1;align=center;verticalAlign=middle;resizable=0;points=[];autosize=1;strokeColor=none;fillColor=none;" vertex="1" parent="1">
          <mxGeometry x="-780" y="1418" width="50" height="30" as="geometry" />
        </mxCell>
        <mxCell id="2_WJz-mZz8zobtCXucVs-172" value="&lt;span data-sider-select-id=&quot;825471be-d11c-447a-bdaf-9787419f74a1&quot; style=&quot;text-wrap: wrap;&quot;&gt;Danışmanı Olduğum&amp;nbsp;&lt;/span&gt;&lt;div style=&quot;text-wrap: wrap;&quot;&gt;Öğrencileri Göster&lt;/div&gt;" style="text;html=1;align=center;verticalAlign=middle;resizable=0;points=[];autosize=1;strokeColor=none;fillColor=none;" vertex="1" parent="1">
          <mxGeometry x="-600" y="1485" width="140" height="40" as="geometry" />
        </mxCell>
        <mxCell id="2_WJz-mZz8zobtCXucVs-179" value="Geri" style="text;html=1;align=center;verticalAlign=middle;resizable=0;points=[];autosize=1;strokeColor=none;fillColor=none;" vertex="1" parent="1">
          <mxGeometry x="-520" y="1055" width="50" height="30" as="geometry" />
        </mxCell>
        <mxCell id="2_WJz-mZz8zobtCXucVs-180" value="Geri" style="text;html=1;align=center;verticalAlign=middle;resizable=0;points=[];autosize=1;strokeColor=none;fillColor=none;" vertex="1" parent="1">
          <mxGeometry x="-690" y="1058" width="50" height="30" as="geometry" />
        </mxCell>
        <mxCell id="2_WJz-mZz8zobtCXucVs-181" value="Geri" style="text;html=1;align=center;verticalAlign=middle;resizable=0;points=[];autosize=1;strokeColor=none;fillColor=none;" vertex="1" parent="1">
          <mxGeometry x="-860" y="1058" width="50" height="30" as="geometry" />
        </mxCell>
        <mxCell id="2_WJz-mZz8zobtCXucVs-182" value="Geri" style="text;html=1;align=center;verticalAlign=middle;resizable=0;points=[];autosize=1;strokeColor=none;fillColor=none;" vertex="1" parent="1">
          <mxGeometry x="-210" y="1430" width="50" height="30" as="geometry" />
        </mxCell>
        <mxCell id="2_WJz-mZz8zobtCXucVs-183" value="&lt;span style=&quot;text-wrap: wrap;&quot;&gt;Görüntüleme İşlemleri Menüsüne Dön&lt;/span&gt;" style="text;html=1;align=center;verticalAlign=middle;resizable=0;points=[];autosize=1;strokeColor=none;fillColor=none;" vertex="1" parent="1">
          <mxGeometry x="-1070" y="948" width="230" height="30" as="geometry" />
        </mxCell>
        <mxCell id="2_WJz-mZz8zobtCXucVs-187" style="edgeStyle=orthogonalEdgeStyle;rounded=0;orthogonalLoop=1;jettySize=auto;html=1;" edge="1" parent="1" source="2_WJz-mZz8zobtCXucVs-184" target="2_WJz-mZz8zobtCXucVs-186">
          <mxGeometry relative="1" as="geometry" />
        </mxCell>
        <mxCell id="2_WJz-mZz8zobtCXucVs-184" value="Ders Kayıtlanması Görüntüle" style="html=1;align=center;verticalAlign=top;rounded=1;absoluteArcSize=1;arcSize=10;dashed=0;whiteSpace=wrap;fillColor=#f8cecc;strokeColor=#b85450;" vertex="1" parent="1">
          <mxGeometry x="-230" y="1358" width="130" height="40" as="geometry" />
        </mxCell>
        <mxCell id="2_WJz-mZz8zobtCXucVs-185" value="Ders Kayıtlanma Kontrol Sayfası Görüntüle" style="html=1;align=center;verticalAlign=top;rounded=1;absoluteArcSize=1;arcSize=10;dashed=0;whiteSpace=wrap;fillColor=#f8cecc;strokeColor=#b85450;" vertex="1" parent="1">
          <mxGeometry x="-390" y="1360" width="150" height="40" as="geometry" />
        </mxCell>
        <mxCell id="2_WJz-mZz8zobtCXucVs-190" style="edgeStyle=orthogonalEdgeStyle;rounded=0;orthogonalLoop=1;jettySize=auto;html=1;" edge="1" parent="1" source="2_WJz-mZz8zobtCXucVs-186">
          <mxGeometry relative="1" as="geometry">
            <mxPoint x="240" y="1510" as="targetPoint" />
          </mxGeometry>
        </mxCell>
        <mxCell id="2_WJz-mZz8zobtCXucVs-198" style="edgeStyle=orthogonalEdgeStyle;rounded=0;orthogonalLoop=1;jettySize=auto;html=1;" edge="1" parent="1" source="2_WJz-mZz8zobtCXucVs-186" target="2_WJz-mZz8zobtCXucVs-196">
          <mxGeometry relative="1" as="geometry" />
        </mxCell>
        <mxCell id="2_WJz-mZz8zobtCXucVs-201" style="edgeStyle=orthogonalEdgeStyle;rounded=0;orthogonalLoop=1;jettySize=auto;html=1;exitX=0.5;exitY=1;exitDx=0;exitDy=0;" edge="1" parent="1" source="2_WJz-mZz8zobtCXucVs-186">
          <mxGeometry relative="1" as="geometry">
            <mxPoint x="225" y="1680" as="targetPoint" />
          </mxGeometry>
        </mxCell>
        <mxCell id="2_WJz-mZz8zobtCXucVs-186" value="&lt;span data-sider-select-id=&quot;9efa9540-9b3b-46df-a0a3-d18d94350bdd&quot; style=&quot;font-size: 10px;&quot;&gt;Öğrenci Ders Seçimini Danışman Onayına Gönderdi mi?&lt;/span&gt;" style="rhombus;whiteSpace=wrap;html=1;fontColor=#000000;fillColor=#ffffc0;strokeColor=#ff0000;" vertex="1" parent="1">
          <mxGeometry y="1445" width="160" height="130" as="geometry" />
        </mxCell>
        <mxCell id="2_WJz-mZz8zobtCXucVs-194" style="edgeStyle=orthogonalEdgeStyle;rounded=0;orthogonalLoop=1;jettySize=auto;html=1;entryX=1;entryY=0.25;entryDx=0;entryDy=0;" edge="1" parent="1" source="2_WJz-mZz8zobtCXucVs-191" target="2_WJz-mZz8zobtCXucVs-145">
          <mxGeometry relative="1" as="geometry">
            <mxPoint x="305" y="1410" as="targetPoint" />
            <Array as="points">
              <mxPoint x="305" y="1286" />
            </Array>
          </mxGeometry>
        </mxCell>
        <mxCell id="2_WJz-mZz8zobtCXucVs-191" value="Danışman Onayına Gönderilmedi" style="html=1;rounded=1;absoluteArcSize=1;arcSize=10;whiteSpace=wrap;fillColor=#1ba1e2;strokeColor=#006EAF;fontColor=#ffffff;" vertex="1" parent="1">
          <mxGeometry x="240" y="1490" width="130" height="40" as="geometry" />
        </mxCell>
        <mxCell id="2_WJz-mZz8zobtCXucVs-192" value="Hayır" style="text;html=1;align=center;verticalAlign=middle;resizable=0;points=[];autosize=1;strokeColor=none;fillColor=none;" vertex="1" parent="1">
          <mxGeometry x="180" y="1485" width="50" height="30" as="geometry" />
        </mxCell>
        <mxCell id="2_WJz-mZz8zobtCXucVs-224" style="edgeStyle=orthogonalEdgeStyle;rounded=0;orthogonalLoop=1;jettySize=auto;html=1;entryX=0.5;entryY=0;entryDx=0;entryDy=0;" edge="1" parent="1" source="2_WJz-mZz8zobtCXucVs-196" target="2_WJz-mZz8zobtCXucVs-223">
          <mxGeometry relative="1" as="geometry" />
        </mxCell>
        <mxCell id="2_WJz-mZz8zobtCXucVs-230" style="edgeStyle=orthogonalEdgeStyle;rounded=0;orthogonalLoop=1;jettySize=auto;html=1;exitX=0.25;exitY=0;exitDx=0;exitDy=0;" edge="1" parent="1" source="2_WJz-mZz8zobtCXucVs-196">
          <mxGeometry relative="1" as="geometry">
            <mxPoint x="-10" y="1610" as="targetPoint" />
            <Array as="points">
              <mxPoint x="48" y="1610" />
            </Array>
          </mxGeometry>
        </mxCell>
        <mxCell id="2_WJz-mZz8zobtCXucVs-196" value="Kayıtlanmayı Tamamla" style="html=1;align=center;verticalAlign=top;rounded=1;absoluteArcSize=1;arcSize=10;dashed=0;whiteSpace=wrap;fillColor=#f8cecc;strokeColor=#b85450;" vertex="1" parent="1">
          <mxGeometry x="15" y="1680" width="130" height="40" as="geometry" />
        </mxCell>
        <mxCell id="2_WJz-mZz8zobtCXucVs-199" value="Evet" style="text;html=1;align=center;verticalAlign=middle;resizable=0;points=[];autosize=1;strokeColor=none;fillColor=none;" vertex="1" parent="1">
          <mxGeometry x="70" y="1583" width="50" height="30" as="geometry" />
        </mxCell>
        <mxCell id="2_WJz-mZz8zobtCXucVs-217" style="edgeStyle=orthogonalEdgeStyle;rounded=0;orthogonalLoop=1;jettySize=auto;html=1;entryX=0.5;entryY=0;entryDx=0;entryDy=0;" edge="1" parent="1" source="2_WJz-mZz8zobtCXucVs-202" target="2_WJz-mZz8zobtCXucVs-215">
          <mxGeometry relative="1" as="geometry" />
        </mxCell>
        <mxCell id="2_WJz-mZz8zobtCXucVs-202" value="Dersleri Ekle" style="html=1;align=center;verticalAlign=top;rounded=1;absoluteArcSize=1;arcSize=10;dashed=0;whiteSpace=wrap;fillColor=#f8cecc;strokeColor=#b85450;" vertex="1" parent="1">
          <mxGeometry x="200" y="1773" width="130" height="40" as="geometry" />
        </mxCell>
        <mxCell id="2_WJz-mZz8zobtCXucVs-206" style="edgeStyle=orthogonalEdgeStyle;rounded=0;orthogonalLoop=1;jettySize=auto;html=1;entryX=0.5;entryY=0;entryDx=0;entryDy=0;" edge="1" parent="1" source="2_WJz-mZz8zobtCXucVs-204" target="2_WJz-mZz8zobtCXucVs-202">
          <mxGeometry relative="1" as="geometry">
            <Array as="points">
              <mxPoint x="225" y="1750" />
              <mxPoint x="265" y="1750" />
            </Array>
          </mxGeometry>
        </mxCell>
        <mxCell id="2_WJz-mZz8zobtCXucVs-207" style="edgeStyle=orthogonalEdgeStyle;rounded=0;orthogonalLoop=1;jettySize=auto;html=1;entryX=0.5;entryY=0;entryDx=0;entryDy=0;" edge="1" parent="1" source="2_WJz-mZz8zobtCXucVs-204" target="2_WJz-mZz8zobtCXucVs-205">
          <mxGeometry relative="1" as="geometry">
            <Array as="points">
              <mxPoint x="225" y="1750" />
              <mxPoint x="415" y="1750" />
            </Array>
          </mxGeometry>
        </mxCell>
        <mxCell id="2_WJz-mZz8zobtCXucVs-232" style="edgeStyle=orthogonalEdgeStyle;rounded=0;orthogonalLoop=1;jettySize=auto;html=1;exitX=0.25;exitY=0;exitDx=0;exitDy=0;" edge="1" parent="1" source="2_WJz-mZz8zobtCXucVs-204">
          <mxGeometry relative="1" as="geometry">
            <mxPoint x="-10" y="1650" as="targetPoint" />
            <Array as="points">
              <mxPoint x="192" y="1650" />
              <mxPoint x="-10" y="1650" />
            </Array>
          </mxGeometry>
        </mxCell>
        <mxCell id="2_WJz-mZz8zobtCXucVs-204" value="Detayları Göster" style="html=1;align=center;verticalAlign=top;rounded=1;absoluteArcSize=1;arcSize=10;dashed=0;whiteSpace=wrap;fillColor=#f8cecc;strokeColor=#b85450;" vertex="1" parent="1">
          <mxGeometry x="160" y="1680" width="130" height="40" as="geometry" />
        </mxCell>
        <mxCell id="2_WJz-mZz8zobtCXucVs-218" style="edgeStyle=orthogonalEdgeStyle;rounded=0;orthogonalLoop=1;jettySize=auto;html=1;" edge="1" parent="1" source="2_WJz-mZz8zobtCXucVs-205">
          <mxGeometry relative="1" as="geometry">
            <mxPoint x="340" y="1880" as="targetPoint" />
            <Array as="points">
              <mxPoint x="415" y="1847" />
              <mxPoint x="341" y="1847" />
              <mxPoint x="341" y="1880" />
            </Array>
          </mxGeometry>
        </mxCell>
        <mxCell id="2_WJz-mZz8zobtCXucVs-205" value="Dersleri Sil" style="html=1;align=center;verticalAlign=top;rounded=1;absoluteArcSize=1;arcSize=10;dashed=0;whiteSpace=wrap;fillColor=#f8cecc;strokeColor=#b85450;" vertex="1" parent="1">
          <mxGeometry x="350" y="1773" width="130" height="40" as="geometry" />
        </mxCell>
        <mxCell id="2_WJz-mZz8zobtCXucVs-225" style="edgeStyle=orthogonalEdgeStyle;rounded=0;orthogonalLoop=1;jettySize=auto;html=1;" edge="1" parent="1" source="2_WJz-mZz8zobtCXucVs-214">
          <mxGeometry relative="1" as="geometry">
            <mxPoint x="520" y="1940" as="targetPoint" />
          </mxGeometry>
        </mxCell>
        <mxCell id="2_WJz-mZz8zobtCXucVs-214" value="Öğrenci Onayına Gönder" style="html=1;align=center;verticalAlign=top;rounded=1;absoluteArcSize=1;arcSize=10;dashed=0;whiteSpace=wrap;fillColor=#f8cecc;strokeColor=#b85450;" vertex="1" parent="1">
          <mxGeometry x="275" y="2080" width="130" height="40" as="geometry" />
        </mxCell>
        <mxCell id="2_WJz-mZz8zobtCXucVs-219" style="edgeStyle=orthogonalEdgeStyle;rounded=0;orthogonalLoop=1;jettySize=auto;html=1;entryX=0.5;entryY=0;entryDx=0;entryDy=0;" edge="1" parent="1" source="2_WJz-mZz8zobtCXucVs-215" target="2_WJz-mZz8zobtCXucVs-214">
          <mxGeometry relative="1" as="geometry" />
        </mxCell>
        <mxCell id="2_WJz-mZz8zobtCXucVs-221" style="edgeStyle=orthogonalEdgeStyle;rounded=0;orthogonalLoop=1;jettySize=auto;html=1;entryX=1;entryY=0.5;entryDx=0;entryDy=0;" edge="1" parent="1" source="2_WJz-mZz8zobtCXucVs-215" target="2_WJz-mZz8zobtCXucVs-204">
          <mxGeometry relative="1" as="geometry">
            <Array as="points">
              <mxPoint x="520" y="1940" />
              <mxPoint x="520" y="1700" />
            </Array>
          </mxGeometry>
        </mxCell>
        <mxCell id="2_WJz-mZz8zobtCXucVs-215" value="&lt;span data-sider-select-id=&quot;9efa9540-9b3b-46df-a0a3-d18d94350bdd&quot; style=&quot;font-size: 10px;&quot;&gt;Ders Seçimi Kaydedilsin mi?&lt;/span&gt;&lt;div&gt;&lt;span data-sider-select-id=&quot;9efa9540-9b3b-46df-a0a3-d18d94350bdd&quot; style=&quot;font-size: 10px;&quot;&gt;&lt;br&gt;&lt;/span&gt;&lt;/div&gt;" style="rhombus;whiteSpace=wrap;html=1;fontColor=#000000;fillColor=#ffffc0;strokeColor=#ff0000;" vertex="1" parent="1">
          <mxGeometry x="260" y="1880" width="160" height="120" as="geometry" />
        </mxCell>
        <mxCell id="2_WJz-mZz8zobtCXucVs-220" value="Evet" style="text;html=1;align=center;verticalAlign=middle;resizable=0;points=[];autosize=1;strokeColor=none;fillColor=none;" vertex="1" parent="1">
          <mxGeometry x="330" y="2020" width="50" height="30" as="geometry" />
        </mxCell>
        <mxCell id="2_WJz-mZz8zobtCXucVs-222" value="Hayır" style="text;html=1;align=center;verticalAlign=middle;resizable=0;points=[];autosize=1;strokeColor=none;fillColor=none;" vertex="1" parent="1">
          <mxGeometry x="425" y="1918" width="50" height="30" as="geometry" />
        </mxCell>
        <mxCell id="2_WJz-mZz8zobtCXucVs-228" style="edgeStyle=orthogonalEdgeStyle;rounded=0;orthogonalLoop=1;jettySize=auto;html=1;entryX=1;entryY=1;entryDx=0;entryDy=0;" edge="1" parent="1" source="2_WJz-mZz8zobtCXucVs-223" target="2_WJz-mZz8zobtCXucVs-184">
          <mxGeometry relative="1" as="geometry">
            <Array as="points">
              <mxPoint x="-10" y="1825" />
              <mxPoint x="-10" y="1398" />
            </Array>
          </mxGeometry>
        </mxCell>
        <mxCell id="2_WJz-mZz8zobtCXucVs-223" value="Kayıtlanmayı Geri Al" style="html=1;align=center;verticalAlign=top;rounded=1;absoluteArcSize=1;arcSize=10;dashed=0;whiteSpace=wrap;fillColor=#f8cecc;strokeColor=#b85450;" vertex="1" parent="1">
          <mxGeometry x="15" y="1805" width="130" height="40" as="geometry" />
        </mxCell>
        <mxCell id="2_WJz-mZz8zobtCXucVs-237" style="edgeStyle=orthogonalEdgeStyle;rounded=0;orthogonalLoop=1;jettySize=auto;html=1;" edge="1" parent="1" source="2_WJz-mZz8zobtCXucVs-233" target="2_WJz-mZz8zobtCXucVs-235">
          <mxGeometry relative="1" as="geometry" />
        </mxCell>
        <mxCell id="2_WJz-mZz8zobtCXucVs-247" style="edgeStyle=orthogonalEdgeStyle;rounded=0;orthogonalLoop=1;jettySize=auto;html=1;exitX=0.25;exitY=1;exitDx=0;exitDy=0;" edge="1" parent="1" source="2_WJz-mZz8zobtCXucVs-233">
          <mxGeometry relative="1" as="geometry">
            <mxPoint x="-390" y="1080" as="targetPoint" />
            <Array as="points">
              <mxPoint x="-248" y="1080" />
            </Array>
          </mxGeometry>
        </mxCell>
        <mxCell id="2_WJz-mZz8zobtCXucVs-233" value="Yoklama Girişi" style="html=1;align=center;verticalAlign=top;rounded=1;absoluteArcSize=1;arcSize=10;dashed=0;whiteSpace=wrap;fillColor=#f8cecc;strokeColor=#b85450;" vertex="1" parent="1">
          <mxGeometry x="-290" y="1003" width="170" height="40" as="geometry" />
        </mxCell>
        <mxCell id="2_WJz-mZz8zobtCXucVs-238" style="edgeStyle=orthogonalEdgeStyle;rounded=0;orthogonalLoop=1;jettySize=auto;html=1;entryX=0.5;entryY=0;entryDx=0;entryDy=0;" edge="1" parent="1" source="2_WJz-mZz8zobtCXucVs-235" target="2_WJz-mZz8zobtCXucVs-236">
          <mxGeometry relative="1" as="geometry">
            <mxPoint x="-205" y="1190" as="targetPoint" />
          </mxGeometry>
        </mxCell>
        <mxCell id="2_WJz-mZz8zobtCXucVs-245" value="" style="edgeStyle=orthogonalEdgeStyle;rounded=0;orthogonalLoop=1;jettySize=auto;html=1;" edge="1" parent="1" source="2_WJz-mZz8zobtCXucVs-235">
          <mxGeometry relative="1" as="geometry">
            <mxPoint x="-50" y="1139" as="targetPoint" />
          </mxGeometry>
        </mxCell>
        <mxCell id="2_WJz-mZz8zobtCXucVs-235" value="Toplu Devamsızlık Gir" style="html=1;align=center;verticalAlign=top;rounded=1;absoluteArcSize=1;arcSize=10;dashed=0;whiteSpace=wrap;fillColor=#f8cecc;strokeColor=#b85450;" vertex="1" parent="1">
          <mxGeometry x="-290" y="1119" width="170" height="40" as="geometry" />
        </mxCell>
        <mxCell id="2_WJz-mZz8zobtCXucVs-242" style="edgeStyle=orthogonalEdgeStyle;rounded=0;orthogonalLoop=1;jettySize=auto;html=1;entryX=1;entryY=0.5;entryDx=0;entryDy=0;" edge="1" parent="1" source="2_WJz-mZz8zobtCXucVs-236" target="2_WJz-mZz8zobtCXucVs-233">
          <mxGeometry relative="1" as="geometry">
            <Array as="points">
              <mxPoint x="-50" y="1221" />
              <mxPoint x="-50" y="1023" />
            </Array>
          </mxGeometry>
        </mxCell>
        <mxCell id="2_WJz-mZz8zobtCXucVs-236" value="Güncelle/Kaydet" style="html=1;align=center;verticalAlign=top;rounded=1;absoluteArcSize=1;arcSize=10;dashed=0;whiteSpace=wrap;fillColor=#f8cecc;strokeColor=#b85450;" vertex="1" parent="1">
          <mxGeometry x="-290" y="1201" width="170" height="40" as="geometry" />
        </mxCell>
        <mxCell id="2_WJz-mZz8zobtCXucVs-285" value="&lt;font data-sider-select-id=&quot;38d9b957-4017-4271-8bfb-d7ed4c63e93e&quot; style=&quot;font-size: 40px;&quot;&gt;Ortak Davranış&lt;/font&gt;" style="text;html=1;align=center;verticalAlign=middle;resizable=0;points=[];autosize=1;strokeColor=none;fillColor=none;" vertex="1" parent="1">
          <mxGeometry x="-1290" y="140" width="290" height="60" as="geometry" />
        </mxCell>
        <mxCell id="2_WJz-mZz8zobtCXucVs-287" value="Hesap Ayarları Menüsüne Dön" style="text;html=1;align=center;verticalAlign=middle;resizable=0;points=[];autosize=1;strokeColor=none;fillColor=none;rotation=90;" vertex="1" parent="1">
          <mxGeometry x="-2470" y="1295" width="190" height="30" as="geometry" />
        </mxCell>
        <mxCell id="2_WJz-mZz8zobtCXucVs-288" value="Hayır" style="text;html=1;align=center;verticalAlign=middle;resizable=0;points=[];autosize=1;strokeColor=none;fillColor=none;" vertex="1" parent="1">
          <mxGeometry x="-2530" y="1538" width="50" height="30" as="geometry" />
        </mxCell>
        <mxCell id="2_WJz-mZz8zobtCXucVs-289" value="Evet" style="text;html=1;align=center;verticalAlign=middle;resizable=0;points=[];autosize=1;strokeColor=none;fillColor=none;" vertex="1" parent="1">
          <mxGeometry x="-2625" y="1638" width="50" height="30" as="geometry" />
        </mxCell>
        <mxCell id="2_WJz-mZz8zobtCXucVs-290" value="&lt;font data-sider-select-id=&quot;38d9b957-4017-4271-8bfb-d7ed4c63e93e&quot; style=&quot;font-size: 30px;&quot;&gt;Ortak Davranış&lt;/font&gt;" style="text;html=1;align=center;verticalAlign=middle;resizable=0;points=[];autosize=1;strokeColor=none;fillColor=none;rotation=90;" vertex="1" parent="1">
          <mxGeometry x="60" y="330" width="230" height="50" as="geometry" />
        </mxCell>
        <mxCell id="2_WJz-mZz8zobtCXucVs-293" value="&lt;font data-sider-select-id=&quot;38d9b957-4017-4271-8bfb-d7ed4c63e93e&quot; style=&quot;font-size: 30px;&quot;&gt;Ortak Davranış&lt;/font&gt;" style="text;html=1;align=center;verticalAlign=middle;resizable=0;points=[];autosize=1;strokeColor=none;fillColor=none;rotation=90;" vertex="1" parent="1">
          <mxGeometry x="1900" y="315" width="230" height="50" as="geometry" />
        </mxCell>
        <mxCell id="2_WJz-mZz8zobtCXucVs-294" value="&lt;font data-sider-select-id=&quot;38d9b957-4017-4271-8bfb-d7ed4c63e93e&quot; style=&quot;font-size: 40px;&quot;&gt;Ortak Davranış&lt;/font&gt;" style="text;html=1;align=center;verticalAlign=middle;resizable=0;points=[];autosize=1;strokeColor=none;fillColor=none;" vertex="1" parent="1">
          <mxGeometry x="1040" y="140" width="290" height="60" as="geometry" />
        </mxCell>
        <mxCell id="2_WJz-mZz8zobtCXucVs-298" style="edgeStyle=orthogonalEdgeStyle;rounded=0;orthogonalLoop=1;jettySize=auto;html=1;" edge="1" parent="1" source="7eG7Swem1IyPdvQVmkEB-44">
          <mxGeometry relative="1" as="geometry">
            <mxPoint x="1990" y="210" as="targetPoint" />
            <Array as="points">
              <mxPoint x="4080" y="210" />
            </Array>
          </mxGeometry>
        </mxCell>
        <mxCell id="2_WJz-mZz8zobtCXucVs-300" value="&lt;font data-sider-select-id=&quot;38d9b957-4017-4271-8bfb-d7ed4c63e93e&quot; style=&quot;font-size: 30px;&quot;&gt;Ortak Davranış&lt;/font&gt;" style="text;html=1;align=center;verticalAlign=middle;resizable=0;points=[];autosize=1;strokeColor=none;fillColor=none;rotation=90;" vertex="1" parent="1">
          <mxGeometry x="4000" y="315" width="230" height="50" as="geometry" />
        </mxCell>
        <mxCell id="2_WJz-mZz8zobtCXucVs-301" value="&lt;font data-sider-select-id=&quot;38d9b957-4017-4271-8bfb-d7ed4c63e93e&quot; style=&quot;font-size: 40px;&quot;&gt;Ortak Davranış&lt;/font&gt;" style="text;html=1;align=center;verticalAlign=middle;resizable=0;points=[];autosize=1;strokeColor=none;fillColor=none;" vertex="1" parent="1">
          <mxGeometry x="3090" y="140" width="290" height="60" as="geometry" />
        </mxCell>
      </root>
    </mxGraphModel>
  </diagram>
</mxfile>
